<svg width="11" height="14" viewBox="0 0 11 14" fill="none" xmlns="http://www.w3.org/2000/svg">
<path fill-rule="evenodd" clip-rule="evenodd" d="M5.5 0.777832C7.5238 0.777832 9.21367 2.32105 9.39689 4.33653L9.67752 7.42344C9.70215 7.69443 9.86524 7.93338 10.1086 8.05507L10.1108 8.05618C10.6558 8.32865 11 8.88562 11 9.49489V9.73498C11 10.5161 10.3668 11.1493 9.58571 11.1493H7.22851V11.4636C7.22851 12.4183 6.4546 13.1922 5.49994 13.1922C4.54528 13.1922 3.77137 12.4183 3.77137 11.4636V11.1493H1.41429C0.633197 11.1493 0 10.5161 0 9.73498V9.49489C0 8.88562 0.344228 8.32865 0.889171 8.05618L0.891376 8.05507C1.13475 7.93338 1.29785 7.69443 1.32248 7.42344L1.60311 4.33653C1.78634 2.32105 3.4762 0.777832 5.5 0.777832ZM4.71423 11.1493V11.4636C4.71423 11.8976 5.066 12.2494 5.49994 12.2494C5.93388 12.2494 6.28565 11.8976 6.28565 11.4636V11.1493H4.71423ZM5.50011 1.72069C3.96396 1.72069 2.68128 2.89206 2.5422 4.42189L2.26157 7.50881C2.20737 8.10498 1.84857 8.63067 1.31314 8.89839C1.08542 9.01225 0.942963 9.24275 0.942963 9.49488V9.73498C0.942963 9.99534 1.15403 10.2064 1.41439 10.2064H9.58582C9.84618 10.2064 10.0573 9.99534 10.0573 9.73498V9.49488C10.0573 9.24275 9.9148 9.01225 9.68928 8.89949C9.15164 8.63067 8.79284 8.10498 8.73864 7.50881L8.45801 4.42189C8.31894 2.89206 7.03625 1.72069 5.50011 1.72069Z" fill="white"/>
</svg>
