<svg width="89" height="12" viewBox="0 0 89 12" fill="none" xmlns="http://www.w3.org/2000/svg">
<path d="M5.26583 11.7161C4.20947 11.7161 3.28648 11.476 2.49687 10.9958C1.70726 10.5157 1.09371 9.84877 0.656229 8.99513C0.218743 8.13083 0 7.12782 0 5.98609C0 4.83368 0.224078 3.82 0.672234 2.94503C1.13106 2.05938 1.77662 1.37114 2.60891 0.880307C3.45187 0.378799 4.44955 0.128045 5.60195 0.128045C6.91441 0.128045 8.00279 0.442821 8.86709 1.07237C9.73139 1.70193 10.2916 2.57156 10.5477 3.68128H8.25888C8.08815 3.15843 7.77871 2.75296 7.33055 2.46486C6.8824 2.16609 6.3062 2.0167 5.60195 2.0167C4.48156 2.0167 3.61726 2.37416 3.00905 3.08908C2.40084 3.79332 2.09673 4.76433 2.09673 6.00209C2.09673 7.23986 2.3955 8.20019 2.99304 8.88309C3.60125 9.55533 4.42287 9.89145 5.4579 9.89145C6.47159 9.89145 7.23452 9.61935 7.7467 9.07516C8.26955 8.5203 8.58432 7.79472 8.69103 6.8984H5.85804V5.36187H10.7557V11.524H8.86709L8.70703 10.0515C8.34424 10.585 7.89075 10.9958 7.34656 11.2839C6.80237 11.572 6.10879 11.7161 5.26583 11.7161Z" fill="white"/>
<path d="M16.5568 11.7161C15.7565 11.7161 15.0469 11.5454 14.428 11.2039C13.8091 10.8625 13.3236 10.3823 12.9715 9.7634C12.6194 9.14452 12.4433 8.4296 12.4433 7.61865C12.4433 6.79703 12.6141 6.06611 12.9555 5.42589C13.3076 4.78567 13.7878 4.28949 14.396 3.93737C15.0149 3.57458 15.7405 3.39318 16.5728 3.39318C17.3517 3.39318 18.04 3.56391 18.6375 3.90536C19.235 4.24681 19.6992 4.71631 20.03 5.31385C20.3714 5.90072 20.5422 6.55695 20.5422 7.28254C20.5422 7.39991 20.5368 7.52262 20.5262 7.65067C20.5262 7.77871 20.5208 7.91209 20.5101 8.05081H14.476C14.5187 8.66969 14.7321 9.15519 15.1163 9.50731C15.5111 9.85944 15.9859 10.0355 16.5408 10.0355C16.9569 10.0355 17.3037 9.9448 17.5811 9.7634C17.8692 9.57133 18.0826 9.32592 18.2214 9.02715H20.3021C20.1527 9.52865 19.9019 9.98748 19.5498 10.4036C19.2084 10.8091 18.7815 11.1292 18.2694 11.364C17.7679 11.5987 17.197 11.7161 16.5568 11.7161ZM16.5728 5.05776C16.0713 5.05776 15.6284 5.20181 15.2443 5.48991C14.8602 5.76734 14.6148 6.19416 14.5081 6.77036H18.4614C18.4294 6.24751 18.2374 5.83137 17.8852 5.52192C17.5331 5.21248 17.0956 5.05776 16.5728 5.05776Z" fill="white"/>
<path d="M25.6618 11.524C24.8295 11.524 24.1626 11.3213 23.6611 10.9158C23.1596 10.5103 22.9089 9.79008 22.9089 8.75505V5.29785H21.5484V3.58525H22.9089L23.1489 1.45651H24.9576V3.58525H27.1023V5.29785H24.9576V8.77106C24.9576 9.15519 25.0376 9.42195 25.1977 9.57134C25.3684 9.71005 25.6565 9.77941 26.062 9.77941H27.0543V11.524H25.6618Z" fill="white"/>
<path d="M36.5485 11.7161C35.7269 11.7161 35.0013 11.5774 34.3717 11.2999C33.7422 11.0118 33.246 10.6064 32.8832 10.0835C32.5204 9.54999 32.3337 8.90444 32.323 8.14684H34.4838C34.5051 8.66969 34.6918 9.11251 35.044 9.4753C35.4068 9.82742 35.9029 10.0035 36.5325 10.0035C37.0767 10.0035 37.5088 9.87544 37.8289 9.61935C38.149 9.35259 38.3091 9.00047 38.3091 8.56298C38.3091 8.10416 38.165 7.7467 37.8769 7.49061C37.5995 7.23452 37.2261 7.02645 36.7566 6.86639C36.2871 6.70634 35.7855 6.53561 35.252 6.35421C34.3877 6.05544 33.7262 5.67131 33.2673 5.20181C32.8192 4.73232 32.5951 4.1081 32.5951 3.32916C32.5844 2.6676 32.7392 2.10207 33.0593 1.63257C33.39 1.1524 33.8382 0.784273 34.4037 0.528184C34.9693 0.261425 35.6202 0.128045 36.3564 0.128045C37.1033 0.128045 37.7596 0.261425 38.3251 0.528184C38.9013 0.794943 39.3495 1.16841 39.6696 1.64857C40.0004 2.12874 40.1764 2.69961 40.1978 3.36117H38.005C37.9943 2.96637 37.8396 2.61958 37.5408 2.32081C37.2527 2.01137 36.8473 1.85665 36.3244 1.85665C35.8762 1.84598 35.4975 1.95802 35.188 2.19276C34.8892 2.41684 34.7399 2.74762 34.7399 3.18511C34.7399 3.55857 34.8572 3.85734 35.092 4.08142C35.3267 4.29483 35.6468 4.47623 36.0523 4.62561C36.4578 4.775 36.9219 4.93505 37.4448 5.10578C37.9997 5.29785 38.5065 5.52192 38.9653 5.77801C39.4242 6.0341 39.7923 6.37555 40.0697 6.80237C40.3471 7.21851 40.4859 7.75737 40.4859 8.41893C40.4859 9.0058 40.3365 9.54999 40.0377 10.0515C39.7389 10.553 39.2961 10.9585 38.7092 11.2679C38.1224 11.5667 37.4021 11.7161 36.5485 11.7161Z" fill="white"/>
<path d="M45.7626 11.524C44.9303 11.524 44.2634 11.3213 43.7619 10.9158C43.2604 10.5103 43.0096 9.79008 43.0096 8.75505V5.29785H41.6491V3.58525H43.0096L43.2497 1.45651H45.0583V3.58525H47.2031V5.29785H45.0583V8.77106C45.0583 9.15519 45.1383 9.42195 45.2984 9.57134C45.4691 9.71005 45.7572 9.77941 46.1627 9.77941H47.1551V11.524H45.7626Z" fill="white"/>
<path d="M51.699 11.7161C51.0161 11.7161 50.4559 11.6094 50.0184 11.396C49.5809 11.1719 49.2555 10.8785 49.0421 10.5157C48.8287 10.1529 48.722 9.75273 48.722 9.31525C48.722 8.57899 49.0101 7.98145 49.5863 7.52262C50.1625 7.06379 51.0268 6.83438 52.1792 6.83438H54.1959V6.64231C54.1959 6.09812 54.0412 5.69799 53.7317 5.4419C53.4223 5.18581 53.0381 5.05776 52.5793 5.05776C52.1632 5.05776 51.8004 5.15913 51.4909 5.36187C51.1815 5.55394 50.9894 5.84204 50.9147 6.22617H48.914C48.9674 5.64997 49.1595 5.14846 49.4902 4.72165C49.8317 4.29483 50.2692 3.96938 50.8027 3.7453C51.3362 3.51056 51.9338 3.39318 52.5953 3.39318C53.7264 3.39318 54.6174 3.67595 55.2683 4.24148C55.9191 4.80701 56.2446 5.60729 56.2446 6.64231V11.524H54.5L54.3079 10.2436C54.0732 10.6704 53.7424 11.0225 53.3156 11.2999C52.8994 11.5774 52.3606 11.7161 51.699 11.7161ZM52.1632 10.1155C52.75 10.1155 53.2035 9.92346 53.5236 9.53932C53.8544 9.15519 54.0625 8.68036 54.1479 8.11483H52.4033C51.8591 8.11483 51.4696 8.2162 51.2348 8.41893C51.0001 8.611 50.8827 8.85108 50.8827 9.13918C50.8827 9.44863 51.0001 9.68871 51.2348 9.85944C51.4696 10.0302 51.779 10.1155 52.1632 10.1155Z" fill="white"/>
<path d="M58.1997 11.524V3.58525H60.0243L60.2164 5.07377C60.5045 4.56159 60.8939 4.15611 61.3848 3.85734C61.8863 3.5479 62.4731 3.39318 63.1454 3.39318V5.55393H62.5692C62.121 5.55393 61.7209 5.62329 61.3688 5.76201C61.0166 5.90072 60.7392 6.14081 60.5365 6.48226C60.3444 6.82371 60.2484 7.29854 60.2484 7.90675V11.524H58.1997Z" fill="white"/>
<path d="M68.0828 11.524C67.2506 11.524 66.5837 11.3213 66.0821 10.9158C65.5806 10.5103 65.3299 9.79008 65.3299 8.75505V5.29785H63.9694V3.58525H65.3299L65.57 1.45651H67.3786V3.58525H69.5233V5.29785H67.3786V8.77106C67.3786 9.15519 67.4586 9.42195 67.6187 9.57134C67.7894 9.71005 68.0775 9.77941 68.483 9.77941H69.4753V11.524H68.0828Z" fill="white"/>
<path d="M74.9365 11.7161C74.1362 11.7161 73.4266 11.5454 72.8077 11.2039C72.1889 10.8625 71.7033 10.3823 71.3512 9.7634C70.9991 9.14452 70.823 8.4296 70.823 7.61865C70.823 6.79703 70.9938 6.06611 71.3352 5.42589C71.6873 4.78567 72.1675 4.28949 72.7757 3.93737C73.3946 3.57458 74.1202 3.39318 74.9525 3.39318C75.7314 3.39318 76.4197 3.56391 77.0172 3.90536C77.6147 4.24681 78.0789 4.71631 78.4097 5.31385C78.7511 5.90072 78.9219 6.55695 78.9219 7.28254C78.9219 7.39991 78.9165 7.52262 78.9059 7.65067C78.9059 7.77871 78.9005 7.91209 78.8899 8.05081H72.8558C72.8984 8.66969 73.1118 9.15519 73.496 9.50731C73.8908 9.85944 74.3656 10.0355 74.9205 10.0355C75.3366 10.0355 75.6834 9.9448 75.9608 9.7634C76.2489 9.57133 76.4623 9.32592 76.6011 9.02715H78.6818C78.5324 9.52865 78.2816 9.98748 77.9295 10.4036C77.5881 10.8091 77.1613 11.1292 76.6491 11.364C76.1476 11.5987 75.5767 11.7161 74.9365 11.7161ZM74.9525 5.05776C74.451 5.05776 74.0082 5.20181 73.624 5.48991C73.2399 5.76734 72.9945 6.19416 72.8878 6.77036H76.8411C76.8091 6.24751 76.6171 5.83137 76.2649 5.52192C75.9128 5.21248 75.4753 5.05776 74.9525 5.05776Z" fill="white"/>
<path d="M84.2942 11.7161C83.5473 11.7161 82.8804 11.5347 82.2935 11.1719C81.7067 10.8091 81.2425 10.3129 80.9011 9.68337C80.5596 9.05382 80.3889 8.33891 80.3889 7.53863C80.3889 6.73835 80.5596 6.02877 80.9011 5.40988C81.2425 4.78033 81.7067 4.28949 82.2935 3.93737C82.8804 3.57458 83.5473 3.39318 84.2942 3.39318C84.8918 3.39318 85.4146 3.50522 85.8628 3.7293C86.3109 3.95338 86.6737 4.26815 86.9512 4.67363V0H88.9999V11.524H87.1752L86.9512 10.3876C86.6951 10.7397 86.3536 11.0492 85.9268 11.3159C85.5107 11.5827 84.9665 11.7161 84.2942 11.7161ZM84.7264 9.92346C85.388 9.92346 85.9268 9.70471 86.343 9.26723C86.7698 8.81907 86.9832 8.24821 86.9832 7.55463C86.9832 6.86106 86.7698 6.29553 86.343 5.85804C85.9268 5.40989 85.388 5.18581 84.7264 5.18581C84.0755 5.18581 83.5366 5.40455 83.1098 5.84204C82.683 6.27952 82.4696 6.84505 82.4696 7.53863C82.4696 8.2322 82.683 8.80307 83.1098 9.25122C83.5366 9.69938 84.0755 9.92346 84.7264 9.92346Z" fill="white"/>
</svg>
