<svg width="184" height="147" viewBox="0 0 184 147" fill="none" xmlns="http://www.w3.org/2000/svg">
<path d="M183.972 64.865V63.7954C183.972 63.5456 183.833 63.3166 183.611 63.201C183.582 63.1858 183.551 63.1728 183.52 63.1621L181.842 62.5798C181.777 62.5572 181.709 62.5457 181.64 62.5457C181.575 62.5457 181.51 62.5354 181.448 62.5151L179.468 61.8672C176.241 60.8115 172.735 60.9928 169.635 62.3758L167.364 63.3891L167.213 63.4338C166.37 63.6847 165.548 64.0027 164.755 64.3846L119.564 86.1603L111.462 90.1664L101.641 94.5481C101.573 94.5784 101.499 94.5941 101.425 94.5941C101.365 94.5941 101.307 94.5842 101.251 94.5648L100.728 94.3833L95.0564 92.9074L84.1192 89.7447L80.1734 88.307C80.1039 88.2817 80.0306 88.2688 79.9566 88.2688C79.8964 88.2688 79.8365 88.2602 79.7787 88.2433L73.3845 86.3712L71.9853 86.007C71.8384 85.9688 71.6963 85.9141 71.5617 85.8441C71.4271 85.774 71.285 85.7193 71.138 85.6811L70.6433 85.5523C70.5807 85.536 70.5162 85.5278 70.4515 85.5278C70.3818 85.5278 70.3124 85.5182 70.2453 85.4993L62.8524 83.4193L30.4458 74.1422L29.8382 73.9313L21.941 71.465C21.8193 71.427 21.7655 71.3437 21.6803 71.2491C21.6313 71.1946 21.5033 71.1622 21.4498 71.1121C18.1281 68.0002 16.7504 63.7629 16.587 59.2936C16.2789 50.8662 25.6752 46.7118 33.7688 49.1753L53.9494 55.318C54.0779 55.3571 54.2114 55.377 54.3457 55.377C54.4799 55.377 54.6134 55.3972 54.7416 55.4368L61.9375 57.6639C62.0069 57.6854 62.0792 57.6963 62.1519 57.6963C62.2136 57.6963 62.275 57.7041 62.3346 57.7197L63.0549 57.9071L71.1566 60.4373L72.1693 60.859L74.5998 61.4915L83.1065 64.0216L84.3218 64.4433L84.9294 64.6542L89.7904 66.3409L93.6387 67.606L96.371 68.4187C96.4395 68.439 96.5105 68.4494 96.582 68.4494C96.6449 68.4494 96.7076 68.4574 96.7685 68.4732L99.1073 69.0819L99.4593 69.2041C100.01 69.3952 100.616 69.351 101.133 69.0819L106.196 66.5518L107.006 66.1301L107.411 65.9192L117.944 61.0698L134.147 53.4794L135.362 53.0577L142.451 49.895L172.427 35.9793L173.237 35.5576L180.938 32.0632C181.059 32.0084 181.136 31.8883 181.136 31.756C181.136 31.6303 181.207 31.515 181.318 31.4568L181.527 31.3484C181.782 31.2155 181.934 30.9451 181.915 30.6588L181.75 28.1602C181.624 26.2672 180.337 24.6488 178.517 24.0945L101.725 0.715873C97.8241 -0.471835 93.6192 -0.173898 89.9259 1.55193L14.4451 36.8226C13.876 37.1781 13.3069 37.6667 12.8097 38.1762C12.0922 38.9114 11.4172 39.6926 10.747 40.471C3.8606 48.4698 5.27218 63.2584 9.96285 72.6036C10.8976 74.4658 10.2641 76.8497 8.36881 77.7265C7.75996 78.1068 7.15111 78.6395 6.63029 79.1872C5.99026 79.8602 5.38703 80.5715 4.7851 81.2785C-4.36888 92.0317 1.01224 114.498 9.20658 120.429C9.962 120.976 10.8423 121.3 11.7337 121.577L91.1934 146.257C95.1121 147.474 99.3457 147.188 103.064 145.456L177.918 110.586C178.151 110.477 178.301 110.243 178.301 109.986L178.098 105.558V104.488C178.098 104.239 177.959 104.01 177.737 103.894C177.708 103.879 177.678 103.866 177.647 103.855L175.97 103.273C175.904 103.25 175.835 103.239 175.765 103.239C175.701 103.239 175.637 103.229 175.575 103.209L173.603 102.582C170.244 101.514 166.604 101.755 163.417 103.257L95.549 135.246C95.4914 135.273 95.4285 135.287 95.3648 135.287C95.2953 135.287 95.2268 135.27 95.1653 135.238L94.9736 135.139C94.894 135.097 94.8104 135.064 94.724 135.04L23.9645 115.046L16.1423 112.603C16.0062 112.561 15.7589 112.408 15.6603 112.305C12.0839 109.203 10.6515 104.781 10.5505 100.086C10.3699 91.6882 19.7461 87.6399 27.7926 90.1431L48.8771 96.7026L56.7762 99.2327L91.1106 109.955C91.1753 109.976 91.2426 109.986 91.3104 109.986C91.3769 109.986 91.443 109.996 91.5066 110.015L93.9802 110.773C94.54 110.944 95.145 110.889 95.6641 110.618L102.145 107.667L137.185 91.4314L167.364 77.3048L168.174 76.8832L175.975 73.343C176.035 73.3161 176.073 73.257 176.073 73.192C176.073 73.1284 176.109 73.0703 176.167 73.0426L180.551 70.9278C182.851 69.8182 184.216 67.3999 183.972 64.865Z" fill="white"/>
</svg>
