<svg width="13" height="13" viewBox="0 0 13 13" fill="none" xmlns="http://www.w3.org/2000/svg">
<path fill-rule="evenodd" clip-rule="evenodd" d="M9.85893 1.72679H7.03036V0.842857C7.03036 0.549949 6.79291 0.3125 6.5 0.3125C6.2071 0.3125 5.96965 0.549949 5.96965 0.842857V1.72679H3.14108V0.842857C3.14108 0.549949 2.90363 0.3125 2.61072 0.3125C2.31782 0.3125 2.08037 0.549949 2.08037 0.842857V1.73471C1.08921 1.82403 0.3125 2.65702 0.3125 3.67143V4.90893V5.96964V10.7429C0.3125 11.8169 1.18315 12.6875 2.25714 12.6875H10.7429C11.8169 12.6875 12.6875 11.8169 12.6875 10.7429V5.96964V4.90893V3.67143C12.6875 2.65702 11.9108 1.82403 10.9196 1.73471V0.842857C10.9196 0.549949 10.6822 0.3125 10.3893 0.3125C10.0964 0.3125 9.85893 0.549949 9.85893 0.842857V1.72679ZM1.37321 10.7429V5.96964H11.6268V10.7429C11.6268 11.231 11.231 11.6268 10.7429 11.6268H2.25714C1.76896 11.6268 1.37321 11.231 1.37321 10.7429ZM11.6268 4.90893V3.67143C11.6268 3.18325 11.231 2.7875 10.7429 2.7875H2.25714C1.76896 2.7875 1.37321 3.18325 1.37321 3.67143V4.90893H11.6268Z" fill="white"/>
</svg>
