<svg width="30" height="24" viewBox="0 0 30 24" fill="none" xmlns="http://www.w3.org/2000/svg">
<path d="M14.4689 13.098L0 6.54899L14.8493 0L29.1644 6.39623L14.4689 13.098Z" fill="white"/>
<path d="M28.8728 6.16852H27.9592V15.7638H28.8728V6.16852Z" fill="white"/>
<path d="M29.8623 16.1059C29.8631 15.8195 29.7789 15.5394 29.6203 15.3009C29.4618 15.0625 29.2361 14.8764 28.9717 14.7663C28.7073 14.6562 28.4163 14.6271 28.1353 14.6825C27.8544 14.738 27.5962 14.8756 27.3936 15.0779C27.1909 15.2801 27.0528 15.538 26.9967 15.8188C26.9407 16.0997 26.9692 16.3908 27.0788 16.6554C27.1883 16.92 27.3739 17.1461 27.6121 17.3051C27.8502 17.4641 28.1302 17.5489 28.4165 17.5487C28.7994 17.5485 29.1665 17.3965 29.4375 17.126C29.7085 16.8556 29.8613 16.4887 29.8623 16.1059Z" fill="white"/>
<path d="M27.7601 16.5632C27.7601 16.5632 26.6139 18.962 27.0702 22.6174H28.7151V16.2212C28.7151 16.2212 27.7601 16.7534 27.7601 16.5632Z" fill="white"/>
<path d="M29.2089 16.5632C29.2089 16.5632 30.3491 18.962 29.8918 22.6174H28.2588V16.2212C28.2588 16.2212 29.2098 16.7534 29.2089 16.5632Z" fill="white"/>
<path d="M22.6923 10.4528C22.6923 10.5217 15.6071 13.8036 14.2402 14.4403C12.8722 13.8036 5.78711 10.5208 5.78711 10.4528V20.1802C8.07063 22.6066 12.5716 22.9988 14.0115 23.0609V23.0737C14.0115 23.0737 14.0943 23.0737 14.2402 23.0737C14.386 23.0737 14.4688 23.0737 14.4688 23.0737V23.0609C15.9087 22.9978 20.4087 22.6066 22.6933 20.1802L22.6923 10.4528Z" fill="white"/>
</svg>
