<svg width="16" height="9" viewBox="0 0 16 9" fill="none" xmlns="http://www.w3.org/2000/svg">
<path fill-rule="evenodd" clip-rule="evenodd" d="M2.19542 0.194993C2.45608 -0.0649977 2.8774 -0.0649977 3.13806 0.194993L5.13799 2.19492C5.39864 2.45491 5.39864 2.88157 5.13799 3.14156C4.87733 3.40155 4.45601 3.40155 4.19535 3.14156L3.33338 2.27492V7.33474C3.33338 7.7014 3.03473 8.00139 2.66674 8.00139C2.29875 8.00139 2.0001 7.7014 2.0001 7.33474V2.27492L1.13813 3.14156C0.877469 3.40155 0.456151 3.40155 0.195493 3.14156C-0.0651644 2.88157 -0.0651644 2.45491 0.195493 2.19492L2.19542 0.194993ZM15.333 1.33496H7.33324C6.96526 1.33496 6.6666 1.03497 6.6666 0.668317C6.6666 0.301663 6.96526 0.00167406 7.33324 0.00167406H15.333C15.701 0.00167406 15.9996 0.301663 15.9996 0.668317C15.9996 1.03497 15.701 1.33496 15.333 1.33496ZM6.6666 4.00153C6.6666 3.63488 6.96526 3.33489 7.33324 3.33489H12.6664C13.0344 3.33489 13.333 3.63488 13.333 4.00153C13.333 4.36818 13.0344 4.66817 12.6664 4.66817H7.33324C6.96526 4.66817 6.6666 4.36818 6.6666 4.00153ZM6.6666 7.33474C6.6666 6.96809 6.96526 6.6681 7.33324 6.6681H12.6664C13.0344 6.6681 13.333 6.96809 13.333 7.33474C13.333 7.7014 13.0344 8.00139 12.6664 8.00139H7.33324C6.96526 8.00139 6.6666 7.7014 6.6666 7.33474Z" fill="white"/>
</svg>
