<svg width="19" height="20" viewBox="0 0 19 20" fill="none" xmlns="http://www.w3.org/2000/svg">
<path fill-rule="evenodd" clip-rule="evenodd" d="M3.60522 14H13.1052C14.9908 14 15.9337 14 16.5194 13.4142C17.1052 12.8284 17.1052 11.8856 17.1052 10V5C17.1052 3.11438 17.1052 2.17157 16.5194 1.58579C15.9337 1 14.9908 1 13.1052 1H5.10522C3.21961 1 2.2768 1 1.69101 1.58579C1.10522 2.17157 1.10522 3.11438 1.10522 5V16.5C1.10522 15.1193 2.22451 14 3.60522 14ZM6.10522 4C5.00066 4 4.10522 4.89543 4.10522 6C4.10522 7.10457 5.00065 8 6.10522 8L12.1052 8C13.2098 8 14.1052 7.10457 14.1052 6C14.1052 4.89543 13.2098 4 12.1052 4L6.10522 4Z" fill="white"/>
<path d="M1.10522 16.5V5C1.10522 3.11438 1.10522 2.17157 1.69101 1.58579C2.2768 1 3.21961 1 5.10522 1H13.1052C14.9908 1 15.9337 1 16.5194 1.58579C17.1052 2.17157 17.1052 3.11438 17.1052 5V10C17.1052 11.8856 17.1052 12.8284 16.5194 13.4142C15.9337 14 14.9908 14 13.1052 14H3.60522C2.22451 14 1.10522 15.1193 1.10522 16.5ZM1.10522 16.5C1.10522 17.8807 2.22451 19 3.60522 19H8.10522M17.1052 19H7.10522M4.10522 6C4.10522 4.89543 5.00066 4 6.10522 4L12.1052 4C13.2098 4 14.1052 4.89543 14.1052 6C14.1052 7.10457 13.2098 8 12.1052 8L6.10522 8C5.00065 8 4.10522 7.10457 4.10522 6Z" stroke="white" stroke-width="2" stroke-linecap="round"/>
<path d="M17.1052 19V11" stroke="white" stroke-width="2" stroke-linecap="round"/>
</svg>
