<svg width="18" height="20" viewBox="0 0 18 20" fill="none" xmlns="http://www.w3.org/2000/svg">
<path d="M17 19H3.5C2.11929 19 1 17.8807 1 16.5V16.5M1 16.5V5C1 3.11438 1 2.17157 1.58579 1.58579C2.17157 1 3.11438 1 5 1H13C14.8856 1 15.8284 1 16.4142 1.58579C17 2.17157 17 3.11438 17 5V10C17 11.8856 17 12.8284 16.4142 13.4142C15.8284 14 14.8856 14 13 14H3.5C2.11929 14 1 15.1193 1 16.5V16.5Z" stroke="white" stroke-linecap="round"/>
<path d="M6 6L12 6" stroke="white" stroke-linecap="round"/>
<path d="M17 19V11" stroke="white" stroke-linecap="round"/>
</svg>
