<svg width="20" height="20" viewBox="0 0 20 20" fill="none" xmlns="http://www.w3.org/2000/svg">
<path d="M10 1L10.3254 0.620372C10.1382 0.459876 9.86185 0.459876 9.6746 0.620372L10 1ZM1 8.71429L0.674604 8.33466L0.5 8.48432V8.71429H1ZM7.42857 19V19.5C7.70471 19.5 7.92857 19.2761 7.92857 19H7.42857ZM12.5714 19H12.0714C12.0714 19.2761 12.2953 19.5 12.5714 19.5V19ZM19 8.71429H19.5V8.48432L19.3254 8.33466L19 8.71429ZM2.28571 19.5H7.42857V18.5H2.28571V19.5ZM19.3254 8.33466L10.3254 0.620372L9.6746 1.37963L18.6746 9.09391L19.3254 8.33466ZM9.6746 0.620372L0.674604 8.33466L1.3254 9.09391L10.3254 1.37963L9.6746 0.620372ZM7.92857 19V15.1429H6.92857V19H7.92857ZM12.0714 15.1429V19H13.0714V15.1429H12.0714ZM12.5714 19.5H17.7143V18.5H12.5714V19.5ZM19.5 17.7143V8.71429H18.5V17.7143H19.5ZM0.5 8.71429V17.7143H1.5V8.71429H0.5ZM10 13.0714C11.144 13.0714 12.0714 13.9988 12.0714 15.1429H13.0714C13.0714 13.4466 11.6963 12.0714 10 12.0714V13.0714ZM10 12.0714C8.3037 12.0714 6.92857 13.4466 6.92857 15.1429H7.92857C7.92857 13.9988 8.85598 13.0714 10 13.0714V12.0714ZM17.7143 19.5C18.7005 19.5 19.5 18.7005 19.5 17.7143H18.5C18.5 18.1482 18.1482 18.5 17.7143 18.5V19.5ZM2.28571 18.5C1.85178 18.5 1.5 18.1482 1.5 17.7143H0.5C0.5 18.7005 1.29949 19.5 2.28571 19.5V18.5Z" fill="white" fill-opacity="0.6"/>
</svg>
