<svg width="26" height="26" viewBox="0 0 26 26" fill="none" xmlns="http://www.w3.org/2000/svg">
<g clip-path="url(#clip0)">
<path d="M12.5154 3.77961L2.82422 0.315308V21.6788L12.5154 18.5031V3.77961Z" fill="#070417"/>
<path d="M12.283 3.76883L22.3452 0.304626V21.6681L12.283 18.4924V3.76883Z" fill="white"/>
<path d="M0.311279 25.4185L12.2829 21.377V3.76654L0.311279 7.80805V25.4185Z" fill="white"/>
<path d="M4.38194 9.83675C4.31836 9.77361 4.46506 10.3536 4.6685 10.5622C5.02976 10.9314 5.31196 10.979 5.4622 10.9851C5.79468 10.9985 6.20498 10.9009 6.44863 10.7977C6.68438 10.6959 7.09749 10.482 7.25386 10.1707C7.28701 10.104 7.3775 9.99176 7.32067 9.71583C7.27755 9.50326 7.14404 9.42886 6.98102 9.44065C6.818 9.45243 6.32489 9.58503 6.08633 9.65932C5.84777 9.73362 5.35612 9.88421 5.14187 9.93125C4.92763 9.97829 4.45696 9.90947 4.38194 9.83675Z" fill="#070417"/>
<path d="M10.4223 16.7708C10.328 16.7361 8.37608 15.9172 8.09939 15.783C7.87299 15.6727 7.31785 15.435 7.05665 15.327C7.79237 14.1781 8.2568 13.311 8.31862 13.179C8.43292 12.9369 9.21217 11.394 9.22994 11.299C9.2477 11.2039 9.26973 10.847 9.25259 10.7623C9.23544 10.6761 8.94993 10.8417 8.56227 10.9748C8.17462 11.108 7.43609 11.5937 7.15109 11.6547C6.86609 11.7156 5.95094 12.0658 5.48318 12.2229C5.01542 12.38 4.1306 12.6537 3.76643 12.7533C3.40225 12.8529 3.0838 12.8607 2.87994 12.9234C2.87994 12.9234 2.90706 13.2125 2.9612 13.2993C3.01533 13.386 3.20754 13.5985 3.43176 13.6579C3.65598 13.7172 4.02711 13.6937 4.19616 13.6545C4.3652 13.6154 4.65779 13.4699 4.69706 13.4067C4.73634 13.3435 4.67628 13.1443 4.7434 13.0845C4.81052 13.0246 5.70168 12.8143 6.03801 12.7114C6.37433 12.6067 7.66197 12.1576 7.83653 12.1808C7.78125 12.3666 6.74557 14.4441 6.41215 15.0642C6.07873 15.6844 4.14047 18.4098 3.72798 18.8903C3.41483 19.2556 2.65594 20.1903 2.39307 20.4012C2.45936 20.4197 2.9293 20.3789 3.01491 20.3252C3.54823 19.9924 4.4371 18.8719 4.72325 18.5306C5.5743 17.5204 6.32103 16.4592 6.91358 15.5483H6.91462C7.03005 15.597 7.96339 16.3672 8.20693 16.5375C8.45047 16.7078 9.41156 17.2512 9.61998 17.3413C9.8284 17.4314 10.6284 17.8062 10.6621 17.6797C10.6958 17.5532 10.5167 16.8071 10.4223 16.7708Z" fill="#070417"/>
<path fill-rule="evenodd" clip-rule="evenodd" d="M11.959 21.1415L0.633794 24.9615V8.0399L11.959 4.2199V21.1415ZM12.5928 3.7253V21.4046C12.5817 21.4625 12.5567 21.5167 12.52 21.5625C12.4993 21.5941 12.4577 21.6361 12.4265 21.6467C12.1668 21.7519 0.467553 25.7298 0.311702 25.7298C0.187021 25.7298 0.0727305 25.6456 0.0103901 25.5088C0.0103901 25.4982 0 25.4877 0 25.4667V7.77682C0.0207801 7.7242 0.0311702 7.65054 0.0727305 7.60844C0.155851 7.49268 0.301312 7.47164 0.394823 7.44007C0.571454 7.37693 12.094 3.46222 12.2603 3.46222C12.3642 3.46222 12.5928 3.53588 12.5928 3.7253Z" fill="#070417"/>
<path fill-rule="evenodd" clip-rule="evenodd" d="M22.0269 21.2257L12.6031 18.2581V3.99889L22.0269 0.757685V21.2257ZM22.6607 0.336749V21.6256C22.6503 21.8676 22.4841 21.9729 22.3282 21.9729C22.1932 21.9729 21.2165 21.6361 21.0503 21.5835C19.7411 21.1731 18.4216 20.7627 17.1228 20.3523C16.8319 20.2576 16.5306 20.1628 16.2501 20.0681C16.0007 19.9945 15.7306 19.9103 15.4812 19.8261C14.3695 19.4788 13.2369 19.1316 12.1252 18.7527C12.0836 18.7422 11.9797 18.5949 11.9797 18.5633V3.69372C12.0005 3.6411 12.0213 3.57796 12.0732 3.53586C12.1564 3.44115 15.7202 2.24149 17.1228 1.76793C17.4969 1.63113 22.1828 0 22.3282 0C22.5153 0 22.6607 0.136804 22.6607 0.336749Z" fill="#070417"/>
<path d="M25.0526 25.6846L12.4629 21.6203L12.5156 3.92731L25.0526 7.96882V25.6846Z" fill="#070417"/>
<path fill-rule="evenodd" clip-rule="evenodd" d="M18.7057 11.8341L17.47 14.8591L19.7418 15.5566L18.7057 11.8341ZM17.9641 8.97845L19.5861 9.47632L22.5412 20.2628L20.8751 19.7509L20.2761 17.5364L16.8335 16.4794L16.0931 18.2834L14.4265 17.7713L17.9641 8.97845Z" fill="white"/>
</g>
<defs>
<clipPath id="clip0">
<rect width="25.0526" height="25.7297" fill="white"/>
</clipPath>
</defs>
</svg>
