<svg width="10" height="13" viewBox="0 0 10 13" fill="none" xmlns="http://www.w3.org/2000/svg">
<path fill-rule="evenodd" clip-rule="evenodd" d="M5.32813 1.34375C4.18912 1.34375 3.26563 2.26723 3.26563 3.40625V5.46875H7.39063V3.40625C7.39063 2.26723 6.46715 1.34375 5.32813 1.34375ZM8.42188 5.46875V3.40625C8.42188 1.69798 7.03639 0.3125 5.32812 0.3125C3.61986 0.3125 2.23438 1.69798 2.23438 3.40625V5.46875C1.37998 5.46875 0.6875 6.16123 0.6875 7.01562V11.1406C0.6875 11.995 1.37998 12.6875 2.23438 12.6875H8.42188C9.27627 12.6875 9.96875 11.995 9.96875 11.1406V7.01562C9.96875 6.16123 9.27627 5.46875 8.42188 5.46875ZM2.23438 6.5C1.94976 6.5 1.71876 6.731 1.71876 7.01562V11.1406C1.71876 11.4253 1.94976 11.6562 2.23438 11.6562H8.42188C8.70651 11.6562 8.93751 11.4253 8.93751 11.1406V7.01562C8.93751 6.731 8.70651 6.5 8.42188 6.5H2.23438ZM5.32813 8.04688C5.61276 8.04688 5.84376 8.27787 5.84376 8.5625V9.59375C5.84376 9.87838 5.61276 10.1094 5.32813 10.1094C5.04351 10.1094 4.81251 9.87838 4.81251 9.59375V8.5625C4.81251 8.27787 5.04351 8.04688 5.32813 8.04688Z" fill="white"/>
</svg>
