<svg width="18" height="26" viewBox="0 0 18 26" fill="none" xmlns="http://www.w3.org/2000/svg">
<path d="M15.0323 25.8009H2.9683C1.33144 25.8009 0 24.4688 0 22.8326V2.9683C0 1.33144 1.33204 0 2.9683 0H15.0317C16.6686 0 18 1.33144 18 2.9683V22.8326C18.0006 24.4688 16.6686 25.8009 15.0323 25.8009ZM2.9683 0.60002C1.66205 0.60002 0.60002 1.66265 0.60002 2.9683V22.8326C0.60002 24.1388 1.66265 25.2008 2.9683 25.2008H15.0317C16.3379 25.2008 17.4 24.1382 17.4 22.8326V2.9683C17.4 1.66265 16.3373 0.60002 15.0317 0.60002H2.9683Z" fill="white"/>
<path d="M13.8611 9.30021H4.13956C3.01513 9.30021 2.1001 8.38518 2.1001 7.26075V4.13944C2.1001 3.015 3.01513 2.09998 4.13956 2.09998H13.8605C14.9855 2.09998 15.9006 3.015 15.9006 4.13944V7.26075C15.9006 8.38518 14.9855 9.30021 13.8611 9.30021ZM4.13956 2.7C3.34574 2.7 2.70012 3.34562 2.70012 4.13944V7.26075C2.70012 8.05457 3.34574 8.70019 4.13956 8.70019H13.8605C14.6549 8.70019 15.3005 8.05457 15.3005 7.26075V4.13944C15.3005 3.34562 14.6549 2.7 13.8611 2.7H4.13956Z" fill="white"/>
<path d="M3.59986 14.4006C2.60743 14.4006 1.7998 13.593 1.7998 12.6006C1.7998 11.6082 2.60743 10.8005 3.59986 10.8005C4.5923 10.8005 5.39993 11.6082 5.39993 12.6006C5.39993 13.593 4.5923 14.4006 3.59986 14.4006Z" fill="white"/>
<path d="M3.59986 14.4006C2.60743 14.4006 1.7998 13.593 1.7998 12.6006C1.7998 11.6082 2.60743 10.8005 3.59986 10.8005C4.5923 10.8005 5.39993 11.6082 5.39993 12.6006C5.39993 13.593 4.5923 14.4006 3.59986 14.4006Z" stroke="white"/>
<path d="M9.00001 14.4006C8.00758 14.4006 7.19995 13.593 7.19995 12.6006C7.19995 11.6082 8.00758 10.8005 9.00001 10.8005C9.99244 10.8005 10.8001 11.6082 10.8001 12.6006C10.8001 13.593 9.99244 14.4006 9.00001 14.4006ZM9.00001 11.4006C8.33819 11.4006 7.79997 11.9388 7.79997 12.6006C7.79997 13.2624 8.33819 13.8006 9.00001 13.8006C9.66183 13.8006 10.2 13.2624 10.2 12.6006C10.2 11.9388 9.66183 11.4006 9.00001 11.4006Z" fill="white"/>
<path d="M14.4006 14.4006C13.4082 14.4006 12.6006 13.593 12.6006 12.6006C12.6006 11.6082 13.4082 10.8005 14.4006 10.8005C15.3931 10.8005 16.2007 11.6082 16.2007 12.6006C16.2007 13.593 15.3931 14.4006 14.4006 14.4006ZM14.4006 11.4006C13.7388 11.4006 13.2006 11.9388 13.2006 12.6006C13.2006 13.2624 13.7388 13.8006 14.4006 13.8006C15.0625 13.8006 15.6007 13.2624 15.6007 12.6006C15.6007 11.9388 15.0625 11.4006 14.4006 11.4006Z" fill="white"/>
<path d="M3.59986 19.2006C2.60743 19.2006 1.7998 18.393 1.7998 17.4005C1.7998 16.4081 2.60743 15.6005 3.59986 15.6005C4.5923 15.6005 5.39993 16.4081 5.39993 17.4005C5.39993 18.393 4.5923 19.2006 3.59986 19.2006ZM3.59986 16.2005C2.93804 16.2005 2.39982 16.7387 2.39982 17.4005C2.39982 18.0623 2.93804 18.6006 3.59986 18.6006C4.26169 18.6006 4.79991 18.0623 4.79991 17.4005C4.79991 16.7387 4.26169 16.2005 3.59986 16.2005Z" fill="white"/>
<path d="M9.00001 19.2006C8.00758 19.2006 7.19995 18.393 7.19995 17.4005C7.19995 16.4081 8.00758 15.6005 9.00001 15.6005C9.99244 15.6005 10.8001 16.4081 10.8001 17.4005C10.8001 18.393 9.99244 19.2006 9.00001 19.2006Z" fill="white"/>
<path d="M14.4006 19.2006C13.4082 19.2006 12.6006 18.393 12.6006 17.4005C12.6006 16.4081 13.4082 15.6005 14.4006 15.6005C15.3931 15.6005 16.2007 16.4081 16.2007 17.4005C16.2007 18.393 15.3931 19.2006 14.4006 19.2006ZM14.4006 16.2005C13.7388 16.2005 13.2006 16.7387 13.2006 17.4005C13.2006 18.0623 13.7388 18.6006 14.4006 18.6006C15.0625 18.6006 15.6007 18.0623 15.6007 17.4005C15.6007 16.7387 15.0625 16.2005 14.4006 16.2005Z" fill="white"/>
<path d="M9.00004 24.0005H3.59986C2.60743 24.0005 1.7998 23.1929 1.7998 22.2005C1.7998 21.208 2.60743 20.4004 3.59986 20.4004H9.00004C9.99247 20.4004 10.8001 21.208 10.8001 22.2005C10.8001 23.1929 9.99247 24.0005 9.00004 24.0005ZM3.59986 21.0004C2.93804 21.0004 2.39982 21.5386 2.39982 22.2005C2.39982 22.8623 2.93804 23.4005 3.59986 23.4005H9.00004C9.66186 23.4005 10.2001 22.8623 10.2001 22.2005C10.2001 21.5386 9.66186 21.0004 9.00004 21.0004H3.59986Z" fill="white"/>
<path d="M14.4006 24.0005C13.4082 24.0005 12.6006 23.1929 12.6006 22.2005C12.6006 21.208 13.4082 20.4004 14.4006 20.4004C15.3931 20.4004 16.2007 21.208 16.2007 22.2005C16.2007 23.1929 15.3931 24.0005 14.4006 24.0005Z" fill="white"/>
</svg>
