<svg width="24" height="28" viewBox="0 0 24 28" fill="none" xmlns="http://www.w3.org/2000/svg">
<path d="M18.5418 11.9986C18.5422 10.9929 18.3106 10.0006 17.8652 9.0988C17.4198 8.19704 16.7725 7.41011 15.9735 6.79916C15.1746 6.1882 14.2456 5.76967 13.2586 5.57608C12.2716 5.38248 11.2533 5.41905 10.2828 5.68292C9.31225 5.9468 8.41562 6.43088 7.66255 7.09756C6.90948 7.76424 6.32026 8.59556 5.94066 9.52695C5.56106 10.4583 5.40131 11.4647 5.47381 12.4678C5.54631 13.471 5.84911 14.4439 6.35869 15.311C7.30455 16.8813 7.81387 18.6756 7.83401 20.5086V21.915C7.834 21.9727 7.84536 22.0298 7.86744 22.0831C7.88951 22.1364 7.92186 22.1848 7.96265 22.2256C8.00344 22.2664 8.05186 22.2987 8.10515 22.3208C8.15844 22.3429 8.21556 22.3542 8.27324 22.3542H15.7267C15.7844 22.3542 15.8415 22.3429 15.8948 22.3208C15.9481 22.2987 15.9965 22.2664 16.0373 22.2256C16.0781 22.1848 16.1105 22.1364 16.1325 22.0831C16.1546 22.0298 16.166 21.9727 16.166 21.915V20.5076C16.1575 18.7119 16.6467 16.949 17.5793 15.4145C18.2095 14.3867 18.5427 13.2043 18.5418 11.9986ZM15.2875 20.5076V21.4758H8.71247V20.5086C8.69236 18.5189 8.14106 16.5706 7.11558 14.8654C6.60839 14.0013 6.33953 13.0181 6.33645 12.0161C6.33337 11.0141 6.59618 10.0292 7.09805 9.16198C7.59992 8.29474 8.32289 7.57617 9.19318 7.0796C10.0635 6.58304 11.0499 6.32625 12.0519 6.33545C13.0538 6.34465 14.0354 6.61951 14.8964 7.13198C15.7575 7.64444 16.4671 8.37616 16.953 9.25248C17.4388 10.1288 17.6835 11.1183 17.662 12.1201C17.6405 13.1218 17.3537 14.1 16.8307 14.9546C15.8131 16.6275 15.279 18.5496 15.2875 20.5076Z" fill="white"/>
<path d="M12 4.05695C12.0577 4.05695 12.1148 4.04559 12.1681 4.02352C12.2214 4.00145 12.2698 3.96909 12.3106 3.92831C12.3514 3.88752 12.3838 3.8391 12.4058 3.78581C12.4279 3.73252 12.4393 3.6754 12.4393 3.61772V0.437928C12.4389 0.321663 12.3925 0.210277 12.3102 0.128187C12.2278 0.0460971 12.1163 0 12 0C11.8838 0 11.7722 0.0460971 11.6899 0.128187C11.6076 0.210277 11.5611 0.321663 11.5608 0.437928V3.61772C11.5608 3.6754 11.5721 3.73252 11.5942 3.78581C11.6163 3.8391 11.6487 3.88752 11.6894 3.92831C11.7302 3.96909 11.7786 4.00145 11.8319 4.02352C11.8852 4.04559 11.9423 4.05695 12 4.05695Z" fill="white"/>
<path d="M23.5608 11.5594H20.3811C20.2646 11.5594 20.1529 11.6057 20.0705 11.6881C19.9882 11.7705 19.9419 11.8822 19.9419 11.9987C19.9419 12.1152 19.9882 12.2269 20.0705 12.3093C20.1529 12.3916 20.2646 12.4379 20.3811 12.4379H23.5608C23.6773 12.4379 23.789 12.3916 23.8714 12.3093C23.9537 12.2269 24 12.1152 24 11.9987C24 11.8822 23.9537 11.7705 23.8714 11.6881C23.789 11.6057 23.6773 11.5594 23.5608 11.5594H23.5608Z" fill="white"/>
<path d="M18.2369 17.6144C18.1961 17.5734 18.1477 17.5407 18.0944 17.5185C18.041 17.4962 17.9838 17.4846 17.9259 17.4845C17.8681 17.4844 17.8108 17.4957 17.7574 17.5178C17.7039 17.5398 17.6554 17.5722 17.6145 17.6131C17.5736 17.654 17.5412 17.7026 17.5191 17.756C17.497 17.8095 17.4857 17.8668 17.4858 17.9246C17.486 17.9824 17.4975 18.0397 17.5198 18.093C17.5421 18.1464 17.5747 18.1948 17.6158 18.2355L18.74 19.3598C18.8224 19.4418 18.934 19.4876 19.0502 19.4874C19.1664 19.4873 19.2778 19.441 19.36 19.3588C19.4422 19.2766 19.4885 19.1652 19.4887 19.049C19.4889 18.9328 19.443 18.8212 19.3611 18.7387L18.2369 17.6144Z" fill="white"/>
<path d="M18.7399 4.6376L17.6158 5.76191C17.5747 5.80264 17.5422 5.85107 17.5199 5.90441C17.4977 5.95776 17.4862 6.01496 17.4861 6.07276C17.486 6.13056 17.4973 6.18781 17.5194 6.24122C17.5415 6.29464 17.5739 6.34317 17.6147 6.38404C17.6556 6.42491 17.7041 6.45731 17.7575 6.47938C17.811 6.50146 17.8682 6.51277 17.926 6.51268C17.9838 6.51258 18.041 6.50108 18.0944 6.47883C18.1477 6.45658 18.1961 6.42402 18.2369 6.38301L19.361 5.2587C19.402 5.21797 19.4346 5.16954 19.4569 5.1162C19.4791 5.06286 19.4906 5.00565 19.4907 4.94785C19.4908 4.89005 19.4795 4.83281 19.4574 4.77939C19.4353 4.72597 19.4029 4.67744 19.3621 4.63657C19.3212 4.5957 19.2727 4.5633 19.2192 4.54123C19.1658 4.51915 19.1086 4.50784 19.0508 4.50794C18.993 4.50803 18.9358 4.51953 18.8824 4.54178C18.8291 4.56403 18.7807 4.59659 18.7399 4.6376Z" fill="white"/>
<path d="M5.76315 6.38303C5.84561 6.46494 5.95717 6.51083 6.0734 6.51064C6.18963 6.51045 6.30104 6.46419 6.38323 6.382C6.46541 6.29982 6.51167 6.1884 6.51186 6.07217C6.51206 5.95595 6.46616 5.84438 6.38425 5.76192L5.26006 4.63761C5.21934 4.59655 5.17091 4.56394 5.11755 4.54164C5.06419 4.51935 5.00696 4.50781 4.94913 4.50769C4.89131 4.50757 4.83402 4.51887 4.78057 4.54095C4.72712 4.56302 4.67856 4.59544 4.63767 4.63633C4.59678 4.67722 4.56437 4.72578 4.54229 4.77923C4.52022 4.83268 4.50891 4.88996 4.50903 4.94779C4.50915 5.00562 4.52069 5.06285 4.54299 5.11621C4.56528 5.16957 4.5979 5.218 4.63896 5.25872L5.76315 6.38303Z" fill="white"/>
<path d="M5.76314 17.6144L4.63896 18.7387C4.5979 18.7795 4.56529 18.8279 4.54299 18.8812C4.5207 18.9346 4.50915 18.9918 4.50903 19.0497C4.50891 19.1075 4.52022 19.1648 4.54229 19.2182C4.56437 19.2717 4.59678 19.3202 4.63767 19.3611C4.67856 19.402 4.72713 19.4344 4.78058 19.4565C4.83403 19.4786 4.89131 19.4899 4.94914 19.4898C5.00697 19.4896 5.0642 19.4781 5.11756 19.4558C5.17091 19.4335 5.21935 19.4009 5.26007 19.3598L6.38425 18.2355C6.42531 18.1948 6.45793 18.1464 6.48022 18.093C6.50252 18.0397 6.51406 17.9824 6.51418 17.9246C6.5143 17.8668 6.50299 17.8095 6.48092 17.756C6.45884 17.7026 6.42643 17.654 6.38554 17.6131C6.34465 17.5722 6.29609 17.5398 6.24264 17.5178C6.18919 17.4957 6.13191 17.4844 6.07408 17.4845C6.01625 17.4846 5.95901 17.4962 5.90565 17.5185C5.8523 17.5408 5.80387 17.5734 5.76314 17.6144V17.6144Z" fill="white"/>
<path d="M3.61889 11.5595H0.439231C0.32274 11.5595 0.211021 11.6057 0.128649 11.6881C0.0462766 11.7705 0 11.8822 0 11.9987C0 12.1152 0.0462766 12.2269 0.128649 12.3093C0.211021 12.3916 0.32274 12.4379 0.439231 12.4379H3.61889C3.73516 12.4376 3.84655 12.3911 3.92864 12.3088C4.01073 12.2265 4.05682 12.1149 4.05682 11.9987C4.05682 11.8824 4.01073 11.7709 3.92864 11.6886C3.84655 11.6062 3.73516 11.5598 3.61889 11.5594V11.5595Z" fill="white"/>
<path d="M15.7267 23.2321H8.27322C8.15672 23.2321 8.04501 23.2783 7.96263 23.3607C7.88026 23.4431 7.83398 23.5548 7.83398 23.6713C7.83398 23.7878 7.88026 23.8995 7.96263 23.9819C8.04501 24.0642 8.15672 24.1105 8.27322 24.1105H15.7267C15.8432 24.1105 15.9549 24.0642 16.0373 23.9819C16.1197 23.8995 16.1659 23.7878 16.1659 23.6713C16.1659 23.5548 16.1197 23.4431 16.0373 23.3607C15.9549 23.2783 15.8432 23.2321 15.7267 23.2321Z" fill="white"/>
<path d="M15.7269 24.7279H8.27338C8.15711 24.7283 8.04572 24.7747 7.96363 24.857C7.88154 24.9394 7.83545 25.0509 7.83545 25.1672C7.83545 25.2834 7.88154 25.3949 7.96363 25.4773C8.04572 25.5596 8.15711 25.606 8.27338 25.6064H10.623V26.1331C10.6234 26.4908 10.7656 26.8337 11.0186 27.0866C11.2715 27.3395 11.6144 27.4818 11.9721 27.4822H12.0282C12.3858 27.4818 12.7288 27.3395 12.9817 27.0866C13.2346 26.8337 13.3768 26.4908 13.3772 26.1331V25.6064H15.7268C15.7846 25.6066 15.8419 25.5953 15.8953 25.5733C15.9488 25.5513 15.9974 25.519 16.0383 25.4782C16.0792 25.4374 16.1117 25.3889 16.1338 25.3355C16.156 25.2822 16.1674 25.2249 16.1674 25.1671C16.1674 25.1094 16.156 25.0521 16.1338 24.9988C16.1117 24.9454 16.0792 24.8969 16.0383 24.8561C15.9974 24.8153 15.9488 24.783 15.8953 24.761C15.8419 24.739 15.7846 24.7277 15.7268 24.7279L15.7269 24.7279ZM12.4988 26.1331C12.4987 26.2579 12.449 26.3775 12.3608 26.4657C12.2726 26.554 12.153 26.6036 12.0282 26.6037H11.9721C11.8473 26.6036 11.7277 26.554 11.6395 26.4657C11.5512 26.3775 11.5016 26.2579 11.5015 26.1331V25.6064H12.4988L12.4988 26.1331Z" fill="white"/>
<path d="M12 7.3573C11.779 7.35734 11.5603 7.40237 11.3572 7.48965C11.1542 7.57692 10.971 7.70462 10.8189 7.86495C10.6668 8.02529 10.5489 8.21491 10.4724 8.42227C10.3959 8.62963 10.3625 8.85039 10.3741 9.0711L10.7705 16.5849C10.7871 16.8998 10.9239 17.1963 11.1526 17.4133C11.3814 17.6303 11.6847 17.7513 12 17.7513C12.3153 17.7513 12.6186 17.6303 12.8474 17.4133C13.0761 17.1963 13.2129 16.8998 13.2295 16.5849L13.6259 9.0711C13.6375 8.85039 13.604 8.62963 13.5275 8.42227C13.4511 8.21491 13.3332 8.02529 13.1811 7.86495C13.029 7.70462 12.8458 7.57692 12.6427 7.48965C12.4397 7.40237 12.221 7.35734 12 7.3573V7.3573ZM12.3522 16.5388C12.3475 16.629 12.3083 16.7139 12.2427 16.7761C12.1772 16.8383 12.0903 16.8729 12 16.8729C11.9097 16.8729 11.8228 16.8383 11.7573 16.7761C11.6917 16.7139 11.6525 16.629 11.6478 16.5388L11.2513 9.02503C11.2459 8.92338 11.2613 8.82171 11.2965 8.72621C11.3317 8.63071 11.386 8.54337 11.4561 8.46953C11.5261 8.39569 11.6105 8.33688 11.704 8.29669C11.7975 8.2565 11.8982 8.23578 12 8.23578C12.1018 8.23578 12.2025 8.2565 12.296 8.29669C12.3895 8.33688 12.4739 8.39569 12.5439 8.46953C12.614 8.54337 12.6682 8.63071 12.7034 8.72621C12.7386 8.82171 12.754 8.92338 12.7487 9.02503L12.3522 16.5388Z" fill="white"/>
<path d="M11.9999 18.1394C11.7586 18.1394 11.5226 18.2109 11.3219 18.345C11.1213 18.4791 10.9648 18.6697 10.8725 18.8926C10.7801 19.1156 10.7559 19.361 10.803 19.5977C10.8501 19.8344 10.9663 20.0519 11.137 20.2225C11.3076 20.3932 11.5251 20.5094 11.7618 20.5565C11.9985 20.6036 12.2439 20.5794 12.4668 20.487C12.6898 20.3947 12.8804 20.2382 13.0145 20.0375C13.1486 19.8369 13.2201 19.6009 13.2201 19.3596C13.2197 19.0361 13.0911 18.7259 12.8623 18.4972C12.6336 18.2684 12.3234 18.1398 11.9999 18.1394ZM11.9999 19.7015C11.9323 19.7015 11.8662 19.6815 11.81 19.6439C11.7538 19.6064 11.71 19.553 11.6841 19.4906C11.6582 19.4281 11.6514 19.3594 11.6646 19.2931C11.6777 19.2268 11.7102 19.1659 11.758 19.1181C11.8058 19.0703 11.8667 19.0377 11.933 19.0245C11.9993 19.0112 12.068 19.018 12.1305 19.0438C12.193 19.0697 12.2464 19.1135 12.2839 19.1697C12.3215 19.2259 12.3416 19.2919 12.3416 19.3596C12.3415 19.4502 12.3055 19.537 12.2415 19.6011C12.1774 19.6652 12.0906 19.7013 11.9999 19.7015H11.9999Z" fill="white"/>
</svg>
