<svg width="20" height="27" viewBox="0 0 20 27" fill="none" xmlns="http://www.w3.org/2000/svg">
<path d="M19.8517 24.9481C19.7715 24.7099 19.6741 24.4777 19.5603 24.2536L14.2186 14.0321L14.208 14.0117C13.7877 13.2959 13.6154 11.7412 13.5812 11.1854V2.48437C14.0798 2.26074 14.2708 1.67964 14.2708 1.26014V1.23076C14.2625 1.00506 14.1921 0.786026 14.0674 0.597705C13.9427 0.409385 13.7686 0.25906 13.564 0.163233C13.3308 0.0552343 13.0767 -0.000475946 12.8197 3.06294e-06H7.18091C6.9244 -0.00042232 6.67091 0.055291 6.43821 0.163233C6.23336 0.258609 6.05889 0.408822 5.93415 0.597239C5.8094 0.785656 5.73924 1.00492 5.73142 1.23076V1.26014C5.73142 1.68046 5.9224 2.26238 6.41944 2.48437V11.1845C6.38843 11.7403 6.21459 13.2951 5.79264 14.0109L5.78774 14.0207L0.441131 24.2528C0.325661 24.4764 0.2277 24.7086 0.148132 24.9473C-0.0493772 25.5423 -0.0493772 25.9912 0.148132 26.316C0.248518 26.4792 0.492548 26.7567 1.01815 26.7567H18.9833C19.5097 26.7567 19.7545 26.4809 19.8533 26.316C20.0492 25.9912 20.0492 25.5398 19.8517 24.9481ZM6.58349 14.4614C7.2005 13.4004 7.32292 11.3111 7.32945 11.2221V1.66658H6.87404C6.80385 1.66658 6.75325 1.65761 6.7002 1.536C6.66681 1.45154 6.64724 1.36225 6.64225 1.27157C6.64195 1.20992 6.65994 1.14958 6.69393 1.09815C6.72793 1.04673 6.7764 1.00653 6.83323 0.98265C6.9427 0.934165 7.06119 0.90941 7.18091 0.910012H7.19479H7.20131H12.7911H12.8066H12.8189C12.9391 0.909401 13.0582 0.934152 13.1682 0.98265C13.2248 1.0068 13.2731 1.04706 13.3071 1.09842C13.341 1.14979 13.3592 1.21 13.3592 1.27157C13.3542 1.36225 13.3346 1.45154 13.3012 1.536C13.2482 1.65761 13.1959 1.66658 13.1258 1.66658H12.6695V11.2229C12.6761 11.3119 12.7977 13.3988 13.4171 14.4622L14.9213 17.344H5.07769L6.58349 14.4614Z" fill="white"/>
<path d="M11.633 3.49963H11.0576V19.8708H11.633V3.49963Z" fill="white"/>
<path d="M11.3539 16.7605H9.72729V17.1098H11.3539V16.7605Z" fill="white"/>
<path d="M11.3458 15.3527H9.73633V15.6963H11.3458V15.3527Z" fill="white"/>
<path d="M11.3458 13.7922H9.73633V14.135H11.3458V13.7922Z" fill="white"/>
<path d="M11.3458 12.3622H9.73633V12.7058H11.3458V12.3622Z" fill="white"/>
<path d="M11.3458 10.801H9.73633V11.1454H11.3458V10.801Z" fill="white"/>
<path d="M11.3458 9.42328H9.73633V9.7677H11.3458V9.42328Z" fill="white"/>
<path d="M11.3458 7.86365H9.73633V8.20725H11.3458V7.86365Z" fill="white"/>
<path d="M11.3458 6.38068H9.73633V6.72509H11.3458V6.38068Z" fill="white"/>
<path d="M11.3458 4.82184H9.73633V5.16625H11.3458V4.82184Z" fill="white"/>
</svg>
