<svg width="19" height="25" viewBox="0 0 19 25" fill="none" xmlns="http://www.w3.org/2000/svg">
<path d="M13.9546 0.989757C15.037 1.78442 15.9358 2.80274 16.5899 3.97555C17.2439 5.14836 17.6379 6.44819 17.745 7.78676C17.8522 9.12533 17.67 10.4713 17.2109 11.7332C16.7518 12.9951 16.0264 14.1435 15.0842 15.1002C14.1419 16.057 13.0048 16.7997 11.75 17.2781C10.4952 17.7564 9.15221 17.9591 7.81216 17.8723C6.47211 17.7856 5.16642 17.4115 3.98377 16.7754C2.80112 16.1394 1.76921 15.2562 0.958127 14.186L0 14.9528C0.920432 16.1591 2.08946 17.1534 3.42784 17.8684C4.76623 18.5833 6.24267 19.0021 7.7571 19.0964C9.27152 19.1908 10.7885 18.9584 12.2053 18.4151C13.622 17.8717 14.9054 17.0301 15.9684 15.9474C17.0314 14.8646 17.8492 13.5659 18.3663 12.1394C18.8834 10.7129 19.0878 9.19184 18.9656 7.67941C18.8434 6.16698 18.3974 4.69851 17.658 3.37353C16.9185 2.04855 15.9028 0.898044 14.6797 0L13.9546 0.989757Z" fill="white"/>
<path d="M8.54521 0.337097C6.88579 0.337097 5.26363 0.829172 3.88388 1.7511C2.50412 2.67302 1.42873 3.98339 0.793697 5.51649C0.158665 7.04959 -0.00748885 8.73658 0.316248 10.3641C0.639985 11.9916 1.43907 13.4866 2.61246 14.66C3.78585 15.8334 5.28083 16.6325 6.90837 16.9562C8.5359 17.28 10.2229 17.1138 11.756 16.4788C13.2891 15.8437 14.5995 14.7684 15.5214 13.3886C16.4433 12.0088 16.9354 10.3867 16.9354 8.72727C16.9352 6.50212 16.0511 4.36817 14.4777 2.79475C12.9043 1.22133 10.7704 0.337302 8.54521 0.337097ZM8.54521 16.731C6.96245 16.7308 5.41527 16.2613 4.09932 15.3819C2.78336 14.5025 1.75773 13.2526 1.15211 11.7903C0.546479 10.328 0.38806 8.7189 0.696879 7.16656C1.0057 5.61422 1.76788 4.18831 2.88707 3.06913C4.00625 1.94995 5.43216 1.18776 6.9845 0.878942C8.53684 0.570123 10.1459 0.728543 11.6082 1.33417C13.0705 1.93979 14.3204 2.96543 15.1998 4.28138C16.0793 5.59734 16.5487 7.14451 16.5489 8.72727C16.5481 10.8494 15.7044 12.8843 14.2035 14.3845C12.7026 15.8847 10.6673 16.7273 8.54521 16.7271V16.731Z" fill="white"/>
<path d="M7.3527 0.710497C7.3527 0.710497 4.52538 1.07616 2.60295 3.2871C2.60295 3.2871 4.08334 1.74885 4.98747 1.74885L5.18881 1.83834C5.17533 1.87629 5.15607 1.91194 5.13173 1.94403C5.07181 2.00941 5.02307 2.08421 4.98747 2.16543C4.98747 2.20323 4.9975 2.32898 4.9975 2.32898L4.93038 2.42464C4.8978 2.438 4.86818 2.45766 4.84321 2.48249C4.82392 2.51104 4.78612 2.52107 4.78612 2.58818C4.78793 2.64008 4.79439 2.69172 4.80541 2.74247L4.81467 2.90601L4.76607 3.00244L4.64109 3.07264C4.57483 3.08778 4.50601 3.08778 4.43975 3.07264C4.38189 3.04333 4.3626 2.92839 4.3626 2.92839L4.52615 2.8227C4.52615 2.8227 4.54543 2.79338 4.4976 2.76484C4.44978 2.7363 4.4598 2.63987 4.37263 2.65915C4.29179 2.69061 4.21711 2.73605 4.152 2.79338L4.00774 2.88981C4.00774 2.88981 3.94063 3.06262 3.9684 3.06262C4.00598 3.07311 4.04165 3.08951 4.07408 3.11122C4.08581 3.14207 4.09233 3.17466 4.09337 3.20765C4.08507 3.25794 4.06893 3.30661 4.04554 3.3519C4.04554 3.3519 4.017 3.39973 3.9198 3.38122C3.82259 3.36271 3.73696 3.34188 3.67988 3.32336C3.6268 3.29481 3.56581 3.28451 3.5063 3.29405C3.44922 3.31256 3.42916 3.33262 3.41913 3.36116C3.35447 3.41687 3.28384 3.46525 3.20853 3.50542C3.20853 3.50542 3.14064 3.53397 3.14064 3.57331C3.12696 3.63589 3.10759 3.69708 3.08279 3.75614C3.02802 3.80412 2.96189 3.83731 2.8907 3.85257C2.76572 3.88111 2.73641 3.91968 2.73641 3.91968L2.66929 4.06394C2.6081 4.10807 2.55287 4.15993 2.50498 4.21823C2.41739 4.31192 2.31717 4.39292 2.2072 4.45892C2.14621 4.50202 2.09926 4.56212 2.0722 4.63172C2.04366 4.70887 2.05291 4.82458 2.02514 4.86316C1.98525 4.93123 1.95904 5.00644 1.948 5.08456C1.93846 5.16056 1.90464 5.23144 1.85157 5.28667C1.81299 5.3224 1.77115 5.35442 1.72659 5.38233C1.63717 5.41033 1.55021 5.44567 1.46662 5.48802C1.41786 5.52972 1.38693 5.58853 1.38022 5.65234C1.38022 5.68088 1.46662 5.748 1.49516 5.748C1.5345 5.75407 1.57323 5.76362 1.61088 5.77654C1.61088 5.77654 1.62014 5.93083 1.62014 5.95937C1.62014 5.98791 1.56305 6.13217 1.62014 6.13217C1.6692 6.13437 1.71799 6.14082 1.76594 6.15146L1.92023 6.1908L2.05446 6.27643L2.1316 6.33429C2.12388 6.37429 2.11118 6.41316 2.0938 6.45001C2.07374 6.47932 2.03594 6.54566 2.0074 6.53641C1.97886 6.52715 1.98811 6.52638 1.95957 6.45926C1.93103 6.39215 1.94028 6.36283 1.8724 6.34355C1.80451 6.32426 1.7374 6.39215 1.70885 6.37209C1.68031 6.35203 1.63171 6.3528 1.58388 6.30497C1.53605 6.25715 1.52602 6.34355 1.53605 6.25715C1.54608 6.17074 1.58388 6.13217 1.56459 6.0936C1.54531 6.05503 1.48745 5.96786 1.44888 5.96786C1.4103 5.96786 1.46816 6.045 1.4103 5.96786C1.35245 5.89071 1.31465 5.86217 1.28533 5.8722C1.25602 5.88223 1.21822 5.89148 1.21822 5.84288C1.21822 5.79428 1.24676 5.69785 1.24676 5.65079C1.24676 5.60374 1.27453 5.52582 1.27453 5.48648C1.27453 5.44713 1.31387 5.21802 1.31387 5.21802C1.17022 5.50185 1.05447 5.79896 0.96827 6.10517C0.96827 6.10517 1.0701 6.09283 1.0701 6.15686C1.08099 6.22027 1.08513 6.28466 1.08244 6.34895C1.06656 6.43361 1.06241 6.52005 1.0701 6.60584C1.0701 6.81104 1.12256 6.86273 1.09633 6.92676C1.06248 7.00095 1.03662 7.07853 1.01919 7.15819C1.0213 7.26555 1.04768 7.37104 1.09633 7.46676C1.11345 7.49963 1.13499 7.53 1.16036 7.55702C1.19816 7.59559 1.09633 7.74988 1.19816 7.59559C1.29999 7.44131 1.33856 7.37728 1.33856 7.37728L1.40336 7.30013C1.40336 7.30013 1.40336 7.19753 1.53065 7.22299C1.65794 7.24845 1.67259 7.22299 1.70962 7.27467C1.74665 7.32636 1.65871 7.45442 1.72274 7.46676C1.78677 7.47911 1.97963 7.38962 2.03131 7.4035C2.06386 7.40538 2.09497 7.41751 2.1202 7.43816C2.14542 7.45881 2.16346 7.48691 2.17172 7.51845C2.19794 7.60794 2.23652 7.73599 2.28743 7.76222C2.33835 7.78845 2.326 7.90263 2.35069 7.98054C2.37538 8.05846 2.55589 8.10783 2.59524 8.10783C2.68681 8.11355 2.77728 8.13092 2.86447 8.15952C2.91615 8.18497 2.86447 8.27523 2.96707 8.30069C3.06967 8.32615 3.09513 8.53212 3.09513 8.53212C3.09513 8.53212 3.13293 8.71187 3.10824 8.76355C3.08356 8.81524 3.09513 8.90473 3.15916 8.91784C3.22319 8.93095 3.39059 8.95641 3.39059 8.95641C3.39059 8.95641 3.30033 9.0837 3.44228 9.13539C3.55199 9.17086 3.6592 9.21364 3.76319 9.26344C3.80099 9.2889 3.67371 9.40462 3.84034 9.3915C4.00697 9.37839 4.16126 9.35293 4.2384 9.41696C4.31554 9.48099 4.25074 9.57125 4.45595 9.68697C4.66115 9.80268 4.72518 9.84125 4.77687 9.86594C4.82855 9.89062 4.93115 9.87905 4.90415 10.0326C4.87715 10.1861 4.85401 10.2887 4.77687 10.3527C4.69972 10.4167 4.59712 10.6219 4.54543 10.686C4.51174 10.7238 4.48916 10.7701 4.48018 10.82C4.47119 10.8698 4.47615 10.9211 4.49452 10.9683C4.54543 11.0709 4.60946 11.1859 4.60946 11.2499C4.60946 11.3139 4.63569 11.506 4.59712 11.5832C4.55855 11.6603 4.4814 11.8007 4.4814 11.8007C4.4814 11.8007 4.62181 11.9164 4.5192 12.0183C4.42341 12.1182 4.31089 12.2007 4.18671 12.262C4.10238 12.3068 4.02452 12.3629 3.95528 12.4287C3.95528 12.4287 3.96763 12.7496 3.95528 12.8144C3.94294 12.8792 3.64671 13.3914 3.75008 13.5087C3.79164 13.5499 3.82169 13.6013 3.83726 13.6577C3.85282 13.7141 3.85335 13.7737 3.8388 13.8304C3.81334 13.9075 3.77554 13.8936 3.75008 13.9577C3.72462 14.0217 3.53176 13.9708 3.64671 14.1505C3.76165 14.3303 3.82645 14.3681 3.87814 14.4707C3.92983 14.5733 3.91671 14.6118 3.99308 14.7144C4.06946 14.817 4.10803 14.9189 4.19829 14.996C4.28854 15.0732 4.39115 15.1233 4.39115 15.2128C4.39115 15.3023 4.58323 15.5082 4.35257 15.354C4.12191 15.1997 4.32712 15.3424 4.03243 15.0986C3.73774 14.8548 3.66136 14.9528 3.53176 14.7985C3.40216 14.6442 3.59579 15.1842 3.35279 14.5424C3.10979 13.9006 3.04421 13.9777 2.98095 13.8365C2.9177 13.6954 2.96784 13.8497 2.78809 13.528C2.60835 13.2063 2.76264 13.4122 2.60835 13.2063C2.45406 13.0003 2.44095 13.2834 2.36535 12.9116C2.28975 12.5397 2.27586 12.7835 2.17172 12.3608C2.06757 11.938 2.24886 11.9249 2.01743 11.7197C1.786 11.5145 1.79988 11.6171 1.72274 11.4759C1.64559 11.3348 1.74897 11.4636 1.54376 11.1041C1.33856 10.7446 1.05699 10.6042 1.06933 9.9886C1.08167 9.37299 1.08167 9.27039 1.08167 9.27039C1.08167 9.27039 0.773096 9.02738 0.877241 8.66866C0.981385 8.30995 1.01764 8.42489 0.97907 8.30918C0.940498 8.19346 0.901927 8.21969 0.800097 8.07774C0.698267 7.9358 0.68438 7.95046 0.659694 7.8602C0.635008 7.76994 0.594894 7.57862 0.594894 7.57862L0.51775 7.64265C0.51775 7.64265 -0.302291 15.7428 7.77391 16.937C7.77391 16.937 5.90857 16.5335 5.75505 16.1655C5.75505 16.1655 5.71648 15.8199 5.79362 15.8199C5.87077 15.8199 5.98648 15.8785 6.1022 15.7813C6.21791 15.6841 6.35292 15.57 6.35292 15.57L6.37143 15.7242C6.37143 15.7242 6.25649 15.7435 6.6206 15.6865C6.98472 15.6294 6.98704 15.6672 7.12127 15.6093C7.2555 15.5514 7.41056 15.2629 7.48616 15.4357C7.56176 15.6085 7.38973 15.5314 7.5633 15.6093C7.73688 15.6872 8.06474 15.57 8.06474 15.57C8.06474 15.57 8.62172 15.6093 8.68189 15.5499C8.74206 15.4905 8.73898 15.3956 8.83618 15.4157C8.93338 15.4357 8.99047 15.5885 8.99047 15.5885L8.68189 15.762L8.39337 15.9742C8.39337 15.9742 8.25837 16.012 8.37409 16.0699C8.4898 16.1277 8.54689 16.1084 8.68266 16.1277C8.81844 16.147 9.14553 16.3969 9.22267 16.2434C9.2679 16.1503 9.31945 16.0603 9.37696 15.9742C9.43327 15.8785 9.41399 15.762 9.55053 15.762C9.64124 15.7641 9.73138 15.777 9.81899 15.8006L9.70328 16.0506C9.70328 16.0506 9.93471 16.0313 10.0311 16.0313C10.1276 16.0313 10.1461 16.1856 10.2811 16.0506C10.4161 15.9156 10.4354 15.9163 10.5696 15.8963C10.7038 15.8762 10.8967 15.8191 10.9553 15.8384C11.0305 15.8612 11.1083 15.8744 11.1868 15.8778C11.2438 15.8778 11.5324 16.0884 11.5902 16.0506C11.6481 16.0128 11.9937 16.0313 11.9937 16.0313C11.9937 16.0313 11.044 16.9022 9.04524 16.94C9.04524 16.94 13.5196 17.1452 16.0322 12.7866C18.5447 8.42798 16.8036 2.83504 11.0579 0.889471C11.0579 0.889471 15.3533 2.47941 16.4865 6.59812L16.4487 6.67527C16.333 6.55955 16.333 6.61741 16.2374 6.42532C16.1417 6.23323 16.2173 6.27103 16.1409 6.1368C16.0646 6.00257 16.0839 6.099 15.9866 5.964C15.8894 5.829 15.8709 5.84905 15.7938 5.77114C15.7166 5.69322 15.6395 5.44482 15.5816 5.36691C15.5238 5.28899 15.3502 5.27125 15.2731 5.25196C15.1959 5.23267 15.2353 5.13624 15.1959 5.2319C15.1566 5.32756 15.3124 5.48185 15.3124 5.48185V5.79042C15.3621 5.90825 15.4008 6.03039 15.4281 6.15532C15.4082 6.2548 15.3761 6.35144 15.3325 6.44306C15.3325 6.44306 15.2939 6.67449 15.216 6.71307C15.0456 6.76174 14.8725 6.80013 14.6976 6.82801C14.6187 6.73838 14.5477 6.6421 14.4854 6.54026C14.4083 6.40603 14.1583 6.36669 14.1205 6.30883C14.0827 6.25097 14.1776 6.13526 14.0619 5.98251C13.9462 5.82977 14.0619 5.8668 13.9076 5.7318L13.7533 5.59757C13.7533 5.59757 13.4077 5.48185 13.5219 5.67471C13.6361 5.86757 13.5034 6.07894 13.599 6.09823C13.6947 6.11752 13.7533 6.0396 13.8305 6.21395C13.9076 6.38829 13.9261 6.46389 13.9848 6.52252C14.0434 6.58115 14.0619 6.8311 14.1391 6.84961C14.2162 6.86813 14.4276 6.84961 14.4091 6.94604C14.3905 7.04247 14.2741 7.17747 14.4091 7.21527C14.5441 7.25307 14.5633 7.31093 14.6405 7.29242C14.7176 7.2739 14.6791 7.31093 14.8133 7.25385C14.9058 7.21764 15.004 7.19805 15.1034 7.19599C15.1034 7.19599 15.2746 7.33022 15.2746 7.38808C15.2746 7.44593 15.2175 7.7738 15.2175 7.7738L15.0447 8.10089C15.0447 8.10089 15.064 8.67715 14.9676 8.67715C14.8711 8.67715 14.757 8.9271 14.6999 8.96567C14.6428 9.00424 14.6227 9.38919 14.6227 9.38919L14.4499 9.60056C14.4402 9.722 14.4402 9.84402 14.4499 9.96546C14.4876 10.143 14.4943 10.3256 14.47 10.5055C14.4314 10.6598 14.2208 10.814 14.2208 10.814C14.2208 10.814 14.5086 11.0833 14.3543 11.1226C14.2 11.162 14.0457 11.3918 14.0079 11.4497C13.9701 11.5076 13.9886 11.6233 13.893 11.6418C13.7973 11.6603 13.6245 11.6804 13.6245 11.7382V12.026L13.3159 12.4688L12.9495 12.7774C12.9495 12.7774 12.9888 12.9887 12.8723 13.0088C12.7559 13.0288 12.3732 13.1824 12.3146 13.2402C12.1823 13.3349 12.0314 13.4001 11.8718 13.4315C11.7761 13.4315 11.9296 13.7015 11.7761 13.4315C11.6226 13.1615 11.7383 13.3359 11.6026 13.0288C11.4668 12.7218 11.4676 12.9517 11.4676 12.7203C11.4676 12.4888 11.4876 12.7017 11.4676 12.4888C11.4475 12.2759 11.5254 12.431 11.4105 12.1803C11.2955 11.9295 11.3148 12.0067 11.1613 11.8524C11.0078 11.6981 10.8921 11.8524 10.9885 11.6024C11.0849 11.3525 11.0263 11.6025 11.0849 11.3525C11.1436 11.1026 11.0649 11.0632 11.2184 10.9483C11.3719 10.8333 11.5069 10.814 11.4876 10.6597C11.4828 10.5548 11.4635 10.4509 11.4305 10.3512C11.3912 10.2547 11.2377 10.1012 11.2184 10.0426C11.1991 9.98397 11.1991 10.0241 11.0849 9.85051C10.9708 9.67694 10.8921 9.58128 10.8921 9.58128C10.8921 9.58128 10.8535 9.17782 10.8535 9.02353C10.8535 8.86924 10.7949 9.11919 10.8535 8.86924C10.9121 8.61929 10.9306 8.465 10.9306 8.465C10.9306 8.465 10.6429 8.27292 10.5264 8.29143C10.4099 8.30995 10.4315 8.48429 10.2579 8.34929C10.0844 8.21429 10.1237 8.11786 10.0666 8.08006C10.0253 8.05481 9.97708 8.04316 9.92878 8.04676C9.88048 8.05036 9.83453 8.06902 9.79739 8.10011C9.70019 8.17726 9.48882 8.17726 9.31524 8.2544C9.14167 8.33155 9.08381 8.31226 8.85238 8.31226C8.62095 8.31226 8.35326 8.3894 8.17968 8.29297C8.00611 8.19654 7.9876 8.33232 7.91045 8.13869C7.83331 7.94506 7.91045 7.96588 7.73688 7.86945C7.5633 7.77302 7.52628 7.85017 7.50545 7.67737C7.48462 7.50456 7.58259 7.54236 7.44836 7.38885C7.40649 7.33476 7.36141 7.28324 7.31336 7.23456C7.10198 7.00313 7.02484 7.19676 7.10198 7.00313C7.17913 6.8095 7.23621 6.92598 7.23621 6.69455C7.23621 6.46312 7.58182 6.79021 7.37044 6.32966C7.15907 5.86911 7.1205 5.964 7.31336 5.61762C7.50622 5.27125 7.75539 5.15476 7.79396 5.07762C7.83254 5.00047 7.90968 4.80838 7.98605 4.7513C8.06243 4.69421 8.00611 4.63558 8.17814 4.65487C8.26604 4.66184 8.35443 4.65005 8.43742 4.62025C8.52041 4.59046 8.59612 4.54335 8.65952 4.48206C8.77446 4.36712 8.92875 4.19355 9.0059 4.17349C9.08304 4.15343 9.04447 4.19277 9.21804 4.15497C9.32411 4.12174 9.43408 4.10254 9.54513 4.09789C9.6593 4.09789 9.42787 4.13646 9.75573 4.0786C10.0836 4.02074 10.0057 4.02074 10.0828 4.02074C10.16 4.02074 10.1206 4.04003 10.2549 4.05931C10.3891 4.0786 10.3698 3.79008 10.3891 4.0786C10.4084 4.36712 10.2741 4.50212 10.5048 4.52141C10.7355 4.54069 10.5048 4.54069 10.7362 4.54069C10.9677 4.54069 10.909 4.57927 11.0248 4.63712C11.1405 4.69498 11.1983 4.76981 11.3727 4.76981C11.547 4.76981 11.2955 5.01976 11.5455 4.76981C11.7954 4.51986 11.3518 4.48129 11.7946 4.51986C12.2375 4.55844 12.2953 4.6541 12.3717 4.61552C12.4481 4.57695 12.4666 4.65409 12.6602 4.55844C12.8538 4.46278 12.8708 4.46201 12.9479 4.50058C13.0251 4.53915 13.0251 4.71195 13.1022 4.53915C13.1794 4.36635 13.3337 4.42343 13.1022 4.30772C12.8708 4.192 12.7937 4.327 12.7566 4.17272C12.7196 4.01843 12.9479 4.05777 12.7173 4.01843C12.5928 4.00271 12.4711 3.97 12.3555 3.92123C12.1819 3.86337 12.0091 4.0948 11.9513 3.92123C11.8934 3.74765 11.5655 4.03617 11.8942 3.74842C12.2228 3.46068 12.0855 3.34419 12.2976 3.40205C12.5098 3.45991 12.4519 3.65199 12.5854 3.53628C12.7188 3.42056 12.9711 3.34342 12.7204 3.17139C12.4697 2.99936 12.6432 3.07496 12.3933 2.96001C12.1433 2.84507 11.9134 3.40205 11.7977 3.32568C11.682 3.2493 11.6249 3.19067 11.5486 3.22925C11.4722 3.26782 11.4714 3.47919 11.4521 3.63271C11.4328 3.78623 11.5864 3.8248 11.3372 3.70985C11.088 3.59491 11.6056 3.652 11.0487 3.44062C10.4917 3.22925 10.2988 3.28633 10.2217 3.36348C10.1445 3.44062 10.0296 3.42133 9.97097 3.47842C9.91234 3.53551 10.1445 3.67128 9.91388 3.53628C9.68322 3.40128 9.45102 3.61342 9.45102 3.61342C9.42131 3.603 9.38927 3.60116 9.35857 3.60812C9.32786 3.61508 9.29975 3.63055 9.27744 3.65277C9.18101 3.72991 8.98815 3.787 8.87321 3.74842C8.75826 3.70985 8.50755 3.787 8.71892 3.51699C8.93029 3.24699 8.77601 3.40205 9.10464 3.26705C9.43327 3.13205 9.91234 3.11276 9.49036 3.0171C9.06838 2.92144 9.72179 2.92067 9.16327 2.65144C8.60475 2.38221 8.587 2.74787 8.60629 2.38221C8.62558 2.01654 8.56695 1.99649 8.452 2.01654C8.33706 2.0366 7.98914 2.11297 7.85722 2.13226C7.72531 2.15155 7.87574 2.26649 7.62579 2.1122C7.37584 1.95791 7.27941 2.18935 7.37507 1.95791C7.47073 1.72648 7.49079 1.68868 7.64508 1.55368C7.79936 1.41868 7.76002 0.918785 8.1442 1.11087C8.52837 1.30296 8.37563 1.24588 8.68421 1.26516C8.99278 1.28445 9.12624 1.22582 9.12624 1.16873C9.12624 1.11165 8.77909 0.9373 8.77909 0.9373C8.77909 0.9373 8.66415 0.975872 8.70195 0.917242L8.81843 0.74444L8.70195 0.64801C8.70195 0.64801 7.6227 0.651867 7.3527 0.710497Z" fill="white"/>
<path d="M7.89797 18.8602V20.7965C7.53615 21.4234 6.96544 21.9032 6.28567 22.1519C5.17248 22.5376 4.15264 23.1363 4.24984 23.7171C4.34704 24.298 5.66697 24.8141 9.57277 24.8141V18.4729L7.89797 18.8602Z" fill="white"/>
<path d="M10.1282 18.8602V20.7965C10.4332 21.4307 10.9772 21.9181 11.641 22.1519C12.7542 22.5376 14.1027 23.1363 14.0055 23.7171C13.9082 24.298 11.8014 24.8141 9.0127 24.8141V18.4729L10.1282 18.8602Z" fill="white"/>
<path d="M13.9546 0.989757C15.037 1.78442 15.9358 2.80274 16.5899 3.97555C17.2439 5.14836 17.6379 6.44819 17.745 7.78676C17.8522 9.12533 17.67 10.4713 17.2109 11.7332C16.7518 12.9951 16.0264 14.1435 15.0842 15.1002C14.1419 16.057 13.0048 16.7997 11.75 17.2781C10.4952 17.7564 9.15221 17.9591 7.81216 17.8723C6.47211 17.7856 5.16642 17.4115 3.98377 16.7754C2.80112 16.1394 1.76921 15.2562 0.958127 14.186L0 14.9528C0.920432 16.1591 2.08946 17.1534 3.42784 17.8684C4.76623 18.5833 6.24267 19.0021 7.7571 19.0964C9.27152 19.1908 10.7885 18.9584 12.2053 18.4151C13.622 17.8717 14.9054 17.0301 15.9684 15.9474C17.0314 14.8646 17.8492 13.5659 18.3663 12.1394C18.8834 10.7129 19.0878 9.19184 18.9656 7.67941C18.8434 6.16698 18.3974 4.69851 17.658 3.37353C16.9185 2.04855 15.9028 0.898044 14.6797 0L13.9546 0.989757Z" fill="white"/>
<path d="M8.54521 0.337097C6.88579 0.337097 5.26363 0.829172 3.88388 1.7511C2.50412 2.67302 1.42873 3.98339 0.793697 5.51649C0.158665 7.04959 -0.00748885 8.73658 0.316248 10.3641C0.639985 11.9916 1.43907 13.4866 2.61246 14.66C3.78585 15.8334 5.28083 16.6325 6.90837 16.9562C8.5359 17.28 10.2229 17.1138 11.756 16.4788C13.2891 15.8437 14.5995 14.7684 15.5214 13.3886C16.4433 12.0088 16.9354 10.3867 16.9354 8.72727C16.9352 6.50212 16.0511 4.36817 14.4777 2.79475C12.9043 1.22133 10.7704 0.337302 8.54521 0.337097ZM8.54521 16.731C6.96245 16.7308 5.41527 16.2613 4.09932 15.3819C2.78336 14.5025 1.75773 13.2526 1.15211 11.7903C0.546479 10.328 0.38806 8.7189 0.696879 7.16656C1.0057 5.61422 1.76788 4.18831 2.88707 3.06913C4.00625 1.94995 5.43216 1.18776 6.9845 0.878942C8.53684 0.570123 10.1459 0.728543 11.6082 1.33417C13.0705 1.93979 14.3204 2.96543 15.1998 4.28138C16.0793 5.59734 16.5487 7.14451 16.5489 8.72727C16.5481 10.8494 15.7044 12.8843 14.2035 14.3845C12.7026 15.8847 10.6673 16.7273 8.54521 16.7271V16.731Z" fill="white"/>
<path d="M7.3527 0.710497C7.3527 0.710497 4.52538 1.07616 2.60295 3.2871C2.60295 3.2871 4.08334 1.74885 4.98747 1.74885L5.18881 1.83834C5.17533 1.87629 5.15607 1.91194 5.13173 1.94403C5.07181 2.00941 5.02307 2.08421 4.98747 2.16543C4.98747 2.20323 4.9975 2.32898 4.9975 2.32898L4.93038 2.42464C4.8978 2.438 4.86818 2.45766 4.84321 2.48249C4.82392 2.51104 4.78612 2.52107 4.78612 2.58818C4.78793 2.64008 4.79439 2.69172 4.80541 2.74247L4.81467 2.90601L4.76607 3.00244L4.64109 3.07264C4.57483 3.08778 4.50601 3.08778 4.43975 3.07264C4.38189 3.04333 4.3626 2.92839 4.3626 2.92839L4.52615 2.8227C4.52615 2.8227 4.54543 2.79338 4.4976 2.76484C4.44978 2.7363 4.4598 2.63987 4.37263 2.65915C4.29179 2.69061 4.21711 2.73605 4.152 2.79338L4.00774 2.88981C4.00774 2.88981 3.94063 3.06262 3.9684 3.06262C4.00598 3.07311 4.04165 3.08951 4.07408 3.11122C4.08581 3.14207 4.09233 3.17466 4.09337 3.20765C4.08507 3.25794 4.06893 3.30661 4.04554 3.3519C4.04554 3.3519 4.017 3.39973 3.9198 3.38122C3.82259 3.36271 3.73696 3.34188 3.67988 3.32336C3.6268 3.29481 3.56581 3.28451 3.5063 3.29405C3.44922 3.31256 3.42916 3.33262 3.41913 3.36116C3.35447 3.41687 3.28384 3.46525 3.20853 3.50542C3.20853 3.50542 3.14064 3.53397 3.14064 3.57331C3.12696 3.63589 3.10759 3.69708 3.08279 3.75614C3.02802 3.80412 2.96189 3.83731 2.8907 3.85257C2.76572 3.88111 2.73641 3.91968 2.73641 3.91968L2.66929 4.06394C2.6081 4.10807 2.55287 4.15993 2.50498 4.21823C2.41739 4.31192 2.31717 4.39292 2.2072 4.45892C2.14621 4.50202 2.09926 4.56212 2.0722 4.63172C2.04366 4.70887 2.05291 4.82458 2.02514 4.86316C1.98525 4.93123 1.95904 5.00644 1.948 5.08456C1.93846 5.16056 1.90464 5.23144 1.85157 5.28667C1.81299 5.3224 1.77115 5.35442 1.72659 5.38233C1.63717 5.41033 1.55021 5.44567 1.46662 5.48802C1.41786 5.52972 1.38693 5.58853 1.38022 5.65234C1.38022 5.68088 1.46662 5.748 1.49516 5.748C1.5345 5.75407 1.57323 5.76362 1.61088 5.77654C1.61088 5.77654 1.62014 5.93083 1.62014 5.95937C1.62014 5.98791 1.56305 6.13217 1.62014 6.13217C1.6692 6.13437 1.71799 6.14082 1.76594 6.15146L1.92023 6.1908L2.05446 6.27643L2.1316 6.33429C2.12388 6.37429 2.11118 6.41316 2.0938 6.45001C2.07374 6.47932 2.03594 6.54566 2.0074 6.53641C1.97886 6.52715 1.98811 6.52638 1.95957 6.45926C1.93103 6.39215 1.94028 6.36283 1.8724 6.34355C1.80451 6.32426 1.7374 6.39215 1.70885 6.37209C1.68031 6.35203 1.63171 6.3528 1.58388 6.30497C1.53605 6.25715 1.52602 6.34355 1.53605 6.25715C1.54608 6.17074 1.58388 6.13217 1.56459 6.0936C1.54531 6.05503 1.48745 5.96786 1.44888 5.96786C1.4103 5.96786 1.46816 6.045 1.4103 5.96786C1.35245 5.89071 1.31465 5.86217 1.28533 5.8722C1.25602 5.88223 1.21822 5.89148 1.21822 5.84288C1.21822 5.79428 1.24676 5.69785 1.24676 5.65079C1.24676 5.60374 1.27453 5.52582 1.27453 5.48648C1.27453 5.44713 1.31387 5.21802 1.31387 5.21802C1.17022 5.50185 1.05447 5.79896 0.96827 6.10517C0.96827 6.10517 1.0701 6.09283 1.0701 6.15686C1.08099 6.22027 1.08513 6.28466 1.08244 6.34895C1.06656 6.43361 1.06241 6.52005 1.0701 6.60584C1.0701 6.81104 1.12256 6.86273 1.09633 6.92676C1.06248 7.00095 1.03662 7.07853 1.01919 7.15819C1.0213 7.26555 1.04768 7.37104 1.09633 7.46676C1.11345 7.49963 1.13499 7.53 1.16036 7.55702C1.19816 7.59559 1.09633 7.74988 1.19816 7.59559C1.29999 7.44131 1.33856 7.37728 1.33856 7.37728L1.40336 7.30013C1.40336 7.30013 1.40336 7.19753 1.53065 7.22299C1.65794 7.24845 1.67259 7.22299 1.70962 7.27467C1.74665 7.32636 1.65871 7.45442 1.72274 7.46676C1.78677 7.47911 1.97963 7.38962 2.03131 7.4035C2.06386 7.40538 2.09497 7.41751 2.1202 7.43816C2.14542 7.45881 2.16346 7.48691 2.17172 7.51845C2.19794 7.60794 2.23652 7.73599 2.28743 7.76222C2.33835 7.78845 2.326 7.90263 2.35069 7.98054C2.37538 8.05846 2.55589 8.10783 2.59524 8.10783C2.68681 8.11355 2.77728 8.13092 2.86447 8.15952C2.91615 8.18497 2.86447 8.27523 2.96707 8.30069C3.06967 8.32615 3.09513 8.53212 3.09513 8.53212C3.09513 8.53212 3.13293 8.71187 3.10824 8.76355C3.08356 8.81524 3.09513 8.90473 3.15916 8.91784C3.22319 8.93095 3.39059 8.95641 3.39059 8.95641C3.39059 8.95641 3.30033 9.0837 3.44228 9.13539C3.55199 9.17086 3.6592 9.21364 3.76319 9.26344C3.80099 9.2889 3.67371 9.40462 3.84034 9.3915C4.00697 9.37839 4.16126 9.35293 4.2384 9.41696C4.31554 9.48099 4.25074 9.57125 4.45595 9.68697C4.66115 9.80268 4.72518 9.84125 4.77687 9.86594C4.82855 9.89062 4.93115 9.87905 4.90415 10.0326C4.87715 10.1861 4.85401 10.2887 4.77687 10.3527C4.69972 10.4167 4.59712 10.6219 4.54543 10.686C4.51174 10.7238 4.48916 10.7701 4.48018 10.82C4.47119 10.8698 4.47615 10.9211 4.49452 10.9683C4.54543 11.0709 4.60946 11.1859 4.60946 11.2499C4.60946 11.3139 4.63569 11.506 4.59712 11.5832C4.55855 11.6603 4.4814 11.8007 4.4814 11.8007C4.4814 11.8007 4.62181 11.9164 4.5192 12.0183C4.42341 12.1182 4.31089 12.2007 4.18671 12.262C4.10238 12.3068 4.02452 12.3629 3.95528 12.4287C3.95528 12.4287 3.96763 12.7496 3.95528 12.8144C3.94294 12.8792 3.64671 13.3914 3.75008 13.5087C3.79164 13.5499 3.82169 13.6013 3.83726 13.6577C3.85282 13.7141 3.85335 13.7737 3.8388 13.8304C3.81334 13.9075 3.77554 13.8936 3.75008 13.9577C3.72462 14.0217 3.53176 13.9708 3.64671 14.1505C3.76165 14.3303 3.82645 14.3681 3.87814 14.4707C3.92983 14.5733 3.91671 14.6118 3.99308 14.7144C4.06946 14.817 4.10803 14.9189 4.19829 14.996C4.28854 15.0732 4.39115 15.1233 4.39115 15.2128C4.39115 15.3023 4.58323 15.5082 4.35257 15.354C4.12191 15.1997 4.32712 15.3424 4.03243 15.0986C3.73774 14.8548 3.66136 14.9528 3.53176 14.7985C3.40216 14.6442 3.59579 15.1842 3.35279 14.5424C3.10979 13.9006 3.04421 13.9777 2.98095 13.8365C2.9177 13.6954 2.96784 13.8497 2.78809 13.528C2.60835 13.2063 2.76264 13.4122 2.60835 13.2063C2.45406 13.0003 2.44095 13.2834 2.36535 12.9116C2.28975 12.5397 2.27586 12.7835 2.17172 12.3608C2.06757 11.938 2.24886 11.9249 2.01743 11.7197C1.786 11.5145 1.79988 11.6171 1.72274 11.4759C1.64559 11.3348 1.74897 11.4636 1.54376 11.1041C1.33856 10.7446 1.05699 10.6042 1.06933 9.9886C1.08167 9.37299 1.08167 9.27039 1.08167 9.27039C1.08167 9.27039 0.773096 9.02738 0.877241 8.66866C0.981385 8.30995 1.01764 8.42489 0.97907 8.30918C0.940498 8.19346 0.901927 8.21969 0.800097 8.07774C0.698267 7.9358 0.68438 7.95046 0.659694 7.8602C0.635008 7.76994 0.594894 7.57862 0.594894 7.57862L0.51775 7.64265C0.51775 7.64265 -0.302291 15.7428 7.77391 16.937C7.77391 16.937 5.90857 16.5335 5.75505 16.1655C5.75505 16.1655 5.71648 15.8199 5.79362 15.8199C5.87077 15.8199 5.98648 15.8785 6.1022 15.7813C6.21791 15.6841 6.35292 15.57 6.35292 15.57L6.37143 15.7242C6.37143 15.7242 6.25649 15.7435 6.6206 15.6865C6.98472 15.6294 6.98704 15.6672 7.12127 15.6093C7.2555 15.5514 7.41056 15.2629 7.48616 15.4357C7.56176 15.6085 7.38973 15.5314 7.5633 15.6093C7.73688 15.6872 8.06474 15.57 8.06474 15.57C8.06474 15.57 8.62172 15.6093 8.68189 15.5499C8.74206 15.4905 8.73898 15.3956 8.83618 15.4157C8.93338 15.4357 8.99047 15.5885 8.99047 15.5885L8.68189 15.762L8.39337 15.9742C8.39337 15.9742 8.25837 16.012 8.37409 16.0699C8.4898 16.1277 8.54689 16.1084 8.68266 16.1277C8.81844 16.147 9.14553 16.3969 9.22267 16.2434C9.2679 16.1503 9.31945 16.0603 9.37696 15.9742C9.43327 15.8785 9.41399 15.762 9.55053 15.762C9.64124 15.7641 9.73138 15.777 9.81899 15.8006L9.70328 16.0506C9.70328 16.0506 9.93471 16.0313 10.0311 16.0313C10.1276 16.0313 10.1461 16.1856 10.2811 16.0506C10.4161 15.9156 10.4354 15.9163 10.5696 15.8963C10.7038 15.8762 10.8967 15.8191 10.9553 15.8384C11.0305 15.8612 11.1083 15.8744 11.1868 15.8778C11.2438 15.8778 11.5324 16.0884 11.5902 16.0506C11.6481 16.0128 11.9937 16.0313 11.9937 16.0313C11.9937 16.0313 11.044 16.9022 9.04524 16.94C9.04524 16.94 13.5196 17.1452 16.0322 12.7866C18.5447 8.42798 16.8036 2.83504 11.0579 0.889471C11.0579 0.889471 15.3533 2.47941 16.4865 6.59812L16.4487 6.67527C16.333 6.55955 16.333 6.61741 16.2374 6.42532C16.1417 6.23323 16.2173 6.27103 16.1409 6.1368C16.0646 6.00257 16.0839 6.099 15.9866 5.964C15.8894 5.829 15.8709 5.84905 15.7938 5.77114C15.7166 5.69322 15.6395 5.44482 15.5816 5.36691C15.5238 5.28899 15.3502 5.27125 15.2731 5.25196C15.1959 5.23267 15.2353 5.13624 15.1959 5.2319C15.1566 5.32756 15.3124 5.48185 15.3124 5.48185V5.79042C15.3621 5.90825 15.4008 6.03039 15.4281 6.15532C15.4082 6.2548 15.3761 6.35144 15.3325 6.44306C15.3325 6.44306 15.2939 6.67449 15.216 6.71307C15.0456 6.76174 14.8725 6.80013 14.6976 6.82801C14.6187 6.73838 14.5477 6.6421 14.4854 6.54026C14.4083 6.40603 14.1583 6.36669 14.1205 6.30883C14.0827 6.25097 14.1776 6.13526 14.0619 5.98251C13.9462 5.82977 14.0619 5.8668 13.9076 5.7318L13.7533 5.59757C13.7533 5.59757 13.4077 5.48185 13.5219 5.67471C13.6361 5.86757 13.5034 6.07894 13.599 6.09823C13.6947 6.11752 13.7533 6.0396 13.8305 6.21395C13.9076 6.38829 13.9261 6.46389 13.9848 6.52252C14.0434 6.58115 14.0619 6.8311 14.1391 6.84961C14.2162 6.86813 14.4276 6.84961 14.4091 6.94604C14.3905 7.04247 14.2741 7.17747 14.4091 7.21527C14.5441 7.25307 14.5633 7.31093 14.6405 7.29242C14.7176 7.2739 14.6791 7.31093 14.8133 7.25385C14.9058 7.21764 15.004 7.19805 15.1034 7.19599C15.1034 7.19599 15.2746 7.33022 15.2746 7.38808C15.2746 7.44593 15.2175 7.7738 15.2175 7.7738L15.0447 8.10089C15.0447 8.10089 15.064 8.67715 14.9676 8.67715C14.8711 8.67715 14.757 8.9271 14.6999 8.96567C14.6428 9.00424 14.6227 9.38919 14.6227 9.38919L14.4499 9.60056C14.4402 9.722 14.4402 9.84402 14.4499 9.96546C14.4876 10.143 14.4943 10.3256 14.47 10.5055C14.4314 10.6598 14.2208 10.814 14.2208 10.814C14.2208 10.814 14.5086 11.0833 14.3543 11.1226C14.2 11.162 14.0457 11.3918 14.0079 11.4497C13.9701 11.5076 13.9886 11.6233 13.893 11.6418C13.7973 11.6603 13.6245 11.6804 13.6245 11.7382V12.026L13.3159 12.4688L12.9495 12.7774C12.9495 12.7774 12.9888 12.9887 12.8723 13.0088C12.7559 13.0288 12.3732 13.1824 12.3146 13.2402C12.1823 13.3349 12.0314 13.4001 11.8718 13.4315C11.7761 13.4315 11.9296 13.7015 11.7761 13.4315C11.6226 13.1615 11.7383 13.3359 11.6026 13.0288C11.4668 12.7218 11.4676 12.9517 11.4676 12.7203C11.4676 12.4888 11.4876 12.7017 11.4676 12.4888C11.4475 12.2759 11.5254 12.431 11.4105 12.1803C11.2955 11.9295 11.3148 12.0067 11.1613 11.8524C11.0078 11.6981 10.8921 11.8524 10.9885 11.6024C11.0849 11.3525 11.0263 11.6025 11.0849 11.3525C11.1436 11.1026 11.0649 11.0632 11.2184 10.9483C11.3719 10.8333 11.5069 10.814 11.4876 10.6597C11.4828 10.5548 11.4635 10.4509 11.4305 10.3512C11.3912 10.2547 11.2377 10.1012 11.2184 10.0426C11.1991 9.98397 11.1991 10.0241 11.0849 9.85051C10.9708 9.67694 10.8921 9.58128 10.8921 9.58128C10.8921 9.58128 10.8535 9.17782 10.8535 9.02353C10.8535 8.86924 10.7949 9.11919 10.8535 8.86924C10.9121 8.61929 10.9306 8.465 10.9306 8.465C10.9306 8.465 10.6429 8.27292 10.5264 8.29143C10.4099 8.30995 10.4315 8.48429 10.2579 8.34929C10.0844 8.21429 10.1237 8.11786 10.0666 8.08006C10.0253 8.05481 9.97708 8.04316 9.92878 8.04676C9.88048 8.05036 9.83453 8.06902 9.79739 8.10011C9.70019 8.17726 9.48882 8.17726 9.31524 8.2544C9.14167 8.33155 9.08381 8.31226 8.85238 8.31226C8.62095 8.31226 8.35326 8.3894 8.17968 8.29297C8.00611 8.19654 7.9876 8.33232 7.91045 8.13869C7.83331 7.94506 7.91045 7.96588 7.73688 7.86945C7.5633 7.77302 7.52628 7.85017 7.50545 7.67737C7.48462 7.50456 7.58259 7.54236 7.44836 7.38885C7.40649 7.33476 7.36141 7.28324 7.31336 7.23456C7.10198 7.00313 7.02484 7.19676 7.10198 7.00313C7.17913 6.8095 7.23621 6.92598 7.23621 6.69455C7.23621 6.46312 7.58182 6.79021 7.37044 6.32966C7.15907 5.86911 7.1205 5.964 7.31336 5.61762C7.50622 5.27125 7.75539 5.15476 7.79396 5.07762C7.83254 5.00047 7.90968 4.80838 7.98605 4.7513C8.06243 4.69421 8.00611 4.63558 8.17814 4.65487C8.26604 4.66184 8.35443 4.65005 8.43742 4.62025C8.52041 4.59046 8.59612 4.54335 8.65952 4.48206C8.77446 4.36712 8.92875 4.19355 9.0059 4.17349C9.08304 4.15343 9.04447 4.19277 9.21804 4.15497C9.32411 4.12174 9.43408 4.10254 9.54513 4.09789C9.6593 4.09789 9.42787 4.13646 9.75573 4.0786C10.0836 4.02074 10.0057 4.02074 10.0828 4.02074C10.16 4.02074 10.1206 4.04003 10.2549 4.05931C10.3891 4.0786 10.3698 3.79008 10.3891 4.0786C10.4084 4.36712 10.2741 4.50212 10.5048 4.52141C10.7355 4.54069 10.5048 4.54069 10.7362 4.54069C10.9677 4.54069 10.909 4.57927 11.0248 4.63712C11.1405 4.69498 11.1983 4.76981 11.3727 4.76981C11.547 4.76981 11.2955 5.01976 11.5455 4.76981C11.7954 4.51986 11.3518 4.48129 11.7946 4.51986C12.2375 4.55844 12.2953 4.6541 12.3717 4.61552C12.4481 4.57695 12.4666 4.65409 12.6602 4.55844C12.8538 4.46278 12.8708 4.46201 12.9479 4.50058C13.0251 4.53915 13.0251 4.71195 13.1022 4.53915C13.1794 4.36635 13.3337 4.42343 13.1022 4.30772C12.8708 4.192 12.7937 4.327 12.7566 4.17272C12.7196 4.01843 12.9479 4.05777 12.7173 4.01843C12.5928 4.00271 12.4711 3.97 12.3555 3.92123C12.1819 3.86337 12.0091 4.0948 11.9513 3.92123C11.8934 3.74765 11.5655 4.03617 11.8942 3.74842C12.2228 3.46068 12.0855 3.34419 12.2976 3.40205C12.5098 3.45991 12.4519 3.65199 12.5854 3.53628C12.7188 3.42056 12.9711 3.34342 12.7204 3.17139C12.4697 2.99936 12.6432 3.07496 12.3933 2.96001C12.1433 2.84507 11.9134 3.40205 11.7977 3.32568C11.682 3.2493 11.6249 3.19067 11.5486 3.22925C11.4722 3.26782 11.4714 3.47919 11.4521 3.63271C11.4328 3.78623 11.5864 3.8248 11.3372 3.70985C11.088 3.59491 11.6056 3.652 11.0487 3.44062C10.4917 3.22925 10.2988 3.28633 10.2217 3.36348C10.1445 3.44062 10.0296 3.42133 9.97097 3.47842C9.91234 3.53551 10.1445 3.67128 9.91388 3.53628C9.68322 3.40128 9.45102 3.61342 9.45102 3.61342C9.42131 3.603 9.38927 3.60116 9.35857 3.60812C9.32786 3.61508 9.29975 3.63055 9.27744 3.65277C9.18101 3.72991 8.98815 3.787 8.87321 3.74842C8.75826 3.70985 8.50755 3.787 8.71892 3.51699C8.93029 3.24699 8.77601 3.40205 9.10464 3.26705C9.43327 3.13205 9.91234 3.11276 9.49036 3.0171C9.06838 2.92144 9.72179 2.92067 9.16327 2.65144C8.60475 2.38221 8.587 2.74787 8.60629 2.38221C8.62558 2.01654 8.56695 1.99649 8.452 2.01654C8.33706 2.0366 7.98914 2.11297 7.85722 2.13226C7.72531 2.15155 7.87574 2.26649 7.62579 2.1122C7.37584 1.95791 7.27941 2.18935 7.37507 1.95791C7.47073 1.72648 7.49079 1.68868 7.64508 1.55368C7.79936 1.41868 7.76002 0.918785 8.1442 1.11087C8.52837 1.30296 8.37563 1.24588 8.68421 1.26516C8.99278 1.28445 9.12624 1.22582 9.12624 1.16873C9.12624 1.11165 8.77909 0.9373 8.77909 0.9373C8.77909 0.9373 8.66415 0.975872 8.70195 0.917242L8.81843 0.74444L8.70195 0.64801C8.70195 0.64801 7.6227 0.651867 7.3527 0.710497Z" fill="white"/>
</svg>
