<svg width="26" height="20" viewBox="0 0 26 20" fill="none" xmlns="http://www.w3.org/2000/svg">
<path d="M21.6019 12.707C21.4619 12.4644 21.1516 12.3813 20.909 12.5213L20.3619 12.8373L19.4796 11.3091L20.0267 10.9933C20.2695 10.8533 20.3526 10.5429 20.2124 10.3003C20.0723 10.0577 19.7621 9.97454 19.5195 10.1146L18.9724 10.4306L18.0901 8.90238L18.6371 8.58658C18.8799 8.44654 18.9631 8.1361 18.823 7.8935C18.6828 7.6509 18.3725 7.56778 18.1299 7.70783L17.5828 8.02382L16.7005 6.49563L17.2476 6.17983C17.4904 6.03978 17.5735 5.72934 17.4335 5.48674C17.2932 5.24414 16.983 5.16103 16.7404 5.30107L16.1933 5.61707L15.5036 4.42252C15.3635 4.17992 15.0533 4.09681 14.8107 4.23685C14.5681 4.3769 14.4848 4.68734 14.625 4.92994L15.3145 6.12429L14.7675 6.44028C14.5249 6.58033 14.4415 6.89057 14.5818 7.13317C14.6758 7.29603 14.8462 7.38688 15.0216 7.38688C15.1077 7.38688 15.1949 7.36506 15.2747 7.31884L15.822 7.00304L16.7041 8.53104L16.157 8.84704C15.9144 8.98708 15.8311 9.29732 15.9713 9.53992C16.0652 9.70278 16.2357 9.79363 16.4111 9.79363C16.4972 9.79363 16.5845 9.77181 16.6642 9.72559L17.2115 9.4098L18.0936 10.9378L17.5465 11.2538C17.3039 11.3938 17.2206 11.7041 17.3609 11.9467C17.4547 12.1095 17.6253 12.2004 17.8006 12.2004C17.8867 12.2004 17.974 12.1786 18.0538 12.1323L18.601 11.8166L19.4832 13.3446L18.9361 13.6605C18.6935 13.8006 18.6102 14.1108 18.7504 14.3534C18.8442 14.5163 19.0148 14.6071 19.1902 14.6071C19.2763 14.6071 19.3636 14.5853 19.4433 14.5391L19.9906 14.2233L20.6801 15.4177C20.7741 15.5805 20.9445 15.6714 21.1199 15.6714C21.206 15.6714 21.2932 15.6495 21.3732 15.6033C21.6158 15.4633 21.6989 15.153 21.5589 14.9104L20.8691 13.7159L21.4162 13.4001C21.6588 13.26 21.7421 12.9496 21.6019 12.707Z" fill="white"/>
<path d="M25.2459 8.52018C25.1515 8.25636 24.8613 8.11909 24.5973 8.21331C24.3337 8.30773 24.1962 8.59814 24.2906 8.86196C25.4229 12.0277 25.162 15.4439 23.5747 18.2345C23.367 18.5996 22.9781 18.8258 22.5581 18.8258C22.5555 18.8258 22.553 18.8258 22.5504 18.8258C18.617 18.8004 14.8864 16.5553 12.8147 12.9669C11.0847 9.97062 10.7446 6.44113 11.8116 3.36748C11.8131 3.36292 11.8151 3.35875 11.8167 3.35419C11.8173 3.35221 11.8177 3.35042 11.8181 3.34844C12.028 2.74779 12.2912 2.1644 12.6088 1.60601C12.8165 1.24082 13.2055 1.01469 13.6254 1.01469H13.6329C16.8438 1.03532 19.9332 2.51789 22.1086 5.08214C22.2899 5.29578 22.6099 5.32216 22.8237 5.14085C23.0374 4.95955 23.0635 4.63939 22.8822 4.42575C20.5152 1.63576 17.1464 0.0226674 13.6395 5.39445e-05C12.85 -0.00550025 12.1172 0.418205 11.7268 1.10454C11.4561 1.58022 11.2216 2.07256 11.0225 2.5774C10.2931 2.38498 9.54008 2.28739 8.77757 2.28739C7.89109 2.28739 7.03534 2.4199 6.228 2.66547C6.20202 2.67122 6.17643 2.67876 6.15183 2.68868C4.31934 3.26433 2.74414 4.42635 1.64639 5.95355C1.61227 5.98965 1.58331 6.03052 1.5607 6.07535C0.610335 7.44604 0.0400382 9.09881 0.00334089 10.8807C-0.00062639 10.915 -0.00102311 10.9495 0.00195234 10.9837C0.00175398 11.0104 0.000960521 11.037 0.000960521 11.0638C0.000960521 13.0092 0.63751 14.8083 1.71264 16.2649C1.73704 16.3103 1.76838 16.352 1.80548 16.3883C2.84153 17.7413 4.26142 18.7855 5.90149 19.3558C5.92649 19.3667 5.95228 19.376 5.97866 19.3828C6.85801 19.6793 7.79924 19.8404 8.77757 19.8404C9.74083 19.8404 10.6852 19.6825 11.5775 19.3822C11.6043 19.3753 11.6302 19.3659 11.6556 19.3548C12.9492 18.9057 14.1308 18.1565 15.0978 17.153C17.2249 18.8476 19.8391 19.823 22.5438 19.8404H22.5579C23.3421 19.8404 24.0687 19.4181 24.4567 18.7359C26.1902 15.6881 26.478 11.9646 25.2459 8.52018ZM8.77757 13.6411L6.33353 11.8654L7.26703 8.99229H10.3456C10.5018 9.98054 10.7751 10.9597 11.1651 11.9065L8.77757 13.6411ZM5.33417 11.6573L3.2825 12.3292L1.02492 10.6889C1.09315 9.26186 1.54879 7.93461 2.2883 6.81009H5.05031L6.33591 8.57434L5.33417 11.6573ZM1.06955 11.9755L2.58425 13.076L2.00642 14.8545C1.51725 13.9843 1.19114 13.0107 1.06955 11.9755ZM10.6906 3.53966C10.2659 4.96848 10.1118 6.47445 10.227 7.97766H7.15654L5.87789 6.22293L6.73859 3.57418C7.38863 3.39704 8.07219 3.30182 8.77757 3.30182C9.42702 3.30182 10.0683 3.38196 10.6906 3.53966ZM5.52817 4.01573L4.94994 5.79545H3.08294C3.76988 5.05338 4.59963 4.44539 5.52817 4.01573ZM2.72727 15.92L3.57845 13.2998L5.64858 12.6222L8.27016 14.5268V16.6902L6.02527 18.3211C4.72242 17.8252 3.58659 16.9885 2.72727 15.92ZM7.26207 18.6766L8.77757 17.5757L10.2923 18.6762C9.79756 18.7746 9.29074 18.8256 8.77757 18.8256C8.25905 18.8258 7.75243 18.7742 7.26207 18.6766ZM11.5297 18.3211L9.28479 16.6902V14.5268L11.5967 12.8471C11.7038 13.0584 11.8167 13.2674 11.9359 13.4741C12.5923 14.6109 13.403 15.6234 14.3284 16.4883C13.5324 17.3025 12.5758 17.9242 11.5297 18.3211Z" fill="white"/>
<path d="M23.8081 7.12753C23.942 7.12753 24.0723 7.07318 24.1671 6.97836C24.2616 6.88454 24.3153 6.75362 24.3153 6.61972C24.3153 6.48622 24.2616 6.3553 24.1671 6.26088C24.0723 6.16666 23.942 6.1123 23.8081 6.1123C23.6746 6.1123 23.5443 6.16666 23.4494 6.26088C23.355 6.3553 23.3013 6.48622 23.3013 6.61972C23.3013 6.75362 23.355 6.88454 23.4494 6.97836C23.5443 7.07318 23.6746 7.12753 23.8081 7.12753Z" fill="white"/>
</svg>
