<svg width="29" height="25" viewBox="0 0 29 25" fill="none" xmlns="http://www.w3.org/2000/svg">
<path d="M11.1649 21.5922C10.686 21.3171 10.0747 21.4822 9.7996 21.9611C9.52446 22.44 9.68961 23.0512 10.1685 23.3264L11.1649 21.5922ZM22.2222 22.4593L22.7204 23.3264L22.2222 22.4593ZM26.4518 6.75L27.3168 6.24819L26.4518 6.75ZM10.1685 1.67364C9.68961 1.94879 9.52446 2.56003 9.7996 3.0389C10.0747 3.51777 10.686 3.68292 11.1649 3.40777L10.1685 1.67364ZM2 12.5L1.2206 11.8735L0.716957 12.5L1.2206 13.1265L2 12.5ZM15 13.5C15.5523 13.5 16 13.0523 16 12.5C16 11.9477 15.5523 11.5 15 11.5V13.5ZM10.1685 23.3264C12.0769 24.4229 14.2414 25 16.4444 25V23C14.5906 23 12.7697 22.5144 11.1649 21.5922L10.1685 23.3264ZM16.4444 25C18.6475 25 20.812 24.4229 22.7204 23.3264L21.724 21.5922C20.1191 22.5144 18.2983 23 16.4444 23V25ZM22.7204 23.3264C24.6289 22.2298 26.2143 20.6522 27.3168 18.7518L25.5869 17.7482C24.661 19.3442 23.3289 20.6701 21.724 21.5922L22.7204 23.3264ZM27.3168 18.7518C28.4194 16.8513 29 14.6951 29 12.5H27C27 14.3422 26.5128 16.1522 25.5869 17.7482L27.3168 18.7518ZM29 12.5C29 10.3049 28.4194 8.14867 27.3168 6.24819L25.5869 7.25181C26.5128 8.84778 27 10.6578 27 12.5H29ZM27.3168 6.24819C26.2143 4.34775 24.6289 2.77021 22.7204 1.67364L21.724 3.40777C23.3289 4.32988 24.661 5.65581 25.5869 7.25181L27.3168 6.24819ZM22.7204 1.67364C20.812 0.577098 18.6475 0 16.4444 0V2C18.2983 2 20.1191 2.48565 21.724 3.40777L22.7204 1.67364ZM16.4444 0C14.2414 0 12.0769 0.577097 10.1685 1.67364L11.1649 3.40777C12.7697 2.48565 14.5906 2 16.4444 2V0ZM6.99838 4.68597L1.2206 11.8735L2.7794 13.1265L8.55718 5.93903L6.99838 4.68597ZM1.2206 13.1265L6.99838 20.314L8.55718 19.061L2.7794 11.8735L1.2206 13.1265ZM2 13.5H15V11.5H2V13.5Z" fill="white"/>
</svg>
