<svg width="23" height="25" viewBox="0 0 23 25" fill="none" xmlns="http://www.w3.org/2000/svg">
<path fill-rule="evenodd" clip-rule="evenodd" d="M11.5 0C15.7316 0 19.2649 3.08782 19.648 7.12062L20.2348 13.2972C20.2863 13.8395 20.6273 14.3176 21.1362 14.5611L21.1408 14.5633C22.2803 15.1085 23 16.2229 23 17.442V17.9224C23 19.4853 21.676 20.7523 20.0429 20.7523H15.1142V21.3813C15.1142 23.2915 13.496 24.84 11.4999 24.84C9.50375 24.84 7.88558 23.2915 7.88558 21.3813V20.7523H2.95714C1.32396 20.7523 0 19.4853 0 17.9224V17.442C0 16.2229 0.71975 15.1085 1.85918 14.5633L1.86379 14.5611C2.37267 14.3176 2.71368 13.8395 2.76519 13.2972L3.35196 7.12062C3.73506 3.08782 7.26843 0 11.5 0ZM9.85701 20.7523V21.3813C9.85701 22.2496 10.5925 22.9534 11.4999 22.9534C12.4072 22.9534 13.1427 22.2496 13.1427 21.3813V20.7523H9.85701ZM11.5002 1.88658C8.28828 1.88658 5.60631 4.23037 5.31551 7.29143L4.72874 13.468C4.61542 14.6609 3.8652 15.7128 2.74566 16.2485C2.26951 16.4763 1.97165 16.9375 1.97165 17.442V17.9224C1.97165 18.4434 2.41297 18.8657 2.95736 18.8657H20.0431C20.5875 18.8657 21.0288 18.4434 21.0288 17.9224V17.442C21.0288 16.9375 20.7309 16.4763 20.2594 16.2507C19.1352 15.7128 18.385 14.6609 18.2717 13.468L17.6849 7.29143C17.3941 4.23037 14.7122 1.88658 11.5002 1.88658Z" fill="white"/>
</svg>
