<svg width="27" height="27" viewBox="0 0 27 27" fill="none" xmlns="http://www.w3.org/2000/svg">
<path fill-rule="evenodd" clip-rule="evenodd" d="M15.9797 1.67701C16.0889 1.88866 16.116 2.15971 16.1702 2.7018C16.2728 3.72788 16.3241 4.24092 16.5388 4.52241C16.8112 4.87948 17.2542 5.06297 17.6993 5.0031C18.0502 4.9559 18.4492 4.6294 19.2473 3.97641C19.669 3.63144 19.8798 3.45895 20.1066 3.38648C20.3948 3.29443 20.7065 3.30998 20.984 3.43024C21.2025 3.52492 21.3951 3.71753 21.7804 4.10275L22.8972 5.21958C23.2824 5.60481 23.475 5.79743 23.5697 6.01594C23.69 6.29347 23.7055 6.60519 23.6135 6.8933C23.541 7.12015 23.3685 7.33098 23.0235 7.75263C22.3705 8.55075 22.044 8.94981 21.9968 9.3007C21.937 9.74578 22.1205 10.1888 22.4775 10.4612C22.759 10.6759 23.2721 10.7272 24.2982 10.8298C24.8403 10.884 25.1113 10.9111 25.323 11.0203C25.5918 11.1589 25.8012 11.3904 25.9124 11.6716C26 11.8931 26 12.1655 26 12.7103V14.2898C26 14.8345 26 15.1069 25.9125 15.3283C25.8013 15.6096 25.5918 15.8411 25.3229 15.9798C25.1113 16.0889 24.8403 16.116 24.2983 16.1702C23.2725 16.2727 22.7596 16.324 22.4782 16.5386C22.1209 16.8111 21.9373 17.2543 21.9973 17.6995C22.0446 18.0503 22.371 18.4492 23.0237 19.247C23.3686 19.6685 23.541 19.8792 23.6135 20.106C23.7056 20.3942 23.6901 20.706 23.5697 20.9837C23.475 21.2021 23.2825 21.3946 22.8974 21.7797L21.7804 22.8967C21.3952 23.2819 21.2026 23.4745 20.9841 23.5692C20.7065 23.6895 20.3948 23.705 20.1067 23.613C19.8799 23.5405 19.669 23.368 19.2474 23.023C18.4493 22.3701 18.0502 22.0435 17.6994 21.9963C17.2543 21.9365 16.8113 22.12 16.5389 22.477C16.3241 22.7585 16.2728 23.2716 16.1702 24.2979C16.116 24.8402 16.0889 25.1114 15.9796 25.3231C15.841 25.5918 15.6097 25.8012 15.3285 25.9124C15.107 26 14.8345 26 14.2895 26H12.7103C12.1655 26 11.8931 26 11.6716 25.9124C11.3904 25.8012 11.1589 25.5918 11.0203 25.323C10.9111 25.1113 10.884 24.8403 10.8298 24.2982C10.7272 23.2721 10.6759 22.759 10.4611 22.4775C10.1888 22.1205 9.74578 21.937 9.30071 21.9968C8.94981 22.044 8.55074 22.3705 7.75259 23.0236C7.33093 23.3686 7.12009 23.5411 6.89323 23.6135C6.60512 23.7056 6.29342 23.69 6.0159 23.5698C5.79738 23.4751 5.60476 23.2825 5.21951 22.8972L4.10271 21.7804C3.71747 21.3952 3.52486 21.2026 3.43017 20.9841C3.30992 20.7065 3.29438 20.3948 3.38642 20.1067C3.45888 19.8799 3.63138 19.669 3.97638 19.2474C4.62939 18.4493 4.95589 18.0502 5.00309 17.6993C5.06296 17.2542 4.87947 16.8112 4.5224 16.5388C4.24092 16.3241 3.72787 16.2728 2.70179 16.1702C2.1597 16.116 1.88866 16.0889 1.67702 15.9797C1.4082 15.8411 1.19877 15.6096 1.08756 15.3284C1 15.1069 1 14.8345 1 14.2897V12.7104C1 12.1655 1 11.893 1.08761 11.6715C1.19881 11.3903 1.40818 11.159 1.6769 11.0204C1.8886 10.9111 2.15971 10.884 2.70194 10.8298C3.7283 10.7272 4.24148 10.6759 4.52302 10.461C4.87994 10.1887 5.06337 9.7458 5.00358 9.30083C4.95642 8.94984 4.62981 8.55065 3.9766 7.75227C3.63146 7.33043 3.45888 7.11951 3.38642 6.89257C3.29446 6.60455 3.31 6.29297 3.43016 6.01554C3.52485 5.79693 3.71754 5.60424 4.10292 5.21886L5.21957 4.10221C5.60481 3.71697 5.79744 3.52434 6.01596 3.42966C6.29348 3.30942 6.60518 3.29387 6.89329 3.3859C7.12015 3.45837 7.33101 3.6309 7.75275 3.97595C8.55077 4.62888 8.94978 4.95534 9.30055 5.00258C9.74577 5.06254 10.1889 4.87898 10.4613 4.52177C10.676 4.24033 10.7273 3.72743 10.8298 2.70163C10.884 2.1597 10.9111 1.88873 11.0202 1.67713C11.1589 1.40822 11.3904 1.19873 11.6718 1.08751C11.8932 1 12.1655 1 12.7101 1H14.2897C14.8345 1 15.1069 1 15.3284 1.08756C15.6096 1.19877 15.8411 1.4082 15.9797 1.67701ZM13.5 18.5C16.2614 18.5 18.5 16.2614 18.5 13.5C18.5 10.7386 16.2614 8.5 13.5 8.5C10.7386 8.5 8.5 10.7386 8.5 13.5C8.5 16.2614 10.7386 18.5 13.5 18.5Z" stroke="white" stroke-width="2"/>
</svg>
