<svg width="21" height="24" viewBox="0 0 21 24" fill="none" xmlns="http://www.w3.org/2000/svg">
<path fill-rule="evenodd" clip-rule="evenodd" d="M4.84615 0H16.1538V1.59091H21V21.4773C21 22.7952 19.9152 23.8636 18.5769 23.8636H2.42308C1.08485 23.8636 0 22.7952 0 21.4773V1.59091H4.84615V0ZM6.46154 1.59091V3.97727C6.46154 4.41659 6.82315 4.77273 7.26923 4.77273H13.7308C14.1768 4.77273 14.5385 4.41659 14.5385 3.97727V1.59091H6.46154ZM4.84615 3.97727V3.18182H1.61538V21.4773C1.61538 21.9166 1.977 22.2727 2.42308 22.2727H18.5769C19.023 22.2727 19.3846 21.9166 19.3846 21.4773V3.18182H16.1538V3.97727C16.1538 5.29523 15.069 6.36364 13.7308 6.36364H7.26923C5.931 6.36364 4.84615 5.29523 4.84615 3.97727ZM15.954 10.8647L9.73165 17.8682L5.89041 14.0852L7.03266 12.9603L9.65296 15.5409L14.7383 9.8171L15.954 10.8647Z" fill="white"/>
</svg>
