<svg id="Layer_1" data-name="Layer 1" xmlns="http://www.w3.org/2000/svg" viewBox="0 0 343 165.88277">
  <rect y="44.88277" width="343" height="121" fill="#f15a29"/>
  <g>
    <path d="M114.15617,54.72078a17.17929,17.17929,0,0,0-7.69-11.20388A17.11172,17.11172,0,1,0,90.7756,73.79845l3.03133,6.16406a3.2308,3.2308,0,0,0,1.38685,5.85071l.36087,1.84447A3.22976,3.22976,0,0,0,96.726,93.64434l.019.09684a4.79735,4.79735,0,0,0,5.623,3.783l5.24989-1.02716a4.79735,4.79735,0,0,0,3.78267-5.62327l-.019-.09684a3.22976,3.22976,0,0,0-1.17131-5.98665l-.36088-1.84447a3.2308,3.2308,0,0,0-.92043-5.942l.48469-6.852A17.03752,17.03752,0,0,0,114.15617,54.72078Zm-6.27679,28.79876.2899,1.4817L97.52464,87.0839l-.2899-1.4817Zm-.65392,10.972-5.24989,1.02716a2.74737,2.74737,0,0,1-3.20011-2.08706L109.403,91.35233A2.74736,2.74736,0,0,1,107.22546,94.49155ZM110.003,89.15l-.01823.00226-.04949.01373L97.45552,91.60765c-.01677.00185-.035.00334-.04809.00536l-.01769.00477a1.18823,1.18823,0,0,1-.47366-2.32786l.03536-.00751.04948-.01379,12.47976-2.44171c.01678-.00179.035-.00334.04811-.0053l.03558-.00637A1.18823,1.18823,0,0,1,110.003,89.15Zm-1.51619-7.836c-.02009.004-.04532.0116-.06951.01812L95.91319,83.77851c-.0252.00315-.05168.00559-.07242.00965a1.18981,1.18981,0,0,1-.41374-2.343l12.56-2.45742a1.18981,1.18981,0,0,1,.49975,2.32621Zm-1.084-11.69535-.5308,7.50506-1.81491.3551-1.76418-9.01688a1.02175,1.02175,0,1,0-2.00548.39238l1.76418,9.01688-3.47378.67965-1.76418-9.01687a1.02175,1.02175,0,1,0-2.00548.39238l1.76418,9.01687-1.815.35511-3.32018-6.75161a1.02171,1.02171,0,0,0-.54505-.501,15.06717,15.06717,0,0,1,1.6353-28.61282,15.0677,15.0677,0,0,1,14.19138,25.51627A1.02179,1.02179,0,0,0,107.40278,69.61857Z" transform="translate(-0.55791 44.88277)" fill="#fff"/>
    <path d="M94.30877,37.082l-.61943-3.166a1.02176,1.02176,0,0,0-2.00549.39238l.61944,3.166a1.02175,1.02175,0,0,0,2.00548-.39238Z" transform="translate(-0.55791 44.88277)" fill="#fff"/>
    <path d="M78.9505,45.94905a1.02146,1.02146,0,0,0-.27742-1.41793l-2.67662-1.80088A1.02164,1.02164,0,0,0,74.856,44.4256l2.67656,1.80089a1.02144,1.02144,0,0,0,1.418-.27744Z" transform="translate(-0.55791 44.88277)" fill="#fff"/>
    <path d="M72.78461,62.806a1.02175,1.02175,0,1,0,.39238,2.00548l3.16574-.61938a1.02176,1.02176,0,0,0-.39238-2.00549Z" transform="translate(-0.55791 44.88277)" fill="#fff"/>
    <path d="M113.08936,36.9451a1.02164,1.02164,0,1,0-1.69535-1.14051l-1.80054,2.67685a1.02166,1.02166,0,1,0,1.69542,1.14049Z" transform="translate(-0.55791 44.88277)" fill="#fff"/>
    <path d="M118.76943,53.8089a1.02175,1.02175,0,1,0,.39238,2.00548l3.16574-.61939a1.02175,1.02175,0,0,0-.39238-2.00548Z" transform="translate(-0.55791 44.88277)" fill="#fff"/>
    <path d="M110.321,58.53467a3.91182,3.91182,0,0,0-2.51248-2.99316,5.39311,5.39311,0,0,0-.0854-.63688,5.57584,5.57584,0,0,0-4.79918-4.47172,4.6161,4.6161,0,0,0-8.28945-.62947,5.41837,5.41837,0,0,0-6.37827,5.41535,4.24763,4.24763,0,0,0-1.68728.91862,4.61121,4.61121,0,0,0-1.57751,4.354,4.52958,4.52958,0,0,0,5.28946,3.52119c.12732-.02491,11.34571-2.18146,11.34909-2.18212a.31979.31979,0,0,1,.36967.39886l-.20041.73349a2.27742,2.27742,0,0,0,4.2319,1.62432l.43164-.85828a1.37607,1.37607,0,0,1,.91276-.66488,3.75432,3.75432,0,0,0,1.48023-.76544A4.014,4.014,0,0,0,110.321,58.53467Zm-2.7674,2.18917a1.70257,1.70257,0,0,1-.67543.35757,3.40086,3.40086,0,0,0-2.24067,1.72933l-.43163.85833a.2344.2344,0,0,1-.43543-.16753l.20048-.7335a2.36338,2.36338,0,0,0-2.72994-2.94366s-11.26766,2.16619-11.35189,2.18267a2.47975,2.47975,0,0,1-2.8959-1.927,2.53754,2.53754,0,0,1,.92051-2.40412,2.14543,2.14543,0,0,1,1.02431-.52108,2.47678,2.47678,0,0,1,.45674-.044,1.02212,1.02212,0,0,0,.98826-1.24263c-.0033-.01566-.01616-.06192-.02031-.07735a3.37584,3.37584,0,0,1,4.48878-3.818,1.02147,1.02147,0,0,0,1.32624-.64238,2.57345,2.57345,0,0,1,4.97242.28552,1.02185,1.02185,0,0,0,1.02184.82032,3.52938,3.52938,0,0,1,3.597,3.82382,1.02143,1.02143,0,0,0,.89472,1.0944,1.889,1.889,0,0,1,1.64568,1.54128A1.97256,1.97256,0,0,1,107.5536,60.72384Z" transform="translate(-0.55791 44.88277)" fill="#fff"/>
    <path d="M92.0665,55.74971a1.02175,1.02175,0,0,0,.39238,2.00548,1.40943,1.40943,0,0,1,1.65185,1.11124,1.02176,1.02176,0,1,0,2.00549-.39237A3.45506,3.45506,0,0,0,92.0665,55.74971Z" transform="translate(-0.55791 44.88277)" fill="#fff"/>
    <path d="M89.66971-14.99324l4.34591,3.634L90.56556.55917A3.08975,3.08975,0,0,0,87.8045,4.564L86.96,6.23988q-1.2719,2.523-2.50886,4.98188a1.0586,1.0586,0,0,0,.29818,1.31232,8.97426,8.97426,0,0,0,6.37018,1.844,1.05851,1.05851,0,0,0,.953-.95013q.269-2.73942.54037-5.5517l.18125-1.86792a3.08976,3.08976,0,0,0-.19483-4.86044L95.79024-9.87543l3.773,3.15489L95.63585,6.847c-.52268,1.80561-.13838,4.64962,4.66039,7.944a44.55174,44.55174,0,0,0,12.405,5.49643c9.62451,2.786,20.03788,3.17191,21.60623-2.24608l3.92742-13.56751,12.78283-1.70853a1.0585,1.0585,0,0,0,.53877-1.86122L125.14831-21.17774a1.05658,1.05658,0,0,0-.81942-.2372L90.20848-16.85446a1.05861,1.05861,0,0,0-.87653.75483A1.05863,1.05863,0,0,0,89.66971-14.99324ZM91.72627,3.92688a.99273.99273,0,1,1-.67753-1.22968A.994.994,0,0,1,91.72627,3.92688ZM86.7592,11.345q1.0329-2.05439,2.09124-4.15227l.41687-.827A2.89873,2.89873,0,0,0,90.59505,6.75l-.08938.92185q-.22681,2.33881-.45014,4.62732A6.86285,6.86285,0,0,1,86.7592,11.345ZM135.942,4.78036l-3.66826,12.67227c-.95871,3.31191-9.12011,3.6563-18.98379.801S96.71088,10.7476,97.66958,7.43569l3.66827-12.67227L116.07793,7.08857a1.05658,1.05658,0,0,0,.81942.2372Zm-11.79445-24.035L148.3534.98541,117.07866,5.16547,98.99413-9.95617l21.42681,3.95252a1.05827,1.05827,0,0,0,1.23309-.84879,1.06268,1.06268,0,0,0-.84873-1.23308l-25.11478-4.633-2.81767-2.35609Z" transform="translate(-0.55791 44.88277)" fill="#fff"/>
    <g>
      <path d="M43.23914,4.96522A16.81353,16.81353,0,0,0,44.76787-8.65016a16.64781,16.64781,0,0,0-9.17259-10.24375,16.86318,16.86318,0,0,0-20.05814,5.0102A16.72533,16.72533,0,0,0,11.9866-3.57257,26.41026,26.41026,0,0,1,8.48173,9.84126l-1.83116,3.11a1.12707,1.12707,0,0,0,.39937,1.54314l16.48152,9.70439a1.12706,1.12706,0,0,0,1.54313-.39937L26.907,20.68724a24.9383,24.9383,0,0,1,9.75632-9.422A16.74382,16.74382,0,0,0,43.23914,4.96522ZM24.96452,19.54349,23.704,21.68436,9.165,13.12373,10.42424,10.985A28.66006,28.66006,0,0,0,14.24045-3.57245,14.491,14.491,0,0,1,17.32086-12.505a14.5867,14.5867,0,0,1,17.35068-4.33292,14.41579,14.41579,0,0,1,7.94835,8.87184A14.55631,14.55631,0,0,1,41.29664,3.82146a14.48723,14.48723,0,0,1-5.68986,5.45238A27.19159,27.19159,0,0,0,24.96452,19.54349Z" transform="translate(-0.55791 44.88277)" fill="#fff"/>
      <path d="M39.11368-21.11334a1.12706,1.12706,0,0,0,1.54313-.39937l4.14006-7.0313a1.12706,1.12706,0,0,0-.39937-1.54313,1.12706,1.12706,0,0,0-1.54313.39937l-4.14006,7.0313A1.12706,1.12706,0,0,0,39.11368-21.11334Z" transform="translate(-0.55791 44.88277)" fill="#fff"/>
      <path d="M54.90917,10.52861l-7.031-4.1399a1.12711,1.12711,0,0,0-1.14376,1.94251l7.031,4.1399a1.12711,1.12711,0,1,0,1.14375-1.94251Z" transform="translate(-0.55791 44.88277)" fill="#fff"/>
      <path d="M35.25334,16.98586a1.127,1.127,0,0,0-2.18209.56474l1.022,3.94982a1.127,1.127,0,0,0,2.18209-.56474Z" transform="translate(-0.55791 44.88277)" fill="#fff"/>
      <path d="M53.26143-11.05394l-3.9497,1.02244a1.12671,1.12671,0,0,0-.80868,1.37342,1.12347,1.12347,0,0,0,.51917.68888,1.12294,1.12294,0,0,0,.85425.11979l3.9497-1.02245a1.12668,1.12668,0,0,0,.80867-1.37341A1.12669,1.12669,0,0,0,53.26143-11.05394Z" transform="translate(-0.55791 44.88277)" fill="#fff"/>
      <path d="M22.29382-24.09021a1.12294,1.12294,0,0,0,.51917.68889,1.12348,1.12348,0,0,0,.85425.11979,1.1267,1.1267,0,0,0,.80867-1.37342l-1.022-3.94981a1.12671,1.12671,0,0,0-1.37342-.80868A1.12671,1.12671,0,0,0,21.27181-28.04Z" transform="translate(-0.55791 44.88277)" fill="#fff"/>
      <path d="M7.67069.74507,3.721,1.76751A1.127,1.127,0,1,0,4.28573,3.9496L8.23544,2.92715A1.127,1.127,0,1,0,7.67069.74507Z" transform="translate(-0.55791 44.88277)" fill="#fff"/>
      <path d="M10.81277-15.43557l-7.031-4.1399a1.12708,1.12708,0,0,0-1.54314.39938A1.12707,1.12707,0,0,0,2.638-17.633l7.031,4.1399a1.12707,1.12707,0,0,0,1.54314-.39937A1.12709,1.12709,0,0,0,10.81277-15.43557Z" transform="translate(-0.55791 44.88277)" fill="#fff"/>
      <path d="M22.38865,26.13963,5.90714,16.43524a1.12711,1.12711,0,0,0-1.14376,1.94251L21.2449,28.08214a1.12711,1.12711,0,1,0,1.14375-1.94251Z" transform="translate(-0.55791 44.88277)" fill="#fff"/>
      <path d="M20.441,29.44743,3.9595,19.743a1.12711,1.12711,0,1,0-1.14376,1.94251L8.0113,24.74471l-.68581,1.16475a3.46569,3.46569,0,0,0,1.22665,4.73962l.12412.07308a3.46569,3.46569,0,0,0,4.73962-1.22665l.68581-1.16475,5.19556,3.05917a1.12711,1.12711,0,0,0,1.14376-1.9425Zm-8.96763-1.09568a1.20894,1.20894,0,0,1-1.65336.4279l-.12412-.07308a1.20893,1.20893,0,0,1-.4279-1.65335l.68581-1.16475L12.15918,27.187Z" transform="translate(-0.55791 44.88277)" fill="#fff"/>
      <path d="M34.81661-13.81538a4.13753,4.13753,0,0,0-3.27252-.41525,4.14,4.14,0,0,0-2.55415,2.08793l-8.90623,17.131A3.15927,3.15927,0,0,0,25.521,8.18984L36.18058-7.90881a4.14007,4.14007,0,0,0,.58671-3.24638A4.13755,4.13755,0,0,0,34.81661-13.81538ZM23.6412,6.94578a.90509.90509,0,0,1-1.55769-.91718l8.90622-17.131a1.90729,1.90729,0,0,1,1.17658-.96191,1.90712,1.90712,0,0,1,1.50654.19147,1.90712,1.90712,0,0,1,.89829,1.22451,1.90729,1.90729,0,0,1-.27036,1.49549Z" transform="translate(-0.55791 44.88277)" fill="#fff"/>
      <path d="M20.77844,10.02642a3.13132,3.13132,0,1,0,1.10943,4.28667A3.13445,3.13445,0,0,0,20.77844,10.02642Zm-2.03381,3.45413a.8771.8771,0,1,1,1.20073-.31122A.87824.87824,0,0,1,18.74463,13.48055Z" transform="translate(-0.55791 44.88277)" fill="#fff"/>
    </g>
    <path d="M158.7658,63.67067a8.90894,8.90894,0,0,1-.91637-.046.61453.61453,0,0,0-.72135.58752.754.754,0,0,0,.40849.64462.82276.82276,0,0,0,.30773.09732,10.04761,10.04761,0,0,0,1.16072.05308.59753.59753,0,0,0,.58924-.70509A.80926.80926,0,0,0,158.7658,63.67067Z" transform="translate(-0.55791 44.88277)" fill="#fff"/>
    <path d="M189.54308,68.38421a6.57679,6.57679,0,0,0,1.36646-1.73041,6.69172,6.69172,0,0,0-2.24528-8.83035,5.74052,5.74052,0,0,0-8.41212-6.75957,5.74055,5.74055,0,0,0-10.22592-3.44774,6.69169,6.69169,0,0,0-8.64958,2.86367,6.57686,6.57686,0,0,0-.72219,2.08326,7.34625,7.34625,0,0,0-6.01755,11.50244,5.67044,5.67044,0,0,0-.63107.92317,5.75631,5.75631,0,0,0,2.28112,7.80473q.15168.08307.31172.15731a5.74477,5.74477,0,0,0,8.70112,5.41542,5.74473,5.74473,0,0,0,9.24891,4.41509q.14893.095.30043.17794a5.75628,5.75628,0,0,0,7.80473-2.28112,5.67448,5.67448,0,0,0,.438-1.0289,7.34625,7.34625,0,0,0,6.45122-11.26494Zm-29.225,8.73764a4.16209,4.16209,0,0,1-2.08945-4.51142l.00038-.00953.00425-.01531a3.832,3.832,0,0,1,3.22374-3.2369.78263.78263,0,0,0-.06776-1.5638,5.26932,5.26932,0,0,0-4.44184,3.57935,4.17473,4.17473,0,0,1-.75275-6.6707.7825.7825,0,0,0,.067-1.07425,5.777,5.777,0,0,1,4.328-9.48616,3.85716,3.85716,0,0,0,2.04617,2.99265,4.92339,4.92339,0,0,0,.97164.40068.78262.78262,0,1,0,.44279-1.5013,2.40135,2.40135,0,0,1-1.91891-2.57714c.00053-.00532-.00049-.01037-.00015-.01564l.002-.01321a5.06559,5.06559,0,0,1,.61641-2.18749,5.12369,5.12369,0,0,1,6.94691-2.03043c.02643.01448.05082.03085.07567.04645l.09336.05857a.79177.79177,0,0,0,1.07223-.26574,4.18133,4.18133,0,0,1,7.24344,4.17559l-.38566.70421c-.01792-.048-.02992-.09853-.04978-.14551a3.01631,3.01631,0,0,0-1.99638-1.78644,4.27355,4.27355,0,0,0-2.24813.10528c-.86226.21242-1.256.30948-1.79508-.39554a.78274.78274,0,0,0-1.24315.95147,2.83821,2.83821,0,0,0,3.41233.964,2.86281,2.86281,0,0,1,1.45678-.11694,1.48008,1.48008,0,0,1,.9718.88777,3.5705,3.5705,0,0,1-.39722,2.98478l-4.391,8.01775a4.9755,4.9755,0,0,0-2.4722-3.24617.78264.78264,0,1,0-.75187,1.37288c1.8946,1.0376,2.378,3.41816,1.14973,5.66093l-3.44341,6.2875A4.18907,4.18907,0,0,1,160.31805,77.12185Zm22.27523.91826a.78227.78227,0,0,0-.869.634,4.17564,4.17564,0,0,1-6.02653,2.959,5.26932,5.26932,0,0,0,.62378-5.67033.78263.78263,0,1,0-1.35414.78508,3.832,3.832,0,0,1-.99128,4.45952l-.00788.00879-.01052.00852a4.18469,4.18469,0,0,1-6.58692-5.01063l2.19434-4.00676a4.40559,4.40559,0,0,1,5.60809-1.96892.78274.78274,0,1,0,.64483-1.4265,5.9532,5.9532,0,0,0-4.30307-.16492l4.81759-8.79668a3.56985,3.56985,0,0,1,2.301-1.94214,1.47561,1.47561,0,0,1,1.27139.34074,8.85085,8.85085,0,0,1,.7196.75362,3.63648,3.63648,0,0,0,4.07353,1.44414.78258.78258,0,1,0-.29665-1.5368,2.17,2.17,0,0,1-2.602-.94148,10.07021,10.07021,0,0,0-.84864-.88354,3.01425,3.01425,0,0,0-2.58-.71986c-.05031.00855-.09935.02565-.1494.03642L179.554,53.968a4.18132,4.18132,0,0,1,7.41922,3.85456.78373.78373,0,0,0,.35352,1.04656l.09967.04714c.02649.01252.05381.02448.07985.03874a5.12371,5.12371,0,0,1,2.03041,6.94694,5.06552,5.06552,0,0,1-1.51125,1.69742l-.0101.00895-.0132.00817a2.40109,2.40109,0,0,1-3.2049-.229.78262.78262,0,0,0-1.02653,1.18161,4.92162,4.92162,0,0,0,.86052.60273,3.85822,3.85822,0,0,0,3.62395.11275,5.77709,5.77709,0,0,1-5.66188,8.75552Z" transform="translate(-0.55791 44.88277)" fill="#fff"/>
    <path d="M181.83557,76.46589a8.96477,8.96477,0,0,1-.5348-.8446.78289.78289,0,1,0-1.40607.68893,10.06862,10.06862,0,0,0,.67322,1.07378.7826.7826,0,1,0,1.26765-.91811Z" transform="translate(-0.55791 44.88277)" fill="#fff"/>
    <path d="M183.39851,43.23388l-1.61031,2.94034a.78264.78264,0,1,0,1.37288.75187l1.6103-2.94034a.78264.78264,0,1,0-1.37287-.75187Z" transform="translate(-0.55791 44.88277)" fill="#fff"/>
    <path d="M164.56925,43.59733a.78264.78264,0,0,0,1.12706-.906l-.94052-3.218a.78255.78255,0,1,0-1.50226.43907l.94053,3.21795A.77962.77962,0,0,0,164.56925,43.59733Z" transform="translate(-0.55791 44.88277)" fill="#fff"/>
    <path d="M151.916,55.149l-2.94034-1.61031a.78264.78264,0,1,0-.75187,1.37287l2.94034,1.61031A.78264.78264,0,1,0,151.916,55.149Z" transform="translate(-0.55791 44.88277)" fill="#fff"/>
    <path d="M197.97985,57.66889l-3.218.94052a.78255.78255,0,1,0,.43907,1.50226l3.218-.94053a.78255.78255,0,1,0-.43907-1.50225Z" transform="translate(-0.55791 44.88277)" fill="#fff"/>
    <path d="M194.6268,78.54l-2.94035-1.61031a.78264.78264,0,0,0-.75187,1.37287l2.94035,1.61031A.78264.78264,0,1,0,194.6268,78.54Z" transform="translate(-0.55791 44.88277)" fill="#fff"/>
    <path d="M136.06076,34.83887l-1.61031,2.94035c-.20769.37923.5143,1.174,1.61326,1.77584s2.15745.7822,2.36514.403l1.6103-2.94035c.20769-.37922-.51433-1.174-1.61326-1.77584S136.26845,34.45965,136.06076,34.83887Z" transform="translate(-0.55791 44.88277)" fill="#fff" stroke="#fff" stroke-miterlimit="10" stroke-width="0.25"/>
    <path d="M171.263,17.46881l-4.44593.69291c-.57341.08937-.7921,1.73907-.48863,3.6862.30345,1.94707,1.0138,3.452,1.58721,3.36266l4.44593-.69291c.5734-.08936.79208-1.73912.48863-3.68619S171.83641,17.37944,171.263,17.46881Z" transform="translate(-0.55791 44.88277)" fill="#fff"/>
    <path d="M135.63792,78.22612l-2.4888,1.26257c-.321.16284.112,1.66085.9675,3.34724.85548,1.68634,1.80856,2.92057,2.12955,2.75773l2.48879-1.26257c.321-.16283-.112-1.66089-.9675-3.34723C136.912,79.29747,135.95891,78.06328,135.63792,78.22612Z" transform="translate(-0.55791 44.88277)" fill="#fff"/>
    <path d="M217.92593,53.96677l-2.58968-.90953c-.334-.11731-1.222,1.54555-1.98411,3.71558-.76213,2.17-1.109,4.02294-.775,4.14024l2.58968.90954c.334.1173,1.222-1.54561,1.98412-3.71558C217.91311,55.937,218.25993,54.08408,217.92593,53.96677Z" transform="translate(-0.55791 44.88277)" fill="#fff" stroke="#fff" stroke-miterlimit="10" stroke-width="0.25"/>
    <g>
      <path d="M236.44812-1.59545a16.81358,16.81358,0,0,0,9.46659,9.90452A16.6478,16.6478,0,0,0,259.657,7.84033a16.86319,16.86319,0,0,0,9.019-18.60347A16.72539,16.72539,0,0,0,263.04133-20.1a26.4102,26.4102,0,0,1-8.04465-11.29153l-1.21192-3.39945a1.12707,1.12707,0,0,0-1.44015-.68318l-18.01567,6.4227a1.12706,1.12706,0,0,0-.68318,1.44015l1.21277,3.40182a24.93832,24.93832,0,0,1,.9727,13.52826A16.7438,16.7438,0,0,0,236.44812-1.59545Zm.53374-23.371-.83428-2.34016,15.89234-5.66571.83344,2.33779a28.6601,28.6601,0,0,0,8.72248,12.26383,14.491,14.491,0,0,1,4.87839,8.092A14.58669,14.58669,0,0,1,258.67186,5.813a14.41579,14.41579,0,0,1-11.90454.4092,14.55631,14.55631,0,0,1-8.19587-8.57466,14.48712,14.48712,0,0,1-.53466-7.86238A27.19175,27.19175,0,0,0,236.98186-24.96643Z" transform="translate(-0.55791 44.88277)" fill="#fff"/>
      <path d="M259.10362,11.96328a1.12707,1.12707,0,0,0-.68317,1.44015l2.74,7.6858a1.12711,1.12711,0,0,0,2.12332-.757l-2.74-7.68579A1.12706,1.12706,0,0,0,259.10362,11.96328Z" transform="translate(-0.55791 44.88277)" fill="#fff"/>
      <path d="M224.6954,3.79106l7.6855-2.73992A1.12706,1.12706,0,0,0,233.06407-.389a1.12707,1.12707,0,0,0-1.44015-.68318l-7.68549,2.73993a1.12711,1.12711,0,1,0,.757,2.12332Z" transform="translate(-0.55791 44.88277)" fill="#fff"/>
      <path d="M232.34609-15.43171a1.12669,1.12669,0,0,0,1.50125-.53521,1.12669,1.12669,0,0,0-.5352-1.50125L229.62606-19.217a1.1229,1.1229,0,0,0-.86151-.04343,1.12342,1.12342,0,0,0-.63974.57863,1.12669,1.12669,0,0,0,.5352,1.50126Z" transform="translate(-0.55791 44.88277)" fill="#fff"/>
      <path d="M242.3122,16.36764l1.74843-3.68626a1.127,1.127,0,1,0-2.03647-.96605l-1.74843,3.68626a1.127,1.127,0,0,0,2.03647.96605Z" transform="translate(-0.55791 44.88277)" fill="#fff"/>
      <path d="M272.17431.96662a1.127,1.127,0,1,0-.966,2.03647l3.68607,1.74883a1.127,1.127,0,0,0,.966-2.03647Z" transform="translate(-0.55791 44.88277)" fill="#fff"/>
      <path d="M262.49623-26.18041l1.74843-3.68627a1.1267,1.1267,0,0,0-.53521-1.50125,1.12346,1.12346,0,0,0-.86151-.04343,1.12294,1.12294,0,0,0-.63975.57863l-1.74843,3.68627a1.1267,1.1267,0,0,0,.53521,1.50125A1.12669,1.12669,0,0,0,262.49623-26.18041Z" transform="translate(-0.55791 44.88277)" fill="#fff"/>
      <path d="M272.89647-13.3929l7.6855-2.73993a1.12707,1.12707,0,0,0,.68317-1.44015,1.12707,1.12707,0,0,0-1.44015-.68317l-7.6855,2.73993a1.12707,1.12707,0,0,0-.68317,1.44015A1.12707,1.12707,0,0,0,272.89647-13.3929Z" transform="translate(-0.55791 44.88277)" fill="#fff"/>
      <path d="M233.57259-31.173l18.01567-6.42269a1.12707,1.12707,0,0,0,.68318-1.44016,1.12707,1.12707,0,0,0-1.44015-.68317L232.81561-33.2963a1.12708,1.12708,0,0,0-.68317,1.44016A1.12707,1.12707,0,0,0,233.57259-31.173Z" transform="translate(-0.55791 44.88277)" fill="#fff"/>
      <path d="M232.28357-34.78867l18.01568-6.42269a1.12707,1.12707,0,0,0,.68317-1.44015,1.12706,1.12706,0,0,0-1.44015-.68317L243.86309-41.31l-.45389-1.27317a3.4657,3.4657,0,0,0-4.42332-2.09832l-.13567.04837a3.46569,3.46569,0,0,0-2.09832,4.42332l.45389,1.27317L231.5266-36.912a1.12707,1.12707,0,0,0-.68318,1.44015A1.12706,1.12706,0,0,0,232.28357-34.78867Zm6.59164-6.17812a1.20894,1.20894,0,0,1,.732-1.543l.13567-.04837a1.20893,1.20893,0,0,1,1.543.732l.45389,1.27317-2.41066.85941Z" transform="translate(-0.55791 44.88277)" fill="#fff"/>
      <path d="M256.25967,3.986A4.13754,4.13754,0,0,0,258.677,1.74133a4.14009,4.14009,0,0,0,.03592-3.29877L251.28-19.37722a3.1586,3.1586,0,0,0-3.97686-1.76,3.1586,3.1586,0,0,0-1.96656,3.87888l5.51637,18.503a4.14006,4.14006,0,0,0,2.11466,2.53208A4.1375,4.1375,0,0,0,256.25967,3.986ZM247.4966-17.9029a.90506.90506,0,0,1,.56347-1.111.90506.90506,0,0,1,1.13922.504L256.63222-.69014a1.90724,1.90724,0,0,1-.01647,1.51965,1.9071,1.9071,0,0,1-1.113,1.03317,1.90716,1.90716,0,0,1-1.51563-.096,1.90729,1.90729,0,0,1-.9741-1.1665Z" transform="translate(-0.55791 44.88277)" fill="#fff"/>
      <path d="M246.96874-22.07508a3.13444,3.13444,0,0,0,1.89779-4.0006,3.135,3.135,0,0,0-4.00081-1.89838,3.135,3.135,0,0,0-1.89757,4.00119A3.13444,3.13444,0,0,0,246.96874-22.07508Zm-1.346-3.77565a.87823.87823,0,0,1,1.12051.532.87771.87771,0,0,1-.53144,1.1203.8777.8777,0,0,1-1.1203-.53145A.87823.87823,0,0,1,245.6227-25.85073Z" transform="translate(-0.55791 44.88277)" fill="#fff"/>
    </g>
    <path d="M190.81142,46.73627l-1.61031,2.94035c-.20769.37923.5143,1.174,1.61326,1.77584s2.15745.7822,2.36514.403l1.6103-2.94035c.20769-.37923-.51433-1.174-1.61326-1.77584S191.01911,46.35705,190.81142,46.73627Z" transform="translate(-0.55791 44.88277)" fill="#fff" stroke="#fff" stroke-miterlimit="10" stroke-width="0.25"/>
    <path d="M68.8304,23.54655l-4.44593.69291c-.5734.08937-.79209,1.73907-.48863,3.68619.30346,1.94707,1.01381,3.452,1.58721,3.36267l4.44593-.69291c.57341-.08937.79209-1.73912.48863-3.68619C70.11415,24.96209,69.40381,23.45718,68.8304,23.54655Z" transform="translate(-0.55791 44.88277)" fill="#fff"/>
    <path d="M70.14494,78.57919l-1.61031,2.94035c-.20768.37922.51431,1.174,1.61327,1.77584s2.15744.78219,2.36513.403L74.12334,80.758c.20769-.37923-.51433-1.174-1.61327-1.77584S70.35263,78.2,70.14494,78.57919Z" transform="translate(-0.55791 44.88277)" fill="#fff" stroke="#fff" stroke-miterlimit="10" stroke-width="0.25"/>
    <path d="M84.5427,112.71052l-2.48879,1.26257c-.321.16284.112,1.66085.9675,3.34724.85548,1.68634,1.80855,2.92057,2.12954,2.75773l2.4888-1.26257c.321-.16284-.112-1.66089-.9675-3.34724S84.86369,112.54768,84.5427,112.71052Z" transform="translate(-0.55791 44.88277)" fill="#fff"/>
    <path d="M147.63241,96.49939l-1.61031,2.94035c-.20768.37923.51431,1.174,1.61327,1.77584s2.15744.7822,2.36513.403l1.61031-2.94035c.20768-.37923-.51433-1.174-1.61327-1.77584S147.8401,96.12016,147.63241,96.49939Z" transform="translate(-0.55791 44.88277)" fill="#fff" stroke="#fff" stroke-miterlimit="10" stroke-width="0.25"/>
    <path d="M19.98678,47.73017l-4.44592.69291c-.57341.08937-.7921,1.73907-.48864,3.68619.30346,1.94707,1.01381,3.452,1.58722,3.36267l4.44592-.69291c.57341-.08937.79209-1.73912.48863-3.68619C21.27053,49.14571,20.56019,47.6408,19.98678,47.73017Z" transform="translate(-0.55791 44.88277)" fill="#fff"/>
    <path d="M52.70523,100.15482l-1.6103,2.94035c-.20769.37923.5143,1.174,1.61326,1.77584s2.15744.78219,2.36513.403l1.61031-2.94035c.20769-.37923-.51433-1.174-1.61326-1.77584S52.91292,99.77559,52.70523,100.15482Z" transform="translate(-0.55791 44.88277)" fill="#fff" stroke="#fff" stroke-miterlimit="10" stroke-width="0.25"/>
    <path d="M66.03407-30.21836l-4.44592.69291c-.57341.08937-.7921,1.73907-.48864,3.68619s1.01381,3.452,1.58722,3.36267l4.44592-.69291c.57341-.08937.79209-1.73912.48863-3.68619C67.31782-28.80282,66.60748-30.30773,66.03407-30.21836Z" transform="translate(-0.55791 44.88277)" fill="#fff"/>
    <path d="M159.60983-23.12553l-4.44593.69291c-.57341.08937-.7921,1.73907-.48863,3.6862.30345,1.94707,1.0138,3.452,1.58721,3.36266l4.44593-.69291c.5734-.08936.79208-1.73912.48863-3.68619C160.89357-21.71,160.18323-23.21489,159.60983-23.12553Z" transform="translate(-0.55791 44.88277)" fill="#fff"/>
    <path d="M49.9687,27.819,47.379,26.90943c-.334-.11731-1.222,1.54554-1.98411,3.71557s-1.109,4.02294-.775,4.14025l2.58968.90953c.334.11731,1.222-1.5456,1.98411-3.71558C49.95588,29.78917,50.3027,27.93626,49.9687,27.819Z" transform="translate(-0.55791 44.88277)" fill="#fff" stroke="#fff" stroke-miterlimit="10" stroke-width="0.25"/>
    <path d="M222.10375,109.93306l-2.58968-.90953c-.334-.1173-1.222,1.54555-1.98411,3.71558-.76213,2.17-1.109,4.02294-.775,4.14024l2.58969.90954c.334.1173,1.222-1.54561,1.98411-3.71558C222.09093,111.90328,222.43775,110.05037,222.10375,109.93306Z" transform="translate(-0.55791 44.88277)" fill="#fff" stroke="#fff" stroke-miterlimit="10" stroke-width="0.25"/>
    <path d="M267.87043,92.22007l-1.6103,2.94034c-.20769.37923.5143,1.174,1.61326,1.77585s2.15744.78219,2.36513.403l1.61031-2.94034c.20769-.37923-.51433-1.174-1.61326-1.77585S268.07812,91.84084,267.87043,92.22007Z" transform="translate(-0.55791 44.88277)" fill="#fff" stroke="#fff" stroke-miterlimit="10" stroke-width="0.25"/>
    <path d="M62.63649,111.62137l-4.44593.69291c-.57341.08937-.79209,1.73908-.48863,3.6862s1.0138,3.452,1.58721,3.36267l4.44593-.69291c.5734-.08937.79208-1.73913.48863-3.6862S63.20989,111.532,62.63649,111.62137Z" transform="translate(-0.55791 44.88277)" fill="#fff"/>
    <path d="M253.14825,109.53532l-4.44593.69291c-.57341.08937-.7921,1.73907-.48863,3.6862.30345,1.94707,1.0138,3.452,1.58721,3.36267l4.44593-.69292c.5734-.08936.79208-1.73912.48863-3.68619S253.72165,109.446,253.14825,109.53532Z" transform="translate(-0.55791 44.88277)" fill="#fff"/>
    <path d="M75.24255,90.25789l-4.44593.69291c-.5734.08936-.79209,1.73907-.48863,3.68619.30346,1.94707,1.01381,3.452,1.58721,3.36267l4.44593-.69291c.57341-.08937.79209-1.73912.48863-3.6862S75.816,90.16852,75.24255,90.25789Z" transform="translate(-0.55791 44.88277)" fill="#fff"/>
    <g>
      <path d="M299.818,26.03224a16.78862,16.78862,0,1,0,17.83149,27.0491,26.41009,26.41009,0,0,1,11.48981-7.75882l3.42878-1.12625a1.12706,1.12706,0,0,0,.71909-1.42256l-5.96867-18.17114a1.12705,1.12705,0,0,0-1.42255-.71909l-3.43118,1.127a24.93834,24.93834,0,0,1-13.54841.633A16.74392,16.74392,0,0,0,299.818,26.03224Zm23.35023,1.11992,2.36036-.7753,5.2652,16.02949-2.358.77452a28.66014,28.66014,0,0,0-12.47882,8.412,14.53289,14.53289,0,1,1-7.56223-23.75625A27.19171,27.19171,0,0,0,323.16821,27.15216Z" transform="translate(-0.55791 44.88277)" fill="#fff"/>
      <path d="M285.69511,48.34043a1.12708,1.12708,0,0,0-1.42256-.7191l-7.75212,2.54634a1.12711,1.12711,0,1,0,.70347,2.14165L284.976,49.763A1.12706,1.12706,0,0,0,285.69511,48.34043Z" transform="translate(-0.55791 44.88277)" fill="#fff"/>
      <path d="M294.728,14.14807l2.54624,7.75183a1.12711,1.12711,0,1,0,2.14165-.70347l-2.54624-7.75182a1.12711,1.12711,0,0,0-2.14165.70346Z" transform="translate(-0.55791 44.88277)" fill="#fff"/>
      <path d="M313.7528,22.27863a1.127,1.127,0,1,0,2.01159,1.01684l1.84076-3.641a1.127,1.127,0,0,0-2.01159-1.01684Z" transform="translate(-0.55791 44.88277)" fill="#fff"/>
      <path d="M281.71342,31.44379l3.64124,1.84036a1.127,1.127,0,1,0,1.01684-2.01158l-3.64124-1.84037a1.127,1.127,0,0,0-1.01684,2.01159Z" transform="translate(-0.55791 44.88277)" fill="#fff"/>
      <path d="M296.36037,61.68289a1.127,1.127,0,1,0-2.01158-1.01684l-1.84076,3.641a1.127,1.127,0,0,0,2.01158,1.01684Z" transform="translate(-0.55791 44.88277)" fill="#fff"/>
      <path d="M323.74168,52.689l3.64123,1.84037a1.127,1.127,0,1,0,1.01684-2.01159l-3.64123-1.84036a1.127,1.127,0,1,0-1.01684,2.01158Z" transform="translate(-0.55791 44.88277)" fill="#fff"/>
      <path d="M310.69726,62.7651l2.54624,7.75182a1.12711,1.12711,0,1,0,2.14164-.70347l-2.54623-7.75182a1.12711,1.12711,0,0,0-2.14165.70347Z" transform="translate(-0.55791 44.88277)" fill="#fff"/>
      <path d="M329.45834,23.89969,335.427,42.07083a1.12711,1.12711,0,0,0,2.14165-.70346L331.6,23.19622a1.12711,1.12711,0,0,0-2.14165.70347Z" transform="translate(-0.55791 44.88277)" fill="#fff"/>
      <path d="M333.10523,22.70179l5.96868,18.17115a1.12711,1.12711,0,0,0,2.14165-.70347L339.334,34.44128l1.28415-.42181a3.46569,3.46569,0,0,0,2.20863-4.36928l-.04494-.13684a3.4657,3.4657,0,0,0-4.36929-2.20864l-1.28415.42181-1.88154-5.72819a1.12711,1.12711,0,0,0-2.14165.70346Zm6.01081,6.74457a1.20894,1.20894,0,0,1,1.52417.77046l.04495.13684a1.209,1.209,0,0,1-.77046,1.52417l-1.28415.4218-.79866-2.43146Z" transform="translate(-0.55791 44.88277)" fill="#fff"/>
      <path d="M293.74123,45.69752a4.17878,4.17878,0,0,0,5.48015,2.59151L317.222,41.30552a3.15927,3.15927,0,0,0-1.96908-5.9947l-18.63563,5.05041a4.17878,4.17878,0,0,0-2.8761,5.33629Zm22.10187-8.21114a.90509.90509,0,0,1,.56411,1.71738l-18.00066,6.98351a1.92386,1.92386,0,1,1-1.19907-3.65048Z" transform="translate(-0.55791 44.88277)" fill="#fff"/>
      <path d="M320.02721,37.06337a3.13132,3.13132,0,1,0,1.99756-3.95173A3.13446,3.13446,0,0,0,320.02721,37.06337Zm3.80824-1.2509a.8771.8771,0,1,1-1.10721-.55918A.87824.87824,0,0,1,323.83545,35.81247Z" transform="translate(-0.55791 44.88277)" fill="#fff"/>
    </g>
    <path d="M262.02434,29.53479l-4.44593.69291c-.5734.08937-.79209,1.73907-.48863,3.68619.30346,1.94707,1.01381,3.452,1.58721,3.36267l4.44593-.69291c.57341-.08937.79209-1.73912.48863-3.68619C263.30809,30.95033,262.59775,29.44542,262.02434,29.53479Z" transform="translate(-0.55791 44.88277)" fill="#fff"/>
    <path d="M278.387,43.54987l.67776-3.28319c.08741-.42345-.83582-.97168-2.06292-1.225s-2.292-.11549-2.37937.308l-.67776,3.28319c-.08741.42345.83585.97169,2.06292,1.225S278.29953,43.97332,278.387,43.54987Z" transform="translate(-0.55791 44.88277)" fill="#fff" stroke="#fff" stroke-miterlimit="10" stroke-width="0.25"/>
    <path d="M187.04754,1.662,188.343,4.86885a.89328.89328,0,0,0,1.16309.49378l1.95329-.78906L205.241,32.24706l-1.67588.677a.89329.89329,0,0,0-.49378,1.16309l1.30894,3.24024a.89328.89328,0,0,0,1.16309.49378l.09985-.04034,1.20959,5.2786a.89266.89266,0,0,0,1.20531.62891l3.22868-1.30427a.89354.89354,0,0,0,.55884-.84629l-.04509-2.25211,1.26346-.51039.66931,1.65687a.8933.8933,0,0,0,1.1631.49378l3.41244-1.3785a.89344.89344,0,0,0,.49378-1.16309l-.66931-1.65687,1.26346-.51039,1.53206,1.65143a.89321.89321,0,0,0,.98962.22078l3.22892-1.30435a.89337.89337,0,0,0,.43053-1.28972l-2.7962-4.63768.09963-.04024a.89345.89345,0,0,0,.49378-1.16309L222.06618,26.414a.89343.89343,0,0,0-1.16309-.49378l-1.68075.679L209.9157-2.88207l1.95814-.791a.89344.89344,0,0,0,.49378-1.16309L211.07218-8.043a8.19277,8.19277,0,0,0,4.29485-10.5529.89344.89344,0,0,0-1.16309-.49378L177.12149-4.10982a.89329.89329,0,0,0-.49378,1.16309A8.193,8.193,0,0,0,187.04754,1.662ZM200.15711,10.4l1.74563-.70517,4.37819-1.76862,1.1952,2.9587-6.12382,2.47379Zm.24789-2.02739-1.74564.70517-2.4643.99548-1.42687-2.86511,4.44161-1.79424Zm23.10154,27.14793-1.68646.68126L220.288,34.55034a.89324.89324,0,0,0-.98963-.22078l-2.66283,1.07568a.89345.89345,0,0,0-.49378,1.1631l.66931,1.65687-1.75557.70918-.66931-1.65687a.89329.89329,0,0,0-1.16309-.49378l-2.66283,1.07568a.89355.89355,0,0,0-.55884.8463l.04508,2.25211-1.686.68107-1.03981-4.53573,13.783-5.56782Zm-2.123-6.02544-.20437.08256-.0065.00262-15.47024,6.24938-.63962-1.58337L220.744,27.91171Zm-13.275-12.671,5.45808-2.20485.96353,3.05228-5.22641,2.11127ZM213.02708,12.91l-6.41622,2.5919-3.593,1.45142a.89348.89348,0,0,0,.66931,1.65688l2.76454-1.11677,1.52985,3.78714a.89345.89345,0,0,0,1.1631.49378l5.92511-2.39352,2.49062,7.88967-10.657,4.305L196.99411,11.6777l1.50613-.60842,1.52986,3.78713a.89327.89327,0,0,0,1.16309.49378l7.78069-3.14309a.89345.89345,0,0,0,.49378-1.16309l-1.86452-4.61558a.89344.89344,0,0,0-1.16309-.49378l-4.37818,1.76862L200.532,3.91613a.89329.89329,0,0,0-1.16309-.49378l-5.39977,2.1813-.8474-1.70162,15.132-6.11275ZM189.66519,3.3711l-.956-2.3665,20.7109-8.3664.956,2.3665Zm24.32207-20.446a6.41178,6.41178,0,0,1-3.81489,7.482L186.61834-.078A6.41137,6.41137,0,0,1,178.677-2.81095Z" transform="translate(-0.55791 44.88277)" fill="#fff"/>
    <path d="M2.17993,89.28571l5.65651-.31064,5.61387,11.06512a3.08975,3.08975,0,0,0,.71573,4.8114l.52674,1.80124q.7926,2.712,1.567,5.35332a1.0586,1.0586,0,0,0,1.11368.75554,8.97431,8.97431,0,0,0,5.91409-3.0005,1.0585,1.0585,0,0,0,.048-1.34489q-1.67328-2.18562-3.39453-4.42612l-1.14254-1.48882a3.08974,3.08974,0,0,0-3.46-3.4191L10.14619,88.84818l4.91084-.26972,6.39062,12.59612c.85048,1.67633,3.07258,3.49247,8.82825,2.62454a44.55106,44.55106,0,0,0,12.81753-4.45047c8.93542-4.53337,16.80908-11.35924,14.25709-16.38932L50.9599,70.36321l8.17571-9.97385a1.05851,1.05851,0,0,0-.87667-1.728l-34.372,1.88781a1.05654,1.05654,0,0,0-.76075.386L1.30325,87.55776a1.0585,1.0585,0,0,0,.87668,1.72795ZM16.59728,101.7091a.99274.99274,0,1,1-1.3345-.43621A.994.994,0,0,1,16.59728,101.7091Zm1.4334,8.81169q-.6474-2.20641-1.30591-4.462l-.25986-.889a2.8985,2.8985,0,0,0,1.23267-.62539l.56391.73471q1.43066,1.86406,2.82952,3.689A6.86286,6.86286,0,0,1,18.03068,110.52079ZM49.49346,72.1523l5.96893,11.765c1.56,3.07478-4.16943,8.89723-13.32689,13.54325s-17.23974,5.83091-18.79973,2.75612l-5.96893-11.765L36.552,87.39791a1.05655,1.05655,0,0,0,.76075-.386ZM24.46822,62.63771l31.50534-1.73049L35.97065,85.30941l-23.5381,1.29287L30.7895,74.86547a1.05853,1.05853,0,0,0-1.14013-1.78382L8.13268,86.83844l-3.6674.2014Z" transform="translate(-0.55791 44.88277)" fill="#fff"/>
  </g>
  <path d="M283.05063,87.45457l19.10926-7.63563.77593,1.94188a.71413.71413,0,0,0,1.32629-.53l-.77593-1.94187,1.03208-.4124a.71412.71412,0,1,0-.52995-1.32628l-1.69341.67664-.00189.00054-.00178.00093-19.77055,7.89987a.71412.71412,0,1,0,.52995,1.32628Z" transform="translate(-0.55791 44.88277)" fill="#fff"/>
  <path d="M308.75391,98.49576l-15.25231,6.09448a1.88452,1.88452,0,0,0-1.04946,2.44657l2.75454,6.89363A1.88448,1.88448,0,0,0,297.6531,114.98l15.25231-6.09448a1.88455,1.88455,0,0,0,1.04971-2.44649l-2.75454-6.89363A1.8846,1.8846,0,0,0,308.75391,98.49576Zm-14.72235,7.42077,15.2523-6.09448a.45485.45485,0,0,1,.59043.25327l.74607,1.86714-2.23574.89336-.00189.00053-.00175.00092L294.5245,108.374l-.74607-1.86715A.45467.45467,0,0,1,294.03156,105.91653Zm18.34389,1.64267-15.25231,6.09447a.45449.45449,0,0,1-.59017-.25319l-1.47852-3.70019,13.19516-5.27248.45735,1.14458a.71412.71412,0,0,0,1.32629-.52995l-.45735-1.14459,1.57442-.6291,1.47851,3.70019A.45469.45469,0,0,1,312.37545,107.5592Z" transform="translate(-0.55791 44.88277)" fill="#fff"/>
  <path d="M299.65613,99.22079a.71386.71386,0,0,0,.93772-.3747L302.22,95.05565a.71385.71385,0,0,0-.37469-.93773l-3.79044-1.62611a.71393.71393,0,0,0-.93773.37469L295.491,96.657a.71385.71385,0,0,0,.37469.93772Zm-1.508-5.13482,2.47775,1.06293-1.063,2.47776-2.47777-1.063Z" transform="translate(-0.55791 44.88277)" fill="#fff"/>
  <path d="M322.64614,101.154l-2.64112-6.6098a.71422.71422,0,0,0-.92812-.39816l-3.98554,1.59252-4.505-11.27446a3.39,3.39,0,0,0,1.08126-3.93822l-2.59417-6.49229a3.3906,3.3906,0,0,0-4.40153-1.88875l-5.44021,2.17379c-1.63912-2.86634-5.89643-3.91519-9.90637-2.31291s-6.37216,5.29615-5.58467,8.50277l-5.44039,2.17386a3.39064,3.39064,0,0,0-1.88795,4.40188l2.59418,6.49229a3.39,3.39,0,0,0,3.49746,2.10867L287.00912,106.96l-3.98534,1.59246a.71423.71423,0,0,0-.39817.92812l2.641,6.60942a1.80239,1.80239,0,0,0,2.33982,1.00348l2.97657-1.18937.73971,1.85123a3.39024,3.39024,0,0,0,4.40131,1.88817l21.79291-8.70795a3.39022,3.39022,0,0,0,1.88818-4.40131l-.73971-1.85123,2.97675-1.18945A1.80239,1.80239,0,0,0,322.64614,101.154ZM289.85528,73.332c3.25982-1.30255,6.67455-.605,8.036,1.52221l-1.18123.472c-1.18613-1.49818-3.832-1.89766-6.40536-.8694s-4.21537,3.14107-4.04245,5.0441l-1.18123.472C284.60173,77.49323,286.59545,74.63455,289.85528,73.332Zm5.42233,2.56659-7.58288,3.02994c.17055-1.16279,1.40562-2.45243,3.13995-3.14543S294.35272,75.17349,295.27761,75.89858Zm-14.94484,17.148-2.59417-6.4923a1.96076,1.96076,0,0,1,1.09161-2.54563l6.05473-2.41933,2.46-.98295,9.34244-3.733,2.46-.98294,6.05454-2.41926a1.96076,1.96076,0,0,1,2.54529,1.09241l2.59418,6.49229a1.96051,1.96051,0,0,1-1.09184,2.54507L282.87784,94.1384A1.96052,1.96052,0,0,1,280.33277,93.04656Zm6.74369,22.72065a.3724.3724,0,0,1-.48359-.20715l-2.376-5.94627,3.32219-1.32748,2.514,6.29153Zm29.9105-6.15792-21.79291,8.708a1.96051,1.96051,0,0,1-2.54507-1.09185l-1.00469-2.51437-3.0439-7.61782L283.8787,95.27652l25.42982-10.16118,8.77028,21.94888A1.9605,1.9605,0,0,1,316.987,109.60929Zm-1.36545-12.54452,3.3222-1.32748,2.37615,5.94666a.37241.37241,0,0,1-.20768.48336l-2.97657,1.18936Z" transform="translate(-0.55791 44.88277)" fill="#fff"/>
  <path d="M116.42466,90.33087l-4.26206,11.3075a.49215.49215,0,0,0,.287.63413l12.58736,4.74448-3.67039,9.73775a.49216.49216,0,0,0,.77137.55517l3.7175-3.02611,13.37776,5.0424a.49215.49215,0,0,0,.63413-.28695l4.26236-11.30829a.49214.49214,0,0,0-.28695-.63413l-12.58607-4.744,2.1226-5.63138a.49217.49217,0,0,0-.287-.63414L117.0588,90.04392A.49216.49216,0,0,0,116.42466,90.33087ZM143.035,107.84432l-3.91519,10.38719-13.182-4.96862a.492.492,0,0,0-.4844.07893l-2.52241,2.05334,2.94241-7.80639.75053,4.45373a.49219.49219,0,0,0,.94589.09176l3.33968-8.86034ZM117.17216,91.1386l15.11238,5.69621-2.1178,5.61864-.00609.01225-.00351.01323-2.86555,7.60245-.54076-3.20912a.49221.49221,0,0,0-.31175-.37872l-13.1818-4.96854Z" transform="translate(-0.55791 44.88277)" fill="#fff"/>
  <path d="M124.29957,101.81338a1.759,1.759,0,0,0,2.38069-1.36141,2.05056,2.05056,0,0,0-1.35482-2.211l-4.74356-1.8169c-1.36677-.52351-2.48283-.159-2.85363.75751a1.95729,1.95729,0,0,0,1.1058,2.53848Z" transform="translate(-0.55791 44.88277)" fill="#fff"/>
  <path d="M119.32177,101.12411a1.73578,1.73578,0,0,0,1.033,2.31551,1.94033,1.94033,0,0,0,2.4249-1.08178l2.19731-5.364a1.736,1.736,0,0,0-1.033-2.31551,1.94046,1.94046,0,0,0-2.425,1.08182Z" transform="translate(-0.55791 44.88277)" fill="#fff"/>
  <path d="M136.46171,112.98717a1.427,1.427,0,0,0,1.93129-1.10442,1.66346,1.66346,0,0,0-1.09907-1.79364l-3.84811-1.47393c-1.10877-.42468-2.01415-.12895-2.315.61452a1.58778,1.58778,0,0,0,.89706,2.05928Z" transform="translate(-0.55791 44.88277)" fill="#fff"/>
  <circle cx="135.28208" cy="152.62948" r="1.28922" fill="#fff"/>
  <circle cx="133.29061" cy="158.61646" r="1.28922" fill="#fff"/>
  <g>
    <path d="M270.0836,47.6984a.78567.78567,0,0,0,.67607-.88155L270.29,43.25659a.78567.78567,0,0,0-.88155-.67608l-47.17355,6.2228a.78566.78566,0,0,0-.67607.88154l.46964,3.56027a.78567.78567,0,0,0,.88155.67607l1.89139-.2495,3.16033,23.95771-1.89139.2495a.78567.78567,0,0,0-.67608.88155l.46965,3.56026a.78566.78566,0,0,0,.88154.67608l18.82828-2.48369-5.50821,14.34663a.78558.78558,0,0,0,.83606,1.06034l3.449-.455a.78548.78548,0,0,0,.63059-.49727l5.46348-14.2301,8.96665,12.32658a.78545.78545,0,0,0,.738.31674l3.449-.455a.78559.78559,0,0,0,.5325-1.24088l-9.04007-12.42753L273.919,76.774a.78567.78567,0,0,0,.67608-.88154l-.46965-3.56027a.78566.78566,0,0,0-.88154-.67607l-1.89139.2495L268.19221,47.9479ZM243.68209,93.96857l-1.67648.22115,5.34077-13.91045,1.6764-.22114ZM262.0834,91.5412l-1.67648.22115-8.76517-12.0497,1.6764-.22114Zm10.58719-18.22474.26417,2.00265-45.61593,6.01733-.26418-2.00265ZM258.53446,70.842a.78567.78567,0,0,0-.67607.88155l.2544,1.92855-28.5934,3.77183-3.16033-23.95771,40.27553-5.31285,2.80319,21.25035Zm11.10879.11933.15167,1.14975-10.12451,1.33555-.15167-1.14974ZM223.48339,52.26084l-.26418-2.00265,45.61593-6.01733.26418,2.00265Z" transform="translate(-0.55791 44.88277)" fill="#fff"/>
    <path d="M237.06246,60.16313a6.39269,6.39269,0,0,1-1.72353,1.31044l.26234,1.98874a7.62,7.62,0,0,0,2.6119-2.03464l1.08949,8.25912,2.19151-.28909L239.9798,57.9176l-1.77818.23457A4.08017,4.08017,0,0,1,237.06246,60.16313Z" transform="translate(-0.55791 44.88277)" fill="#fff"/>
    <path d="M249.06628,64.42358a14.16681,14.16681,0,0,0,1.24265-1.64772,6.03114,6.03114,0,0,0,.68448-1.578,3.98494,3.98494,0,0,0,.08292-1.50662,3.01881,3.01881,0,0,0-1.26645-2.14193,3.75172,3.75172,0,0,0-2.77982-.56169,4.14708,4.14708,0,0,0-2.46975,1.12722,3.61127,3.61127,0,0,0-.88186,2.75857l2.21253-.0697a2.14129,2.14129,0,0,1,.28686-1.43433,1.6882,1.6882,0,0,1,2.17726-.30706,1.53825,1.53825,0,0,1,.5425,1.075,2.432,2.432,0,0,1-.27539,1.40109,15.63193,15.63193,0,0,1-1.57025,2.11146,14.68326,14.68326,0,0,0-2.10285,3.06644,5.33647,5.33647,0,0,0-.46014,2.28637l7.682-1.01336-.26851-2.03551-4.35181.57406a3.81577,3.81577,0,0,1,.36818-.66749Q248.15455,65.51189,249.06628,64.42358Z" transform="translate(-0.55791 44.88277)" fill="#fff"/>
    <path d="M258.2,60.94146a2.629,2.629,0,0,0,.2744-4.41615,3.42858,3.42858,0,0,0-2.72508-.68791,4.01635,4.01635,0,0,0-1.65727.57965,2.894,2.894,0,0,0-1.05684,1.13127,4.55367,4.55367,0,0,0-.417,1.74112l2.06519.07669a1.84782,1.84782,0,0,1,.33335-1.20245,1.33206,1.33206,0,0,1,.90781-.51648,1.19141,1.19141,0,0,1,1.42232,1.09781,1.38612,1.38612,0,0,1-.32442,1.14967,1.93735,1.93735,0,0,1-1.30609.56507l-.00619,1.81784a3.857,3.857,0,0,1,.98445-.29647,1.42948,1.42948,0,0,1,1.14784.34052,1.877,1.877,0,0,1,.61739,1.25161,2.01275,2.01275,0,0,1-.28093,1.44941,1.491,1.491,0,0,1-1.07464.66545,1.50622,1.50622,0,0,1-1.13282-.28695,2.02569,2.02569,0,0,1-.70953-1.16805l-2.08737.5372a3.53967,3.53967,0,0,0,1.49358,2.17942,4.14213,4.14213,0,0,0,5.289-.86827,3.46373,3.46373,0,0,0,.76118-2.71093,2.76193,2.76193,0,0,0-.82236-1.69268A2.68526,2.68526,0,0,0,258.2,60.94146Z" transform="translate(-0.55791 44.88277)" fill="#fff"/>
  </g>
  <g>
    <path d="M207.51522,107.23028l-8.406-21.61109a.56884.56884,0,0,0-.7364-.324l-1.57723.61349-.642-1.6506a.56887.56887,0,0,0-.73641-.324L165.4107,95.60572a.56885.56885,0,0,0-.32395.73641l8.406,21.61109a.56874.56874,0,0,0,.7364.32395l1.57723-.61349.642,1.6506a.56876.56876,0,0,0,.73641.324l30.00641-11.67156A.56874.56874,0,0,0,207.51522,107.23028Zm-33.1683,9.78031-7.99359-20.55073,28.94605-11.25911,7.99359,20.55073Zm2.95567,1.36106-.43581-1.12042,27.36882-10.64562a.56875.56875,0,0,0,.324-.7364L197.208,86.96909l1.047-.40727,7.9936,20.55072Z" transform="translate(-0.55791 44.88277)" fill="#fff"/>
    <path d="M201.51839,104.5414l-6.70953-17.24952a.56886.56886,0,0,0-.73641-.324L189.373,88.79586a.56885.56885,0,0,0-.32395.7364l6.70952,17.24952a.56875.56875,0,0,0,.73641.324l4.69944-1.82793A.56877.56877,0,0,0,201.51839,104.5414Zm-4.90567,1.29776L190.31564,89.65l3.63908-1.41549,6.29708,16.18916Z" transform="translate(-0.55791 44.88277)" fill="#fff"/>
    <path d="M189.70643,97.49937l-2.7781-7.14221a.56885.56885,0,0,0-.7364-.324l-7.14206,2.778a.56886.56886,0,0,0-.324.73641l2.7781,7.1422a.56884.56884,0,0,0,.7364.324l7.14206-2.778A.56885.56885,0,0,0,189.70643,97.49937Zm-7.34828,2.24785-2.36565-6.08184,6.0817-2.36559,2.36564,6.08184Z" transform="translate(-0.55791 44.88277)" fill="#fff"/>
    <path d="M193.63786,107.60668l-2.778-7.14206a.56886.56886,0,0,0-.7364-.324l-7.14206,2.778a.56886.56886,0,0,0-.324.73641l2.778,7.14206a.56875.56875,0,0,0,.73641.324l7.142-2.778A.56874.56874,0,0,0,193.63786,107.60668Zm-7.34828,2.24786-2.36559-6.0817,6.08169-2.36559,2.36559,6.0817Z" transform="translate(-0.55791 44.88277)" fill="#fff"/>
    <path d="M179.38329,101.51475l-2.7781-7.14221a.56885.56885,0,0,0-.7364-.324l-7.14236,2.77816a.56885.56885,0,0,0-.324.7364l2.7781,7.14221a.56885.56885,0,0,0,.7364.324l7.14236-2.77816A.56885.56885,0,0,0,179.38329,101.51475Zm-7.34858,2.248-2.36565-6.08184,6.082-2.36571,2.36565,6.08184Z" transform="translate(-0.55791 44.88277)" fill="#fff"/>
    <path d="M183.31472,111.62206l-2.778-7.14206a.56886.56886,0,0,0-.73641-.324l-7.14235,2.77815a.56885.56885,0,0,0-.324.7364l2.778,7.14206a.56876.56876,0,0,0,.73641.324l7.14235-2.77815A.56876.56876,0,0,0,183.31472,111.62206Zm-7.34858,2.248-2.36559-6.08169,6.082-2.36571,2.36559,6.0817Z" transform="translate(-0.55791 44.88277)" fill="#fff"/>
    <path d="M182.97235,93.895l.50739,1.30444-1.30445.50739a.56888.56888,0,1,0,.41245,1.06037l1.30445-.50739.50744,1.30459A.56888.56888,0,1,0,185.46,97.152l-.50744-1.30459,1.30474-.50751a.56888.56888,0,1,0-.41245-1.06036l-1.30474.50751-.50739-1.30445a.56888.56888,0,1,0-1.06036.41245Z" transform="translate(-0.55791 44.88277)" fill="#fff"/>
    <path d="M175.20638,98.59553a.56508.56508,0,0,0-.00834.43566.59482.59482,0,0,0,.04927.09954.50637.50637,0,0,0,.069.08812.56689.56689,0,0,0,.39985.1759.55354.55354,0,0,0,.21826-.0396.63308.63308,0,0,0,.09945-.04907c.02987-.02218.05949-.04409.08821-.06922a.74089.74089,0,0,0,.0708-.08681.44891.44891,0,0,0,.05721-.09549.59227.59227,0,0,0-.29224-.75134.44384.44384,0,0,0-.1067-.03173.7418.7418,0,0,0-.11091-.0163c-.03809.001-.0748.00474-.11174.00872a.63456.63456,0,0,0-.10653.03088.55346.55346,0,0,0-.18765.11829A.6391.6391,0,0,0,175.20638,98.59553Z" transform="translate(-0.55791 44.88277)" fill="#fff"/>
    <path d="M172.45314,100.664a.74322.74322,0,0,0,.0711-.08693.5577.5577,0,0,0,.054-.09422.56979.56979,0,0,0-.04093-.5352.446.446,0,0,0-.06907-.08827.34871.34871,0,0,0-.08385-.072.46155.46155,0,0,0-.09839-.05591.88936.88936,0,0,0-.10465-.03611c-.03755-.00634-.0736-.00969-.11-.01308-.0378.00091-.0748.00474-.11174.00872a.66006.66006,0,0,0-.10652.03088.56888.56888,0,1,0,.41244,1.06036.657.657,0,0,0,.09945-.04907C172.3948,100.711,172.42472,100.689,172.45314,100.664Z" transform="translate(-0.55791 44.88277)" fill="#fff"/>
    <path d="M172.64921,97.91041l1.42728,3.6694a.56888.56888,0,1,0,1.06036-.41245l-1.42728-3.6694a.56888.56888,0,0,0-1.06036.41245Z" transform="translate(-0.55791 44.88277)" fill="#fff"/>
    <path d="M176.58058,108.01758l1.42734,3.66955a.56888.56888,0,0,0,1.06036-.41245l-1.42734-3.66955a.56888.56888,0,1,0-1.06036.41245Z" transform="translate(-0.55791 44.88277)" fill="#fff"/>
    <path d="M185.825,104.60912a.56868.56868,0,0,0,.29161.74972l1.28131.56367-.56367,1.28131a.56881.56881,0,1,0,1.04132.45809l.56367-1.28131,1.28132.56367a.56881.56881,0,1,0,.45809-1.04132l-1.28131-.56367.56367-1.28131a.56882.56882,0,1,0-1.04132-.4581l-.56367,1.28131-1.28131-.56367A.56868.56868,0,0,0,185.825,104.60912Z" transform="translate(-0.55791 44.88277)" fill="#fff"/>
  </g>
</svg>
