<svg id="Layer_1" data-name="Layer 1" xmlns="http://www.w3.org/2000/svg" viewBox="0 0 343 209.966">
  <rect y="42.15227" width="343" height="121" fill="#329bd6"/>
  <path d="M185.98308,103.67226l-5.45129-3.2293a1.47894,1.47894,0,1,0-1.50755,2.54486l5.4513,3.22929a1.47893,1.47893,0,1,0,1.50754-2.54485Z" transform="translate(0 42.15227)" fill="#fff"/>
  <path d="M7.24819,93.88669a4.57821,4.57821,0,0,0,2.493,3.62391l31.58325,16.01164a4.59638,4.59638,0,0,0,6.6698-3.89525l1.63-36.76043a9.88094,9.88094,0,0,1,1.06593-4.06038l4.324-8.52924a3.25891,3.25891,0,0,0,2.94721-5.81342l-10.4157-5.2804a3.2589,3.2589,0,1,0-2.9472,5.81341l-4.324,8.52924a9.89408,9.89408,0,0,1-2.645,3.26014L8.9419,89.82847A4.57681,4.57681,0,0,0,7.24819,93.88669ZM44.861,51.47582a1.35949,1.35949,0,0,1,1.82513-.59712l10.4157,5.2804a1.35788,1.35788,0,0,1-1.228,2.42226L45.45812,53.301A1.35948,1.35948,0,0,1,44.861,51.47582ZM10.1322,91.31058,38.82011,68.2679a11.78287,11.78287,0,0,0,3.14995-3.88252l4.324-8.52925,7.02454,3.56121L52.428,61.1742l-4.1422-2.1a.95051.95051,0,1,0-.8596,1.69558l4.1422,2.1-1.38449,2.73094-4.14221-2.1a.95051.95051,0,1,0-.8596,1.69558l4.1422,2.1-.32966.65028a11.78141,11.78141,0,0,0-1.26989,4.83565l-1.62982,36.76021a2.69517,2.69517,0,0,1-3.91084,2.28422L10.6008,95.815a2.69452,2.69452,0,0,1-.4686-4.50444Z" transform="translate(0 42.15227)" fill="#fff"/>
  <path d="M13.8276,94.921l27.33249,13.85664a2.03548,2.03548,0,0,0,2.95375-1.72547l.59966-13.52784a.951.951,0,0,0-.51987-.89006c-3.01271-1.52734-4.79475-3.83991-6.6811-6.288-2.01309-2.61227-4.09447-5.31324-7.7716-7.17742a.95.95,0,0,0-1.025.10686L13.47364,91.51835a2.03558,2.03558,0,0,0,.354,3.40268Z" transform="translate(0 42.15227)" fill="#fff"/>
  <path d="M38.59972,80.81649a3.72941,3.72941,0,1,0,5.01268-1.64A3.73352,3.73352,0,0,0,38.59972,80.81649Zm4.15308.05558a1.82825,1.82825,0,1,1-2.4575.804A1.83043,1.83043,0,0,1,42.7528,80.87207Z" transform="translate(0 42.15227)" fill="#fff"/>
  <path d="M38.8218,76.52275a3.0226,3.0226,0,1,0-1.32923-4.06269A3.0262,3.0262,0,0,0,38.8218,76.52275Zm1.8739-3.69631a1.12158,1.12158,0,1,1-1.50755.49322A1.12306,1.12306,0,0,1,40.6957,72.82644Z" transform="translate(0 42.15227)" fill="#fff"/>
  <path d="M118.48556,54.92637A16.74384,16.74384,0,0,0,110.9905,44.0065,16.67795,16.67795,0,1,0,95.69768,73.52042l2.95448,6.0078a3.14891,3.14891,0,0,0,1.35169,5.70241l.35173,1.79771a3.14788,3.14788,0,0,0,1.14162,5.83489l.01847.09438a4.67572,4.67572,0,0,0,5.48049,3.68711L112.113,95.6436a4.67574,4.67574,0,0,0,3.68678-5.48072l-.01847-.09438a3.14788,3.14788,0,0,0-1.14161-5.83489l-.35173-1.79772a3.1489,3.1489,0,0,0-.8971-5.79134l.4724-6.67828A16.60561,16.60561,0,0,0,118.48556,54.92637Zm-6.11768,28.06871.28255,1.44415-10.3748,2.02987-.28255-1.44415ZM111.73054,93.689l-5.11681,1.00112a2.67772,2.67772,0,0,1-3.119-2.03416l10.35815-2.02661A2.67773,2.67773,0,0,1,111.73054,93.689Zm2.70714-5.2062-.01777.00221-.04824.01338-12.16341,2.37981c-.01634.00181-.03415.00326-.04687.00523l-.01724.00465a1.15811,1.15811,0,0,1-.46165-2.26885l.03446-.00732.04822-.01344,12.16341-2.37981c.01636-.00175.03416-.00326.04689-.00517l.03467-.00621a1.1581,1.1581,0,0,1,.42753,2.27552Zm-1.47775-7.63739c-.01958.004-.04418.01131-.06775.01766L100.705,83.24749c-.02456.00307-.05036.00545-.07058.00941a1.15965,1.15965,0,0,1-.40325-2.28364l12.24165-2.39512a1.15965,1.15965,0,0,1,.48708,2.26723ZM111.90337,69.4465l-.51735,7.31481-1.7689.3461-1.71946-8.7883a.99586.99586,0,0,0-1.95465.38243l1.71947,8.7883-3.38572.66243-1.71947-8.7883a.99585.99585,0,1,0-1.95464.38243l1.71946,8.7883-1.76895.3461-3.236-6.58046a.9959.9959,0,0,0-.53124-.48832,14.68522,14.68522,0,0,1,1.59385-27.88749A14.68574,14.68574,0,0,1,112.2114,68.794.99587.99587,0,0,0,111.90337,69.4465Z" transform="translate(0 42.15227)" fill="#fff"/>
  <path d="M99.14128,37.73468,98.53755,34.649a.99585.99585,0,0,0-1.95464.38243l.60373,3.08572a.99585.99585,0,1,0,1.95464-.38244Z" transform="translate(0 42.15227)" fill="#fff"/>
  <path d="M84.17234,46.377a.99558.99558,0,0,0-.27039-1.382l-2.60877-1.75523a.99574.99574,0,0,0-1.11159,1.65238L82.7903,46.6474a.99554.99554,0,0,0,1.382-.2704Z" transform="translate(0 42.15227)" fill="#fff"/>
  <path d="M78.16275,62.80662a.99585.99585,0,0,0,.38243,1.95464l3.08549-.60368a.99586.99586,0,0,0-.38243-1.95465Z" transform="translate(0 42.15227)" fill="#fff"/>
  <path d="M117.4458,37.60129a.99574.99574,0,0,0-1.65238-1.1116l-1.75489,2.609a.99576.99576,0,1,0,1.65243,1.11159Z" transform="translate(0 42.15227)" fill="#fff"/>
  <path d="M122.98188,54.0376a.99585.99585,0,1,0,.38243,1.95464l3.08549-.60368a.99586.99586,0,0,0-.38243-1.95465Z" transform="translate(0 42.15227)" fill="#fff"/>
  <path d="M114.74761,58.64358a3.81265,3.81265,0,0,0-2.44879-2.91729,5.25593,5.25593,0,0,0-.08324-.62073,5.4345,5.4345,0,0,0-4.67752-4.35837,4.49909,4.49909,0,0,0-8.07932-.61352,5.281,5.281,0,0,0-6.21658,5.27808,4.13989,4.13989,0,0,0-1.6445.89533,4.49432,4.49432,0,0,0-1.53752,4.24367,4.41475,4.41475,0,0,0,5.15537,3.43193c.12409-.02428,11.0581-2.12616,11.06139-2.1268a.31167.31167,0,0,1,.3603.38874l-.19533.7149a2.21969,2.21969,0,0,0,4.12462,1.58314l.4207-.83652a1.34118,1.34118,0,0,1,.88963-.648,3.659,3.659,0,0,0,1.4427-.746A3.91224,3.91224,0,0,0,114.74761,58.64358Zm-2.69725,2.13367a1.65933,1.65933,0,0,1-.65831.3485,3.31465,3.31465,0,0,0-2.18386,1.6855l-.42069.83657a.22846.22846,0,0,1-.42439-.16328l.19539-.71492a2.30346,2.30346,0,0,0-2.66073-2.869s-10.982,2.11127-11.06413,2.12734a2.41689,2.41689,0,0,1-2.82249-1.87815,2.47323,2.47323,0,0,1,.89718-2.34318,2.091,2.091,0,0,1,.99834-.50787,2.414,2.414,0,0,1,.44516-.04291.99621.99621,0,0,0,.96321-1.21113c-.00322-.01526-.01575-.06036-.0198-.07539a3.29027,3.29027,0,0,1,4.375-3.72125.99557.99557,0,0,0,1.29262-.62609,2.50822,2.50822,0,0,1,4.84637.27828.99593.99593,0,0,0,.99593.79952,3.43992,3.43992,0,0,1,3.50584,3.72689.99553.99553,0,0,0,.872,1.06666,1.84107,1.84107,0,0,1,1.604,1.50221A1.92255,1.92255,0,0,1,112.05036,60.77725Z" transform="translate(0 42.15227)" fill="#fff"/>
  <path d="M96.95586,55.92921a.99585.99585,0,1,0,.38243,1.95464,1.37372,1.37372,0,0,1,1.61,1.08308.99585.99585,0,0,0,1.95464-.38243A3.36746,3.36746,0,0,0,96.95586,55.92921Z" transform="translate(0 42.15227)" fill="#fff"/>
  <path d="M246.13617,93.45279a4.57821,4.57821,0,0,0,4.39761-.0936l30.72444-17.6035a4.59637,4.59637,0,0,0,.407-7.7132L251.83779,46.49465a9.88082,9.88082,0,0,1-2.80814-3.12046l-4.75393-8.29731a3.2589,3.2589,0,1,0-3.24021-5.65534L230.903,35.22692a3.2589,3.2589,0,1,0,3.24021,5.65533l4.75393,8.29732a9.89421,9.89421,0,0,1,1.27224,4.00076l3.50512,36.62852A4.57681,4.57681,0,0,0,246.13617,93.45279ZM231.345,38.72963a1.35949,1.35949,0,0,1,.50315-1.85324L241.98058,31.071a1.35787,1.35787,0,0,1,1.35008,2.35639l-10.13247,5.80538A1.35949,1.35949,0,0,1,231.345,38.72963Zm14.22187,50.89828-3.505-36.6289a11.78281,11.78281,0,0,0-1.51515-4.7645l-4.75393-8.29732,6.83353-3.91525.97922,1.70909-4.02957,2.30873a.95051.95051,0,1,0,.94506,1.64947l4.02957-2.30873,1.52214,2.65669-4.02957,2.30873a.95051.95051,0,0,0,.94506,1.64947l4.02957-2.30873.36245.6326a11.78139,11.78139,0,0,0,3.34408,3.71661l29.82736,21.54759a2.69516,2.69516,0,0,1-.23846,4.52276L249.58872,91.70971a2.69452,2.69452,0,0,1-4.0219-2.0818Z" transform="translate(0 42.15227)" fill="#fff"/>
  <path d="M250.36029,88.70809l26.58926-15.23426a2.03547,2.03547,0,0,0,.17988-3.41607L266.15284,62.1283a.951.951,0,0,0-1.02934-.05426c-2.93079,1.67919-5.84206,1.89867-8.92386,2.13091-3.28861.248-6.68886.50438-10.266,2.55389a.95007.95007,0,0,0-.47352.91532l1.862,19.46129a2.03559,2.03559,0,0,0,3.03815,1.57264Z" transform="translate(0 42.15227)" fill="#fff"/>
  <path d="M252.42825,60.07378a3.72941,3.72941,0,1,0,1.38189-5.08988A3.73351,3.73351,0,0,0,252.42825,60.07378Zm2.327-3.44041a1.82824,1.82824,0,1,1-.67748,2.49535A1.83042,1.83042,0,0,1,254.7552,56.63337Z" transform="translate(0 42.15227)" fill="#fff"/>
  <path d="M248.9617,57.53044a3.02261,3.02261,0,1,0-4.12528-1.12A3.02621,3.02621,0,0,0,248.9617,57.53044Zm-2.0602-3.59581a1.12158,1.12158,0,1,1-.41561,1.53078A1.12305,1.12305,0,0,1,246.9015,53.93463Z" transform="translate(0 42.15227)" fill="#fff"/>
  <path d="M94.61982-13.02043l4.23574,3.54185L95.493,2.13774A3.01143,3.01143,0,0,0,92.80189,6.041l-.82312,1.63343q-1.23964,2.459-2.44526,4.85559a1.03177,1.03177,0,0,0,.29062,1.27906,8.7468,8.7468,0,0,0,6.2087,1.79724,1.03167,1.03167,0,0,0,.92888-.926q.26217-2.67.52668-5.411L97.665,7.44875a3.01143,3.01143,0,0,0-.18988-4.73723l3.11-10.74387,3.67738,3.07491L100.43472,8.26615c-.50942,1.75984-.13487,4.53175,4.54225,7.74262a43.42219,43.42219,0,0,0,12.09058,5.3571c9.38053,2.71539,19.52992,3.09151,21.05852-2.18914l3.82786-13.22359,12.45879-1.66521a1.03167,1.03167,0,0,0,.52511-1.814l-25.73878-21.522a1.02976,1.02976,0,0,0-.79865-.23119L95.14493-14.83447a1.0318,1.0318,0,0,0-.85431.73569A1.0318,1.0318,0,0,0,94.61982-13.02043ZM96.62425,5.42008a.96757.96757,0,1,1-.66036-1.19852A.96878.96878,0,0,1,96.62425,5.42008Zm-4.84116,7.23008q1.00671-2.00229,2.03823-4.047l.40631-.80608a2.8253,2.8253,0,0,0,1.29408.3746l-.08712.89848q-.22105,2.27952-.43873,4.51A6.68888,6.68888,0,0,1,91.78309,12.65016Zm47.93607-6.39825-3.57527,12.351c-.9344,3.228-8.88892,3.56362-18.50255.78074S101.4825,12.06789,102.4169,8.83993l3.57528-12.351L120.3586,8.50162a1.0298,1.0298,0,0,0,.79865.23118ZM128.2237-17.17381l23.59221,19.727L121.334,6.62727,103.70788-8.111l20.88363,3.85233a1.03145,1.03145,0,0,0,1.20184-.82727,1.03575,1.03575,0,0,0-.82721-1.20183L100.488-10.80341l-2.74624-2.29636Z" transform="translate(0 42.15227)" fill="#fff"/>
  <path d="M209.38676,141.48436l-5.77919-3.41868,1.46936-2.4839a.91264.91264,0,0,0-.32085-1.2502l-12.8287-7.58883,1.38845-2.34714,3.08466,1.82473a8.13617,8.13617,0,0,0,11.13259-2.8572l4.58193-7.74562a8.17387,8.17387,0,0,0,.84567-6.27813l-1.42945-5.2352,8.57574-2.20091a.91234.91234,0,0,0,.65708-1.11078l-.58334-2.27311,4.42035-1.13426a.91232.91232,0,0,0,.65708-1.11077l-1.264-4.92544a.91234.91234,0,0,0-1.11078-.65708l-4.4202,1.13438-.58332-2.27314A.91234.91234,0,0,0,216.769,88.896l-19.95486,5.12094-5.738-1.128a.91257.91257,0,0,0-1.05989,1.1225l4.18092,16.29126a.91257.91257,0,0,0,1.46945.47338l4.48507-3.75141,9.611-2.46661,1.43684,5.26172a6.33672,6.33672,0,0,1-.65553,4.86836l-4.58193,7.74562a6.30894,6.30894,0,0,1-8.6322,2.21551l-14.48544-8.56888a6.30586,6.30586,0,0,1-2.61634-7.8092l5.93069,3.50831a.91279.91279,0,0,0,1.25019-.32085l1.9339-3.2692a.9128.9128,0,0,0-.32084-1.2502l-13.55965-8.02122a.9128.9128,0,0,0-1.2502.32084l-1.9339,3.2692a.9128.9128,0,0,0,.32085,1.2502l6.04151,3.57386a8.13634,8.13634,0,0,0,3.27444,10.3193l2.60729,1.54235-1.38845,2.34714-12.82848-7.5887a.91279.91279,0,0,0-1.2502.32084l-1.46935,2.4839-5.77919-3.41868a.91267.91267,0,0,0-.92935,1.571l47.58009,28.146a.91267.91267,0,0,0,.92935-1.571Zm13.0662-48.7976.81048,3.15736-3.53638.9074-.81026-3.15742Zm-6.1143-1.79584,2.43069,9.47135L200.382,105.08112l-2.43055-9.47156Zm-20.73314,17.55666-3.46161-13.48844,3.95552.7777,2.59814,10.12457Zm-20.287-7.49381,11.98861,7.09188-1.00455,1.69816L174.314,102.65194Zm10.77486,19.16939,5.65141,3.3431-1.38845,2.34714-5.65141-3.3431Zm-15.9318-4.1352,32.87963,19.45-1.00468,1.69838-32.87963-19.45Z" transform="translate(0 42.15227)" fill="#fff"/>
  <path d="M193.259-23.53154a6.057,6.057,0,0,0,3.6962-.49314,6.05161,6.05161,0,0,0,3.10654-3.45407c1.00329-2.84295-1.451-9.04657-1.95341-10.26118a1.09234,1.09234,0,0,0-.64677-.61368,1.09455,1.09455,0,0,0-.88882.07154c-1.15336.63049-6.95792,3.91909-7.96107,6.76231a6.081,6.081,0,0,0,2.59713,7.22445L189.45369-19.605a8.25079,8.25079,0,0,0-.31466,3.5132,11.72438,11.72438,0,0,0-2.9534-1.60226l-.37559-.15715a7.66414,7.66414,0,0,0-4.84743-9.181c-3.70674-1.30813-12.314,2.16922-13.28293,2.56975a1.10158,1.10158,0,0,0-.61356.647,1.09236,1.09236,0,0,0,.07182.88869c.50255.92052,5.021,9.02908,8.72765,10.33693a7.63392,7.63392,0,0,0,5.85121-.31613,7.65185,7.65185,0,0,0,3.24221-2.93053l.426.17821a9.638,9.638,0,0,1,5.12484,4.413L180.24274-6.33454a1.09394,1.09394,0,0,0-.51486,1.45893l2.29246,4.79292a1.09392,1.09392,0,0,0,1.45892.51486l1.90329-.91035,12.41888,25.96456a10.39271,10.39271,0,1,0,18.75094-8.96859L204.1335-9.44677l1.90329-.91034a1.09394,1.09394,0,0,0,.51486-1.45893L204.25919-16.609a1.09392,1.09392,0,0,0-1.45892-.51486L192.52251-12.208c-1.20893-2.70944-1.5619-5.0183-1.00741-6.66388Zm-2.4255-4.2923a3.85916,3.85916,0,0,1-.15882-2.96788c.485-1.37425,3.50914-3.539,5.865-4.94907.98456,2.67816,1.92232,6.22053,1.459,7.534a3.87836,3.87836,0,0,1-3.94975,2.56428l1.52156-4.06572a1.09431,1.09431,0,0,0-.64105-1.40817,1.09485,1.09485,0,0,0-1.40817.641l-1.52477,4.07483A3.86441,3.86441,0,0,1,190.83345-27.82384Zm-14.23981,13.171c-1.96695-.69414-5.04449-5.04727-6.92243-8.24349,3.46833-1.30972,8.59655-2.76677,10.56336-2.07291a5.47577,5.47577,0,0,1,3.53089,6.2626l-5.71079-2.38927a1.09427,1.09427,0,0,0-1.43139.58685,1.09441,1.09441,0,0,0,.58726,1.43153l5.69313,2.38135A5.476,5.476,0,0,1,176.59364-14.65286ZM193.77113-4.49044l5.321,11.12473a10.25791,10.25791,0,0,1-7.36124,1.08943l-4.37452-9.146Zm16.946,32.89422a8.21394,8.21394,0,0,1-10.94192-3.86146l-6.91719-14.462A11.745,11.745,0,0,0,200.04715,8.631l5.18365,10.83764a1.094,1.094,0,1,0,1.97378-.94406L201.8632,7.35719A12.238,12.238,0,0,1,208.70656,5.185l5.872,12.27684A8.21394,8.21394,0,0,1,210.71713,28.40378ZM207.68344,3.04594a14.62436,14.62436,0,0,0-6.77371,2.31782L195.74492-5.4345l6.41479-3.06821Zm-3.57761-14.90481L183.52209-2.01364l-1.3484-2.81914L202.75744-14.678Z" transform="translate(0 42.15227)" fill="#fff"/>
  <g>
    <path d="M49.36625,6.43209a16.3873,16.3873,0,0,0,1.49-13.27024,16.22579,16.22579,0,0,0-8.94007-9.98407A16.4357,16.4357,0,0,0,22.36649-11.939,16.30147,16.30147,0,0,0,18.906-1.88927a25.74071,25.74071,0,0,1-3.416,13.07379l-1.78474,3.03113a1.0985,1.0985,0,0,0,.38925,1.504l16.06371,9.45839a1.09849,1.09849,0,0,0,1.504-.38925l1.786-3.03324a24.30627,24.30627,0,0,1,9.509-9.18317A16.31923,16.31923,0,0,0,49.36625,6.43209ZM31.55488,20.6408l-1.2286,2.08661L16.15584,14.38378l1.22736-2.08449A27.93362,27.93362,0,0,0,21.10267-1.88915,14.1236,14.1236,0,0,1,24.105-10.59526a14.217,14.217,0,0,1,16.91085-4.22308A14.0504,14.0504,0,0,1,48.7627-6.1714,14.18731,14.18731,0,0,1,47.473,5.31733a14.11982,14.11982,0,0,1-5.54562,5.31415A26.50262,26.50262,0,0,0,31.55488,20.6408Z" transform="translate(0 42.15227)" fill="#fff"/>
    <path d="M45.34537-18.98538a1.0985,1.0985,0,0,0,1.504-.38926l4.03511-6.853a1.0985,1.0985,0,0,0-.38925-1.504,1.09849,1.09849,0,0,0-1.504.38925L44.95612-20.4894A1.0985,1.0985,0,0,0,45.34537-18.98538Z" transform="translate(0 42.15227)" fill="#fff"/>
    <path d="M60.74045,11.85445,53.88766,7.8195A1.09854,1.09854,0,1,0,52.7729,9.71276l6.85279,4.035a1.09854,1.09854,0,0,0,1.11476-1.89327Z" transform="translate(0 42.15227)" fill="#fff"/>
    <path d="M41.58289,18.148a1.09843,1.09843,0,0,0-2.12678.55043l.99611,3.84969A1.09842,1.09842,0,1,0,42.579,21.9977Z" transform="translate(0 42.15227)" fill="#fff"/>
    <path d="M59.13448-9.181l-3.84958.99652a1.09813,1.09813,0,0,0-.78817,1.3386,1.09491,1.09491,0,0,0,.506.67142,1.09446,1.09446,0,0,0,.83259.11676l3.84958-.99653a1.09814,1.09814,0,0,0,.78818-1.3386A1.09814,1.09814,0,0,0,59.13448-9.181Z" transform="translate(0 42.15227)" fill="#fff"/>
    <path d="M28.95189-21.88679a1.09443,1.09443,0,0,0,.506.67142,1.095,1.095,0,0,0,.83259.11675,1.09813,1.09813,0,0,0,.78817-1.3386l-.9961-3.84968a1.09814,1.09814,0,0,0-1.3386-.78818,1.09814,1.09814,0,0,0-.78817,1.3386Z" transform="translate(0 42.15227)" fill="#fff"/>
    <path d="M14.69945,2.31892l-3.84958.99652a1.09842,1.09842,0,1,0,.55043,2.12677l3.84958-.99652a1.09842,1.09842,0,0,0-.55043-2.12677Z" transform="translate(0 42.15227)" fill="#fff"/>
    <path d="M17.76188-13.45154l-6.85279-4.035a1.09851,1.09851,0,0,0-1.504.38925,1.0985,1.0985,0,0,0,.38925,1.504l6.85279,4.035a1.09849,1.09849,0,0,0,1.504-.38925A1.09849,1.09849,0,0,0,17.76188-13.45154Z" transform="translate(0 42.15227)" fill="#fff"/>
    <path d="M29.04432,27.06974,12.98061,17.61135a1.09854,1.09854,0,0,0-1.11477,1.89327L27.92955,28.963a1.09854,1.09854,0,1,0,1.11477-1.89327Z" transform="translate(0 42.15227)" fill="#fff"/>
    <path d="M27.146,30.29368,11.08233,20.83529a1.09854,1.09854,0,0,0-1.11476,1.89327l5.06385,2.98162L14.363,26.8454a3.37783,3.37783,0,0,0,1.19556,4.61947l.121.07123A3.37783,3.37783,0,0,0,20.299,30.34055l.66843-1.13522L26.03128,32.187A1.09854,1.09854,0,1,0,27.146,30.29368Zm-8.7403-1.0679a1.17831,1.17831,0,0,1-1.61145.41706l-.121-.07123a1.1783,1.1783,0,0,1-.417-1.61145l.66842-1.13522,2.14947,1.26562Z" transform="translate(0 42.15227)" fill="#fff"/>
    <path d="M41.15723-11.87243a4.03265,4.03265,0,0,0-3.18956-.40472,4.03506,4.03506,0,0,0-2.48941,2.035L26.79781,6.45462A3.07918,3.07918,0,0,0,32.09726,9.575L42.48662-6.11559a4.0351,4.0351,0,0,0,.57184-3.16408A4.03265,4.03265,0,0,0,41.15723-11.87243ZM30.26511,8.36244a.88214.88214,0,0,1-1.5182-.89392L37.42736-9.22825a1.85892,1.85892,0,0,1,1.14675-.93753,1.85875,1.85875,0,0,1,1.46835.18662A1.85876,1.85876,0,0,1,40.918-8.78569a1.85892,1.85892,0,0,1-.26351,1.45758Z" transform="translate(0 42.15227)" fill="#fff"/>
    <path d="M27.47492,11.365a3.05194,3.05194,0,1,0,1.0813,4.178A3.055,3.055,0,0,0,27.47492,11.365Zm-1.98225,3.36657a.85487.85487,0,1,1,1.17029-.30333A.856.856,0,0,1,25.49267,14.73156Z" transform="translate(0 42.15227)" fill="#fff"/>
  </g>
  <path d="M109.3074,137.24187c8.18649,2.347,13.208-1.14578,14.63277-2.35423l.23794-.22318a13.81973,13.81973,0,0,0,3.364-6.422,18.13366,18.13366,0,0,0-.02074-7.98763,17.99,17.99,0,0,0,12.41721-.502,2.64737,2.64737,0,0,0,1.08906-3.98918,2.66627,2.66627,0,0,0-1.00557-.83065l-15.429-16.54085a2.648,2.648,0,0,0-4.81952-.25747,17.883,17.883,0,0,0-1.3663,12.35753c-8.18676-2.34668-13.20815,1.14613-14.63273,2.35442l-.23795.22318a13.82,13.82,0,0,0-3.36405,6.422,18.13384,18.13384,0,0,0,.02074,7.98767,17.99338,17.99338,0,0,0-12.4172.50192,2.64738,2.64738,0,0,0-1.08907,3.98918,2.75775,2.75775,0,0,0,.20805.25206,2.62116,2.62116,0,0,0,.79261.57333l15.44422,16.55714a2.622,2.622,0,0,0,.517.83069,2.75083,2.75083,0,0,0,.2367.22473,2.6473,2.6473,0,0,0,4.0555-.809A17.883,17.883,0,0,0,109.3074,137.24187Zm30.57923-19.64649a1.03239,1.03239,0,0,1-.58867.67772,16.57693,16.57693,0,0,1-12.251.127q-.38334-1.28631-.92629-2.60876c5.73308,2.61473,10.12124,1.54607,12.35021.58449a1.0451,1.0451,0,0,1,.74719-.03178c.00983.00445.02023.00686.03022.01089a1.01692,1.01692,0,0,1,.47574.35833A1.03151,1.03151,0,0,1,139.88663,117.59538Zm-5.33145-1.85452L123.40212,103.7841a11.45385,11.45385,0,0,1,1.0537-3.17479l13.3397,14.301A11.45241,11.45241,0,0,1,134.55518,115.74086Zm-2.1626.04585a16.792,16.792,0,0,1-7.3416-2.36078,16.79074,16.79074,0,0,1-1.84487-7.48767Zm-11.1873-16.91006a1.03414,1.03414,0,0,1,1.586-.31639,1.0165,1.0165,0,0,1,.30813.44677.79462.79462,0,0,0,.02437.08587,1.046,1.046,0,0,1-.08291.74029c-1.24558,2.411-2.81517,7.50189.65745,14.5093,2.45464,4.95228,3.21959,9.50482,2.27376,13.53146a12.16539,12.16539,0,0,1-2.92132,5.638l-.18167.1707c-1.2905,1.09349-6.07714,4.39767-14.0678,1.71216a25.35894,25.35894,0,0,0-.99741-2.60259c5.91448,2.50621,10.01139,1.37348,12.02956.3869a6.7763,6.7763,0,0,0,2.89854-2.70372c1.27572-2.20708,2.84364-6.91068-.39661-14.15735-.00895-.02023-.01633-.04092-.02693-.06037-.14716-.327-.30045-.65733-.46766-.99471C117.95878,107.42944,119.77637,101.634,121.20528,98.87665Zm-.229,18.35158a20.99007,20.99007,0,0,1,1.36311,4.23529l-5.49537-5.89138A20.96681,20.96681,0,0,1,120.9763,117.22823Zm-6.79054-2.14162,8.45482,9.06408a11.30316,11.30316,0,0,1-.60062,3.97188l-11.85922-12.71381A11.33844,11.33844,0,0,1,114.18576,115.08661Zm-7.783,2.94134a5.17063,5.17063,0,0,1,2.14742-2.00292l12.76171,13.68134a5.17059,5.17059,0,0,1-2.14741,2.00291Zm11.13113,14.29754a11.3393,11.3393,0,0,1-4.00512.322l-8.45466-9.06391a11.30308,11.30308,0,0,1,.60062-3.97188Zm-6.66353-.16363a20.96343,20.96343,0,0,1-4.132-1.65588,20.98892,20.98892,0,0,1-1.36306-4.23519Zm-23.0423-2.02293a1.03236,1.03236,0,0,1,.58867-.67771,16.58116,16.58116,0,0,1,12.251-.127q.38334,1.28626.92629,2.60872c-5.73308-2.61473-10.12124-1.54607-12.35022-.58449a1.047,1.047,0,0,1-.73651.03617.79345.79345,0,0,0-.11909-.04394,1.01673,1.01673,0,0,1-.39754-.32967A1.03148,1.03148,0,0,1,87.82809,130.13893Zm5.33144,1.85452,11.15306,11.95676a11.45319,11.45319,0,0,1-1.0537,3.17479L89.9192,132.824A11.45242,11.45242,0,0,1,93.15953,131.99345Zm2.16261-.04585a16.79207,16.79207,0,0,1,7.34159,2.36078,16.79091,16.79091,0,0,1,1.84488,7.48768Zm10.47033,17.45024a1.03151,1.03151,0,0,1-.869-.2238,1.00575,1.00575,0,0,1-.3256-.50495l-.007-.02454a1.04791,1.04791,0,0,1,.083-.74343c1.24557-2.411,2.81517-7.50189-.65746-14.5093a28.14559,28.14559,0,0,1-1.89885-4.85887l-.00618-.02242a17.20963,17.20963,0,0,1-.36872-8.65017,12.16546,12.16546,0,0,1,2.92131-5.638l.18168-.1707c1.29029-1.0933,6.07719-4.39748,14.06787-1.712a25.36636,25.36636,0,0,0,.99754,2.6029c-5.91454-2.50615-10.0114-1.37432-12.02976-.3874a6.77622,6.77622,0,0,0-2.89854,2.70371c-1.33672,2.31263-2.99854,7.364.89119,15.21243,3.882,7.8335,2.06438,13.62892.63548,16.38629A1.03242,1.03242,0,0,1,105.79247,149.39784Z" transform="translate(0 42.15227)" fill="#fff"/>
  <path d="M161.96435,63.64938a8.68532,8.68532,0,0,1-.89314-.04482.599.599,0,0,0-.70306.57263.73485.73485,0,0,0,.39813.62828.80192.80192,0,0,0,.29993.09486,9.79228,9.79228,0,0,0,1.1313.05172.58237.58237,0,0,0,.5743-.68721A.78873.78873,0,0,0,161.96435,63.64938Z" transform="translate(0 42.15227)" fill="#fff"/>
  <path d="M191.96144,68.24343a6.41007,6.41007,0,0,0,1.33182-1.68654,6.52209,6.52209,0,0,0-2.18837-8.60651,5.595,5.595,0,0,0-8.19887-6.58821,5.595,5.595,0,0,0-9.9667-3.36034,6.522,6.522,0,0,0-8.43032,2.79108,6.41,6.41,0,0,0-.70387,2.03044,7.16,7.16,0,0,0-5.865,11.21086,5.52785,5.52785,0,0,0-.61507.89977,5.6104,5.6104,0,0,0,2.22329,7.60688q.14784.081.30382.15332a5.59915,5.59915,0,0,0,8.48055,5.27815,5.59911,5.59911,0,0,0,9.01446,4.30316q.14515.09255.29281.17343a5.61036,5.61036,0,0,0,7.60688-2.22329,5.5303,5.5303,0,0,0,.4269-1.00282,7.16,7.16,0,0,0,6.28769-10.97938Zm-28.48419,8.51615a4.05658,4.05658,0,0,1-2.03648-4.39706l.00037-.00929.00414-.01492a3.73488,3.73488,0,0,1,3.142-3.15485.76279.76279,0,0,0-.066-1.52415,5.13574,5.13574,0,0,0-4.32924,3.4886,4.06891,4.06891,0,0,1-.73368-6.50159.76267.76267,0,0,0,.06526-1.047,5.63053,5.63053,0,0,1,4.21825-9.24569,3.75936,3.75936,0,0,0,1.9943,2.91679,4.79764,4.79764,0,0,0,.947.39052.76278.76278,0,0,0,.43157-1.46325,2.34045,2.34045,0,0,1-1.87027-2.5118c.00051-.00519-.00048-.01011-.00015-.01524l.002-.01288a4.93707,4.93707,0,0,1,.60079-2.132,4.99379,4.99379,0,0,1,6.7708-1.97895c.02577.01411.04953.03006.07376.04526l.091.05709a.77168.77168,0,0,0,1.045-.259,4.07535,4.07535,0,0,1,7.05983,4.06975l-.37589.68635c-.01746-.04678-.02916-.096-.04851-.14181a2.93984,2.93984,0,0,0-1.94578-1.74116,4.1652,4.1652,0,0,0-2.19114.10261c-.8404.207-1.22419.30164-1.74958-.38551a.76289.76289,0,0,0-1.21163.92735,2.76626,2.76626,0,0,0,3.32583.93959,2.79033,2.79033,0,0,1,1.41985-.114,1.44253,1.44253,0,0,1,.94717.86526,3.48,3.48,0,0,1-.38715,2.90911L174.391,65.32218a4.84938,4.84938,0,0,0-2.40954-3.16388.7628.7628,0,0,0-.73281,1.33808c1.84658,1.01129,2.31773,3.33151,1.12059,5.51743l-3.35612,6.12811A4.08288,4.08288,0,0,1,163.47725,76.75958Zm21.71056.895a.76243.76243,0,0,0-.847.61789,4.06977,4.06977,0,0,1-5.87376,2.884,5.13573,5.13573,0,0,0,.608-5.52659.76279.76279,0,1,0-1.31981.76518,3.73488,3.73488,0,0,1-.96616,4.34647l-.00767.00857-.01026.0083a4.07861,4.07861,0,0,1-6.41994-4.88361l2.13871-3.90519a4.29392,4.29392,0,0,1,5.46593-1.919.76289.76289,0,1,0,.62848-1.39034,5.80232,5.80232,0,0,0-4.194-.16074l4.69546-8.57368a3.47936,3.47936,0,0,1,2.24268-1.89291,1.4382,1.4382,0,0,1,1.23916.3321,8.62586,8.62586,0,0,1,.70136.73452,3.5443,3.5443,0,0,0,3.97027,1.40753.76275.76275,0,1,0-.28914-1.49784,2.11494,2.11494,0,0,1-2.536-.91762,9.81629,9.81629,0,0,0-.82713-.86114,2.93782,2.93782,0,0,0-2.5146-.70161c-.049.00833-.09683.025-.14562.0355l1.29885-2.37164a4.07532,4.07532,0,0,1,7.23115,3.75684.76387.76387,0,0,0,.34456,1.02l.09714.04595c.02582.0122.05245.02385.07783.03775a4.99383,4.99383,0,0,1,1.97894,6.77084,4.93716,4.93716,0,0,1-1.47294,1.65439l-.00985.00872-.01286.008a2.34023,2.34023,0,0,1-3.12366-.22316.76278.76278,0,1,0-1.00051,1.15165,4.79633,4.79633,0,0,0,.83871.58745,3.76037,3.76037,0,0,0,3.53208.10989,5.63064,5.63064,0,0,1-5.51835,8.53358Z" transform="translate(0 42.15227)" fill="#fff"/>
  <path d="M184.44931,76.12025a8.73909,8.73909,0,0,1-.52125-.8232.763.763,0,1,0-1.37042.67147,9.81574,9.81574,0,0,0,.65615,1.04656.76276.76276,0,1,0,1.23552-.89483Z" transform="translate(0 42.15227)" fill="#fff"/>
  <path d="M185.97263,43.73065l-1.56949,2.86581a.7628.7628,0,1,0,1.33807.73281l1.56949-2.86581a.7628.7628,0,0,0-1.33807-.73281Z" transform="translate(0 42.15227)" fill="#fff"/>
  <path d="M167.62068,44.08489a.7628.7628,0,0,0,1.0985-.883l-.91669-3.13638a.76271.76271,0,1,0-1.46417.42794l.91668,3.13638A.76.76,0,0,0,167.62068,44.08489Z" transform="translate(0 42.15227)" fill="#fff"/>
  <path d="M155.28816,55.34369l-2.86581-1.56949a.7628.7628,0,0,0-.73281,1.33807l2.86581,1.56949a.7628.7628,0,0,0,.73281-1.33807Z" transform="translate(0 42.15227)" fill="#fff"/>
  <path d="M200.18433,57.79974l-3.13638.91668a.76271.76271,0,1,0,.42794,1.46417l3.13638-.91668a.76271.76271,0,1,0-.42794-1.46417Z" transform="translate(0 42.15227)" fill="#fff"/>
  <path d="M196.91628,78.14173l-2.86581-1.56948a.7628.7628,0,1,0-.73281,1.33807l2.86581,1.56949a.7628.7628,0,0,0,.73281-1.33808Z" transform="translate(0 42.15227)" fill="#fff"/>
  <path d="M139.83487,35.54846l-1.56948,2.86581c-.20243.36961.50126,1.14422,1.57236,1.73082s2.10276.76237,2.30518.39275l1.56949-2.86581c.20242-.36961-.5013-1.14424-1.57237-1.73082S140.0373,35.17884,139.83487,35.54846Z" transform="translate(0 42.15227)" fill="#fff" stroke="#fff" stroke-miterlimit="10" stroke-width="0.25"/>
  <path d="M174.14476,18.61872l-4.33323.67535c-.55887.0871-.772,1.695-.47624,3.59275.29576,1.89771.9881,3.36452,1.547,3.27742l4.33323-.67534c.55887-.08711.772-1.695.47624-3.59275C175.396,19.99838,174.70363,18.53162,174.14476,18.61872Z" transform="translate(0 42.15227)" fill="#fff"/>
  <path d="M139.42275,77.83585,136.997,79.06642c-.31285.15871.10916,1.61874.943,3.26238s1.76271,2.84654,2.07556,2.68783l2.42571-1.23056c.31285-.15871-.10918-1.61879-.943-3.26239S139.7356,77.67714,139.42275,77.83585Z" transform="translate(0 42.15227)" fill="#fff"/>
  <path d="M219.62479,54.19147l-2.524-.88647c-.32553-.11434-1.191,1.50636-1.93382,3.62138-.74281,2.115-1.08086,3.921-.75533,4.0353l2.524.88647c.32553.11433,1.191-1.50642,1.93382-3.62139C219.6123,56.11174,219.95033,54.3058,219.62479,54.19147Z" transform="translate(0 42.15227)" fill="#fff" stroke="#fff" stroke-miterlimit="10" stroke-width="0.25"/>
  <g>
    <path d="M237.67745.03774a16.38737,16.38737,0,0,0,9.22661,9.65343,16.22579,16.22579,0,0,0,13.394-.45685,16.43573,16.43573,0,0,0,8.79036-18.13188,16.30144,16.30144,0,0,0-5.49185-9.10014A25.7408,25.7408,0,0,1,255.75581-29.003l-1.1812-3.31328a1.09849,1.09849,0,0,0-1.40364-.66585l-17.559,6.25988a1.09849,1.09849,0,0,0-.66586,1.40364l1.182,3.31559a24.30616,24.30616,0,0,1,.948,13.18532A16.31947,16.31947,0,0,0,237.67745.03774Zm.52021-22.77854-.81314-2.28084L252.874-30.54373l.81231,2.27853a27.9335,27.9335,0,0,0,8.50136,11.953,14.12357,14.12357,0,0,1,4.75473,7.88688,14.21694,14.21694,0,0,1-7.60458,15.68379,14.05036,14.05036,0,0,1-11.60277.39882A14.18725,14.18725,0,0,1,239.747-.7a14.11989,14.11989,0,0,1-.5211-7.66307A26.50247,26.50247,0,0,0,238.19766-22.7408Z" transform="translate(0 42.15227)" fill="#fff"/>
    <path d="M259.75864,13.25275a1.0985,1.0985,0,0,0-.66585,1.40365l2.67057,7.491a1.09854,1.09854,0,1,0,2.0695-.73779l-2.67057-7.491A1.09851,1.09851,0,0,0,259.75864,13.25275Z" transform="translate(0 42.15227)" fill="#fff"/>
    <path d="M226.22266,5.2877l7.49067-2.67047a1.09854,1.09854,0,1,0-.73778-2.0695L225.48487,3.2182a1.09854,1.09854,0,0,0,.73779,2.0695Z" transform="translate(0 42.15227)" fill="#fff"/>
    <path d="M233.6794-13.44778a1.09814,1.09814,0,0,0,1.4632-.52164,1.09814,1.09814,0,0,0-.52164-1.4632l-3.59263-1.7045a1.09439,1.09439,0,0,0-.83967-.04233,1.09494,1.09494,0,0,0-.62353.564,1.09814,1.09814,0,0,0,.52164,1.4632Z" transform="translate(0 42.15227)" fill="#fff"/>
    <path d="M243.39288,17.54546l1.7041-3.59282a1.09842,1.09842,0,1,0-1.98484-.94156L241.408,16.6039a1.09842,1.09842,0,0,0,1.98484.94156Z" transform="translate(0 42.15227)" fill="#fff"/>
    <path d="M272.498,2.53486a1.09842,1.09842,0,0,0-.94156,1.98484l3.59263,1.7045a1.09842,1.09842,0,0,0,.94156-1.98484Z" transform="translate(0 42.15227)" fill="#fff"/>
    <path d="M263.06525-23.924l1.7041-3.59282a1.09814,1.09814,0,0,0-.52164-1.4632,1.095,1.095,0,0,0-.83967-.04233,1.0945,1.0945,0,0,0-.62353.564l-1.7041,3.59282a1.09814,1.09814,0,0,0,.52164,1.4632A1.09815,1.09815,0,0,0,263.06525-23.924Z" transform="translate(0 42.15227)" fill="#fff"/>
    <path d="M273.20184-11.46066l7.49068-2.67047a1.09849,1.09849,0,0,0,.66585-1.40364,1.0985,1.0985,0,0,0-1.40364-.66586l-7.49067,2.67047a1.0985,1.0985,0,0,0-.66586,1.40365A1.09849,1.09849,0,0,0,273.20184-11.46066Z" transform="translate(0 42.15227)" fill="#fff"/>
    <path d="M234.87481-28.79l17.559-6.25988a1.09849,1.09849,0,0,0,.66585-1.40364,1.09849,1.09849,0,0,0-1.40364-.66586l-17.559,6.25988a1.0985,1.0985,0,0,0-.66586,1.40365A1.09849,1.09849,0,0,0,234.87481-28.79Z" transform="translate(0 42.15227)" fill="#fff"/>
    <path d="M233.61847-32.314l17.559-6.25988a1.09849,1.09849,0,0,0,.66585-1.40364,1.0985,1.0985,0,0,0-1.40364-.66586l-5.53522,1.97334-.44238-1.24089a3.37785,3.37785,0,0,0-4.31119-2.04513l-.13224.04714a3.37784,3.37784,0,0,0-2.04512,4.3112l.44238,1.24089-5.53521,1.97333a1.0985,1.0985,0,0,0-.66586,1.40365A1.09849,1.09849,0,0,0,233.61847-32.314Zm6.42455-6.02151a1.17829,1.17829,0,0,1,.71341-1.50391l.13223-.04714a1.1783,1.1783,0,0,1,1.50391.71342l.44238,1.24089-2.34955.83763Z" transform="translate(0 42.15227)" fill="#fff"/>
    <path d="M256.98679,5.4777a4.03268,4.03268,0,0,0,2.356-2.18777,4.0351,4.0351,0,0,0,.035-3.21515l-7.24451-17.36806a3.07851,3.07851,0,0,0-3.876-1.7154,3.07851,3.07851,0,0,0-1.9167,3.78055l5.37653,18.034a4.03507,4.03507,0,0,0,2.061,2.46789A4.03263,4.03263,0,0,0,256.98679,5.4777Zm-8.54093-21.334a.88212.88212,0,0,1,.54918-1.08285.88211.88211,0,0,1,1.11034.49122L257.34989.9201A1.87509,1.87509,0,0,1,256.249,3.4082a1.87511,1.87511,0,0,1-2.42661-1.23053Z" transform="translate(0 42.15227)" fill="#fff"/>
    <path d="M247.93138-19.92275a3.055,3.055,0,0,0,1.84968-3.89918,3.05552,3.05552,0,0,0-3.89939-1.85026,3.05551,3.05551,0,0,0-1.84947,3.89976A3.055,3.055,0,0,0,247.93138-19.92275Zm-1.31192-3.67994a.856.856,0,0,1,1.0921.51855.85546.85546,0,0,1-.518,1.0919.85546.85546,0,0,1-1.0919-.518A.856.856,0,0,1,246.61946-23.60269Z" transform="translate(0 42.15227)" fill="#fff"/>
  </g>
  <path d="M60.2319,112.954l1.78787,6.47224-2.78178.76843a.91263.91263,0,0,0-.63671,1.12273L62.57,135.68455l-2.62862.72612-.95427-3.45458a8.13618,8.13618,0,0,0-9.99771-5.66958l-8.67449,2.39621a8.17389,8.17389,0,0,0-4.96616,3.93287l-2.60438,4.76107-7.70145-4.36748a.91235.91235,0,0,0-1.244.34363l-1.15769,2.04135-3.96956-2.25136a.91234.91234,0,0,0-1.244.34364l-2.50848,4.42326a.91235.91235,0,0,0,.34364,1.244l3.96954,2.25116-1.15772,2.04135a.91234.91234,0,0,0,.34363,1.244l17.92026,10.16294,3.34811,4.79454a.91257.91257,0,0,0,1.54211-.07251l8.297-14.6303a.91257.91257,0,0,0-.72935-1.36067l-5.83259-.41211-8.63118-4.89471,2.61748-4.7853a6.33671,6.33671,0,0,1,3.85081-3.0499l8.67449-2.3962a6.30894,6.30894,0,0,1,7.75224,4.39615l4.48126,16.22258a6.30587,6.30587,0,0,1-3.53639,7.43793L56.3378,150.4607a.9128.9128,0,0,0-1.12273-.63671l-3.66125,1.01137a.9128.9128,0,0,0-.63671,1.12274L55.112,167.14386a.9128.9128,0,0,0,1.12273.63671L59.896,166.7692a.91281.91281,0,0,0,.63671-1.12274l-1.869-6.766a8.13637,8.13637,0,0,0,4.80474-9.70178l-.80661-2.92,2.62862-.72611L69.259,159.89949a.9128.9128,0,0,0,1.12274.63671l2.78178-.76843L74.95142,166.24a.91267.91267,0,0,0,1.75945-.486L61.99135,112.468a.91267.91267,0,1,0-1.75945.486ZM16.95727,139.01618l1.60788-2.83559,3.17572,1.80116-1.60808,2.83548Zm3.15546,5.5365,4.82365-8.50571,16.5127,9.36449-4.8239,8.50577ZM47.22427,146.303l-6.86951,12.11323L38.04682,155.111l5.15647-9.0922Zm9.40412,19.47516L52.91956,152.3518l1.90181-.52535,3.70883,13.42631Zm5.54736-21.27886-1.74833-6.32914L63.056,137.444l1.74833,6.32914Zm8.59973,14.0345L60.60373,121.71109l1.90206-.52542,10.17174,36.82266Z" transform="translate(0 42.15227)" fill="#fff"/>
  <path d="M193.19762,47.14426l-1.56948,2.86581c-.20243.36962.50126,1.14423,1.57236,1.73083s2.10276.76236,2.30518.39275l1.56949-2.86581c.20242-.36962-.5013-1.14424-1.57237-1.73083S193.40005,46.77465,193.19762,47.14426Z" transform="translate(0 42.15227)" fill="#fff" stroke="#fff" stroke-miterlimit="10" stroke-width="0.25"/>
  <path d="M74.30878,24.54239l-4.33322.67534c-.55887.08711-.772,1.695-.47625,3.59275s.98811,3.36453,1.547,3.27743l4.33322-.67535c.55887-.0871.772-1.695.47625-3.59275S74.86765,24.45529,74.30878,24.54239Z" transform="translate(0 42.15227)" fill="#fff"/>
  <path d="M75.59,78.18l-1.56949,2.86581c-.20242.36962.50127,1.14423,1.57237,1.73083s2.10275.76236,2.30518.39275l1.56948-2.86581c.20243-.36962-.50129-1.14424-1.57236-1.73083S75.79242,77.81036,75.59,78.18Z" transform="translate(0 42.15227)" fill="#fff" stroke="#fff" stroke-miterlimit="10" stroke-width="0.25"/>
  <path d="M89.62278,111.44609l-2.4257,1.23056c-.31286.15871.10915,1.61874.943,3.26238s1.76271,2.84654,2.07556,2.68783l2.42571-1.23056c.31285-.15871-.10918-1.61879-.943-3.26239S89.93563,111.28737,89.62278,111.44609Z" transform="translate(0 42.15227)" fill="#fff"/>
  <path d="M151.11319,95.6459l-1.56949,2.86581c-.20242.36962.50127,1.14423,1.57237,1.73083s2.10275.76236,2.30518.39275l1.56948-2.86581c.20243-.36961-.50129-1.14424-1.57236-1.73083S151.31561,95.27629,151.11319,95.6459Z" transform="translate(0 42.15227)" fill="#fff" stroke="#fff" stroke-miterlimit="10" stroke-width="0.25"/>
  <path d="M26.70333,48.113l-4.33322.67535c-.55887.0871-.772,1.695-.47625,3.59275s.98811,3.36453,1.547,3.27742l4.33322-.67534c.55887-.0871.772-1.695.47625-3.59275C27.95454,49.49262,27.2622,48.02586,26.70333,48.113Z" transform="translate(0 42.15227)" fill="#fff"/>
  <path d="M58.59238,99.20867l-1.56949,2.86581c-.20242.36961.50127,1.14422,1.57237,1.73082s2.10276.76237,2.30518.39276l1.56949-2.86581c.20242-.36962-.5013-1.14425-1.57237-1.73083S58.7948,98.83905,58.59238,99.20867Z" transform="translate(0 42.15227)" fill="#fff" stroke="#fff" stroke-miterlimit="10" stroke-width="0.25"/>
  <path d="M71.58334-27.8596l-4.33323.67535c-.55887.0871-.772,1.695-.47624,3.59275.29576,1.89771.9881,3.36452,1.547,3.27742l4.33322-.67534c.55887-.0871.772-1.695.47625-3.59275C72.83454-26.47994,72.14221-27.9467,71.58334-27.8596Z" transform="translate(0 42.15227)" fill="#fff"/>
  <path d="M162.787-20.94657l-4.33322.67535c-.55888.0871-.772,1.695-.47625,3.59275s.98811,3.36453,1.547,3.27743l4.33322-.67535c.55887-.0871.772-1.695.47625-3.59275C164.03819-19.5669,163.34585-21.03367,162.787-20.94657Z" transform="translate(0 42.15227)" fill="#fff"/>
  <path d="M55.92522,28.70649l-2.524-.88647c-.32553-.11433-1.191,1.50637-1.93382,3.62139-.74281,2.115-1.08086,3.921-.75533,4.03529l2.524.88647c.32553.11434,1.191-1.50642,1.93382-3.62138C55.91273,30.62676,56.25076,28.82083,55.92522,28.70649Z" transform="translate(0 42.15227)" fill="#fff" stroke="#fff" stroke-miterlimit="10" stroke-width="0.25"/>
  <path d="M135.03961,127.0381l2.4257-1.23056c.31285-.15871-.10918-1.61879-.943-3.26239" transform="translate(0 42.15227)" fill="#fff"/>
  <path d="M146.13721,137.66738l-1.56948,2.86581c-.20243.36961.50126,1.14422,1.57236,1.73082s2.10276.76237,2.30518.39275l1.56949-2.86581c.20242-.36961-.5013-1.14424-1.57237-1.73082S146.33964,137.29776,146.13721,137.66738Z" transform="translate(0 42.15227)" fill="#fff" stroke="#fff" stroke-miterlimit="10" stroke-width="0.25"/>
  <path d="M180.67377,148.98253l2.673.10774c.34475.0139.69717-1.78929.78746-4.02915.09028-2.23979-.11586-4.06555-.46061-4.07945l-2.673-.10774c-.34475-.0139-.69717,1.78935-.78746,4.02915C180.12288,147.14293,180.329,148.96864,180.67377,148.98253Z" transform="translate(0 42.15227)" fill="#fff" stroke="#fff" stroke-miterlimit="10" stroke-width="0.25"/>
  <path d="M233.98527,84.54965l.66058-3.2c.0852-.41271-.81462-.94705-2.01062-1.19394s-2.23385-.11256-2.31905.30015l-.66058,3.2c-.0852.41272.81466.94706,2.01062,1.194S233.90008,84.96236,233.98527,84.54965Z" transform="translate(0 42.15227)" fill="#fff" stroke="#fff" stroke-miterlimit="10" stroke-width="0.25"/>
  <path d="M223.69671,108.739l-2.524-.88648c-.32554-.11433-1.191,1.50637-1.93383,3.62139-.7428,2.115-1.08086,3.921-.75532,4.03529l2.524.88648c.32554.11433,1.191-1.50643,1.93382-3.62139C223.68421,110.65931,224.02224,108.85337,223.69671,108.739Z" transform="translate(0 42.15227)" fill="#fff" stroke="#fff" stroke-miterlimit="10" stroke-width="0.25"/>
  <path d="M268.30322,91.47506l-1.56949,2.86581c-.20242.36961.50127,1.14422,1.57237,1.73082s2.10275.76237,2.30518.39275l1.56948-2.86581c.20243-.36961-.50129-1.14424-1.57236-1.73082S268.50564,91.10544,268.30322,91.47506Z" transform="translate(0 42.15227)" fill="#fff" stroke="#fff" stroke-miterlimit="10" stroke-width="0.25"/>
  <path d="M221.37994,125.44357l-4.33322.67534c-.55888.0871-.772,1.695-.47625,3.59275s.98811,3.36453,1.547,3.27743l4.33322-.67535c.55887-.0871.772-1.695.47625-3.59275C222.63115,126.82323,221.93881,125.35646,221.37994,125.44357Z" transform="translate(0 42.15227)" fill="#fff"/>
  <path d="M253.95423,108.35138l-4.33322.67534c-.55887.08711-.772,1.695-.47625,3.59275s.98811,3.36453,1.547,3.27743l4.33322-.67535c.55888-.0871.772-1.695.47625-3.59275S254.5131,108.26428,253.95423,108.35138Z" transform="translate(0 42.15227)" fill="#fff"/>
  <path d="M80.55838,89.56262l-4.33322.67534c-.55887.08711-.772,1.695-.47624,3.59275s.9881,3.36453,1.547,3.27743l4.33323-.67535c.55887-.0871.772-1.695.47624-3.59275S81.11726,89.47552,80.55838,89.56262Z" transform="translate(0 42.15227)" fill="#fff"/>
  <g>
    <path d="M299.4409,26.96507a16.363,16.363,0,1,0,17.37947,26.36341,25.74064,25.74064,0,0,1,11.19855-7.56213l3.34187-1.09771a1.0985,1.0985,0,0,0,.70086-1.38649l-5.81737-17.71051a1.09849,1.09849,0,0,0-1.3865-.70086l-3.3442,1.09846a24.30614,24.30614,0,0,1-13.205.61694A16.31927,16.31927,0,0,0,299.4409,26.96507Zm22.75832,1.09153,2.30052-.75565,5.13173,15.62315-2.29819.75489a27.93356,27.93356,0,0,0-12.16248,8.1988,14.16449,14.16449,0,1,1-7.37053-23.154A26.50241,26.50241,0,0,0,322.19922,28.0566Z" transform="translate(0 42.15227)" fill="#fff"/>
    <path d="M285.676,48.70775a1.0985,1.0985,0,0,0-1.3865-.70086l-7.55561,2.48179a1.09854,1.09854,0,1,0,.68564,2.08735l7.5556-2.48178A1.09851,1.09851,0,0,0,285.676,48.70775Z" transform="translate(0 42.15227)" fill="#fff"/>
    <path d="M294.48,15.38216l2.48169,7.55532a1.09854,1.09854,0,0,0,2.08736-.68564l-2.4817-7.55531a1.09854,1.09854,0,1,0-2.08735.68563Z" transform="translate(0 42.15227)" fill="#fff"/>
    <path d="M313.02249,23.30662a1.09842,1.09842,0,0,0,1.96059.99106l1.7941-3.54874a1.09842,1.09842,0,1,0-1.96059-.99106Z" transform="translate(0 42.15227)" fill="#fff"/>
    <path d="M281.79529,32.23944l3.54893,1.79371a1.09842,1.09842,0,1,0,.99107-1.96059l-3.54893-1.79372a1.09843,1.09843,0,0,0-.99107,1.9606Z" transform="translate(0 42.15227)" fill="#fff"/>
    <path d="M296.071,61.712a1.09842,1.09842,0,1,0-1.96059-.99106l-1.7941,3.54873a1.09842,1.09842,0,1,0,1.96059.99107Z" transform="translate(0 42.15227)" fill="#fff"/>
    <path d="M322.75815,52.94605l3.54893,1.79371a1.09842,1.09842,0,1,0,.99106-1.96059l-3.54893-1.79371a1.09842,1.09842,0,1,0-.99106,1.96059Z" transform="translate(0 42.15227)" fill="#fff"/>
    <path d="M310.0444,62.76676l2.48169,7.55532a1.09854,1.09854,0,0,0,2.08736-.68564l-2.48169-7.55531a1.09854,1.09854,0,0,0-2.08736.68563Z" transform="translate(0 42.15227)" fill="#fff"/>
    <path d="M328.32989,24.88658l5.81737,17.71051a1.09854,1.09854,0,1,0,2.08736-.68564l-5.81737-17.71051a1.09854,1.09854,0,1,0-2.08736.68564Z" transform="translate(0 42.15227)" fill="#fff"/>
    <path d="M331.88434,23.71905l5.81737,17.71051a1.09854,1.09854,0,0,0,2.08736-.68563l-1.83384-5.583,1.25159-.41111a3.37784,3.37784,0,0,0,2.15265-4.25853l-.04381-.13337a3.37783,3.37783,0,0,0-4.25852-2.15264l-1.2516.41111-1.83384-5.583a1.09854,1.09854,0,1,0-2.08736.68564Zm5.85843,6.57359a1.17831,1.17831,0,0,1,1.48554.75093l.0438.13337a1.17829,1.17829,0,0,1-.75092,1.48553l-1.2516.41111-.77842-2.36982Z" transform="translate(0 42.15227)" fill="#fff"/>
    <path d="M293.5182,46.13184a4.07286,4.07286,0,0,0,5.34123,2.52582l17.54435-6.80648a3.07919,3.07919,0,0,0-1.91917-5.84274l-18.16322,4.92238a4.07285,4.07285,0,0,0-2.80319,5.201Zm21.5416-8.003a.88215.88215,0,0,1,.5498,1.67385l-17.54434,6.80648a1.87509,1.87509,0,1,1-1.16868-3.558Z" transform="translate(0 42.15227)" fill="#fff"/>
    <path d="M319.13784,37.71656a3.05194,3.05194,0,1,0,1.94692-3.85155A3.055,3.055,0,0,0,319.13784,37.71656Zm3.7117-1.21918a.85486.85486,0,1,1-1.07914-.545A.856.856,0,0,1,322.84954,36.49738Z" transform="translate(0 42.15227)" fill="#fff"/>
  </g>
  <path d="M328.54813,120.61486l-6.51843,1.61136-.69256-2.80163a.91263.91263,0,0,0-1.105-.667l-14.46968,3.5769-.65443-2.64737,3.47923-.86006a8.13618,8.13618,0,0,0,5.93911-9.84l-2.15963-8.73639a8.17386,8.17386,0,0,0-3.79649-5.07117l-4.68856-2.73278,4.57512-7.57995a.91234.91234,0,0,0-.30971-1.25286l-2.00914-1.21273,2.35838-3.90693a.91233.91233,0,0,0-.30971-1.25286l-4.35348-2.62772a.91234.91234,0,0,0-1.25286.30971l-2.35818,3.90691L298.213,77.61757a.91235.91235,0,0,0-1.25286.30971L286.314,95.5648l-4.88374,3.2166a.91257.91257,0,0,0,.03058,1.54352l14.39947,8.6914a.91257.91257,0,0,0,1.38-.69211l.57043-5.81924,5.1274-8.495,4.71242,2.74652a6.33674,6.33674,0,0,1,2.94415,3.93226l2.15964,8.73639a6.309,6.309,0,0,1-4.60516,7.62994l-16.33835,4.03884a6.30587,6.30587,0,0,1-7.3391-3.73717l6.68931-1.6536a.91279.91279,0,0,0,.667-1.105l-.91152-3.68738a.91279.91279,0,0,0-1.105-.667l-15.29412,3.78071a.91281.91281,0,0,0-.667,1.105l.91153,3.68738a.91279.91279,0,0,0,1.105.667l6.8143-1.6845a8.13636,8.13636,0,0,0,9.56765,5.06656l2.94081-.727.65443,2.64737-14.46944,3.57685a.91281.91281,0,0,0-.667,1.105l.69257,2.80163-6.51843,1.61135a.91267.91267,0,1,0,.438,1.772l53.66628-13.26631a.91267.91267,0,1,0-.438-1.772ZM303.67132,76.6481l2.79086,1.68432L304.5754,81.458l-2.79074-1.68452ZM298.05114,79.652l8.37151,5.053L296.613,100.95711l-8.37157-5.05322Zm-2.48624,27.054-11.92212-7.1961,3.36669-2.21728,8.94875,5.4016Zm-19.72349,8.87151,13.52213-3.34267.47349,1.91538-13.52213,3.34267Zm21.12029,6.12345,6.37431-1.57573.65443,2.64737-6.37431,1.57573Zm-14.263,8.21524,37.08543-9.16752.47354,1.91562-37.08542,9.16753Z" transform="translate(0 42.15227)" fill="#fff"/>
  <path d="M262.60532,30.37883l-4.33322.67535c-.55887.0871-.772,1.695-.47625,3.59275.29576,1.89771.98811,3.36452,1.547,3.27742L263.676,37.249c.55887-.08711.772-1.695.47625-3.59276S263.16419,30.29173,262.60532,30.37883Z" transform="translate(0 42.15227)" fill="#fff"/>
  <path d="M278.55314,44.03864l.66058-3.2c.0852-.41271-.81462-.947-2.01062-1.19394s-2.23385-.11257-2.31905.30015l-.66058,3.2c-.0852.41272.81466.94706,2.01062,1.194S278.46794,44.45135,278.55314,44.03864Z" transform="translate(0 42.15227)" fill="#fff" stroke="#fff" stroke-miterlimit="10" stroke-width="0.25"/>
</svg>
