<svg id="Layer_1" data-name="Layer 1" xmlns="http://www.w3.org/2000/svg" viewBox="0 0 343 165.88277">
  <rect y="44.88277" width="343" height="121" fill="#27ad60"/>
  <g>
    <path d="M114.15617,54.72078a17.17929,17.17929,0,0,0-7.69-11.20388A17.11172,17.11172,0,1,0,90.7756,73.79845l3.03133,6.16406a3.2308,3.2308,0,0,0,1.38685,5.85071l.36087,1.84447A3.22976,3.22976,0,0,0,96.726,93.64434l.019.09684a4.79735,4.79735,0,0,0,5.623,3.783l5.24989-1.02716a4.79735,4.79735,0,0,0,3.78267-5.62327l-.019-.09684a3.22976,3.22976,0,0,0-1.17131-5.98665l-.36088-1.84447a3.2308,3.2308,0,0,0-.92043-5.942l.48469-6.852A17.03752,17.03752,0,0,0,114.15617,54.72078Zm-6.27679,28.79876.2899,1.4817L97.52464,87.0839l-.2899-1.4817Zm-.65392,10.972-5.24989,1.02716a2.74737,2.74737,0,0,1-3.20011-2.08706L109.403,91.35233A2.74736,2.74736,0,0,1,107.22546,94.49155ZM110.003,89.15l-.01823.00226-.04949.01373L97.45552,91.60765c-.01677.00185-.035.00334-.04809.00536l-.01769.00477a1.18823,1.18823,0,0,1-.47366-2.32786l.03536-.00751.04948-.01379,12.47976-2.44171c.01678-.00179.035-.00334.04811-.0053l.03558-.00637A1.18823,1.18823,0,0,1,110.003,89.15Zm-1.51619-7.836c-.02009.004-.04532.0116-.06951.01812L95.91319,83.77851c-.0252.00315-.05168.00559-.07242.00965a1.18981,1.18981,0,0,1-.41374-2.343l12.56-2.45742a1.18981,1.18981,0,0,1,.49975,2.32621Zm-1.084-11.69535-.5308,7.50506-1.81491.3551-1.76418-9.01688a1.02175,1.02175,0,1,0-2.00548.39238l1.76418,9.01688-3.47378.67965-1.76418-9.01687a1.02175,1.02175,0,1,0-2.00548.39238l1.76418,9.01687-1.815.35511-3.32018-6.75161a1.02171,1.02171,0,0,0-.54505-.501,15.06717,15.06717,0,0,1,1.6353-28.61282,15.0677,15.0677,0,0,1,14.19138,25.51627A1.02179,1.02179,0,0,0,107.40278,69.61857Z" transform="translate(0 44.88277)" fill="#fff"/>
    <path d="M94.30877,37.082l-.61943-3.166a1.02176,1.02176,0,0,0-2.00549.39238l.61944,3.166a1.02175,1.02175,0,0,0,2.00548-.39238Z" transform="translate(0 44.88277)" fill="#fff"/>
    <path d="M78.9505,45.94905a1.02146,1.02146,0,0,0-.27742-1.41793l-2.67662-1.80088A1.02164,1.02164,0,0,0,74.856,44.4256l2.67656,1.80089a1.02144,1.02144,0,0,0,1.418-.27744Z" transform="translate(0 44.88277)" fill="#fff"/>
    <path d="M72.78461,62.806a1.02175,1.02175,0,1,0,.39238,2.00548l3.16574-.61938a1.02176,1.02176,0,0,0-.39238-2.00549Z" transform="translate(0 44.88277)" fill="#fff"/>
    <path d="M113.08936,36.9451a1.02164,1.02164,0,1,0-1.69535-1.14051l-1.80054,2.67685a1.02166,1.02166,0,1,0,1.69542,1.14049Z" transform="translate(0 44.88277)" fill="#fff"/>
    <path d="M118.76943,53.8089a1.02175,1.02175,0,1,0,.39238,2.00548l3.16574-.61939a1.02175,1.02175,0,0,0-.39238-2.00548Z" transform="translate(0 44.88277)" fill="#fff"/>
    <path d="M110.321,58.53467a3.91182,3.91182,0,0,0-2.51248-2.99316,5.39311,5.39311,0,0,0-.0854-.63688,5.57584,5.57584,0,0,0-4.79918-4.47172,4.6161,4.6161,0,0,0-8.28945-.62947,5.41837,5.41837,0,0,0-6.37827,5.41535,4.24763,4.24763,0,0,0-1.68728.91862,4.61121,4.61121,0,0,0-1.57751,4.354,4.52958,4.52958,0,0,0,5.28946,3.52119c.12732-.02491,11.34571-2.18146,11.34909-2.18212a.31979.31979,0,0,1,.36967.39886l-.20041.73349a2.27742,2.27742,0,0,0,4.2319,1.62432l.43164-.85828a1.37607,1.37607,0,0,1,.91276-.66488,3.75432,3.75432,0,0,0,1.48023-.76544A4.014,4.014,0,0,0,110.321,58.53467Zm-2.7674,2.18917a1.70257,1.70257,0,0,1-.67543.35757,3.40086,3.40086,0,0,0-2.24067,1.72933l-.43163.85833a.2344.2344,0,0,1-.43543-.16753l.20048-.7335a2.36338,2.36338,0,0,0-2.72994-2.94366s-11.26766,2.16619-11.35189,2.18267a2.47975,2.47975,0,0,1-2.8959-1.927,2.53754,2.53754,0,0,1,.92051-2.40412,2.14543,2.14543,0,0,1,1.02431-.52108,2.47678,2.47678,0,0,1,.45674-.044,1.02212,1.02212,0,0,0,.98826-1.24263c-.0033-.01566-.01616-.06192-.02031-.07735a3.37584,3.37584,0,0,1,4.48878-3.818,1.02147,1.02147,0,0,0,1.32624-.64238,2.57345,2.57345,0,0,1,4.97242.28552,1.02185,1.02185,0,0,0,1.02184.82032,3.52938,3.52938,0,0,1,3.597,3.82382,1.02143,1.02143,0,0,0,.89472,1.0944,1.889,1.889,0,0,1,1.64568,1.54128A1.97256,1.97256,0,0,1,107.5536,60.72384Z" transform="translate(0 44.88277)" fill="#fff"/>
    <path d="M92.0665,55.74971a1.02175,1.02175,0,0,0,.39238,2.00548,1.40943,1.40943,0,0,1,1.65185,1.11124,1.02176,1.02176,0,1,0,2.00549-.39237A3.45506,3.45506,0,0,0,92.0665,55.74971Z" transform="translate(0 44.88277)" fill="#fff"/>
    <path d="M89.66971-14.99324l4.34591,3.634L90.56556.55917A3.08975,3.08975,0,0,0,87.8045,4.564L86.96,6.23988q-1.2719,2.523-2.50886,4.98188a1.0586,1.0586,0,0,0,.29818,1.31232,8.97426,8.97426,0,0,0,6.37018,1.844,1.05851,1.05851,0,0,0,.953-.95013q.269-2.73942.54037-5.5517l.18125-1.86792a3.08976,3.08976,0,0,0-.19483-4.86044L95.79024-9.87543l3.773,3.15489L95.63585,6.847c-.52268,1.80561-.13838,4.64962,4.66039,7.944a44.55174,44.55174,0,0,0,12.405,5.49643c9.62451,2.786,20.03788,3.17191,21.60623-2.24608l3.92742-13.56751,12.78283-1.70853a1.0585,1.0585,0,0,0,.53877-1.86122L125.14831-21.17774a1.05658,1.05658,0,0,0-.81942-.2372L90.20848-16.85446a1.05861,1.05861,0,0,0-.87653.75483A1.05863,1.05863,0,0,0,89.66971-14.99324ZM91.72627,3.92688a.99273.99273,0,1,1-.67753-1.22968A.994.994,0,0,1,91.72627,3.92688ZM86.7592,11.345q1.0329-2.05439,2.09124-4.15227l.41687-.827A2.89873,2.89873,0,0,0,90.59505,6.75l-.08938.92185q-.22681,2.33881-.45014,4.62732A6.86285,6.86285,0,0,1,86.7592,11.345ZM135.942,4.78036l-3.66826,12.67227c-.95871,3.31191-9.12011,3.6563-18.98379.801S96.71088,10.7476,97.66958,7.43569l3.66827-12.67227L116.07793,7.08857a1.05658,1.05658,0,0,0,.81942.2372Zm-11.79445-24.035L148.3534.98541,117.07866,5.16547,98.99413-9.95617l21.42681,3.95252a1.05827,1.05827,0,0,0,1.23309-.84879,1.06268,1.06268,0,0,0-.84873-1.23308l-25.11478-4.633-2.81767-2.35609Z" transform="translate(0 44.88277)" fill="#fff"/>
    <g>
      <path d="M43.23914,4.96522A16.81353,16.81353,0,0,0,44.76787-8.65016a16.64781,16.64781,0,0,0-9.17259-10.24375,16.86318,16.86318,0,0,0-20.05814,5.0102A16.72533,16.72533,0,0,0,11.9866-3.57257,26.41026,26.41026,0,0,1,8.48173,9.84126l-1.83116,3.11a1.12707,1.12707,0,0,0,.39937,1.54314l16.48152,9.70439a1.12706,1.12706,0,0,0,1.54313-.39937L26.907,20.68724a24.9383,24.9383,0,0,1,9.75632-9.422A16.74382,16.74382,0,0,0,43.23914,4.96522ZM24.96452,19.54349,23.704,21.68436,9.165,13.12373,10.42424,10.985A28.66006,28.66006,0,0,0,14.24045-3.57245,14.491,14.491,0,0,1,17.32086-12.505a14.5867,14.5867,0,0,1,17.35068-4.33292,14.41579,14.41579,0,0,1,7.94835,8.87184A14.55631,14.55631,0,0,1,41.29664,3.82146a14.48723,14.48723,0,0,1-5.68986,5.45238A27.19159,27.19159,0,0,0,24.96452,19.54349Z" transform="translate(0 44.88277)" fill="#fff"/>
      <path d="M39.11368-21.11334a1.12706,1.12706,0,0,0,1.54313-.39937l4.14006-7.0313a1.12706,1.12706,0,0,0-.39937-1.54313,1.12706,1.12706,0,0,0-1.54313.39937l-4.14006,7.0313A1.12706,1.12706,0,0,0,39.11368-21.11334Z" transform="translate(0 44.88277)" fill="#fff"/>
      <path d="M54.90917,10.52861l-7.031-4.1399a1.12711,1.12711,0,0,0-1.14376,1.94251l7.031,4.1399a1.12711,1.12711,0,1,0,1.14375-1.94251Z" transform="translate(0 44.88277)" fill="#fff"/>
      <path d="M35.25334,16.98586a1.127,1.127,0,0,0-2.18209.56474l1.022,3.94982a1.127,1.127,0,0,0,2.18209-.56474Z" transform="translate(0 44.88277)" fill="#fff"/>
      <path d="M53.26143-11.05394l-3.9497,1.02244a1.12671,1.12671,0,0,0-.80868,1.37342,1.12347,1.12347,0,0,0,.51917.68888,1.12294,1.12294,0,0,0,.85425.11979l3.9497-1.02245a1.12668,1.12668,0,0,0,.80867-1.37341A1.12669,1.12669,0,0,0,53.26143-11.05394Z" transform="translate(0 44.88277)" fill="#fff"/>
      <path d="M22.29382-24.09021a1.12294,1.12294,0,0,0,.51917.68889,1.12348,1.12348,0,0,0,.85425.11979,1.1267,1.1267,0,0,0,.80867-1.37342l-1.022-3.94981a1.12671,1.12671,0,0,0-1.37342-.80868A1.12671,1.12671,0,0,0,21.27181-28.04Z" transform="translate(0 44.88277)" fill="#fff"/>
      <path d="M7.67069.74507,3.721,1.76751A1.127,1.127,0,1,0,4.28573,3.9496L8.23544,2.92715A1.127,1.127,0,1,0,7.67069.74507Z" transform="translate(0 44.88277)" fill="#fff"/>
      <path d="M10.81277-15.43557l-7.031-4.1399a1.12708,1.12708,0,0,0-1.54314.39938A1.12707,1.12707,0,0,0,2.638-17.633l7.031,4.1399a1.12707,1.12707,0,0,0,1.54314-.39937A1.12709,1.12709,0,0,0,10.81277-15.43557Z" transform="translate(0 44.88277)" fill="#fff"/>
      <path d="M22.38865,26.13963,5.90714,16.43524a1.12711,1.12711,0,0,0-1.14376,1.94251L21.2449,28.08214a1.12711,1.12711,0,1,0,1.14375-1.94251Z" transform="translate(0 44.88277)" fill="#fff"/>
      <path d="M20.441,29.44743,3.9595,19.743a1.12711,1.12711,0,1,0-1.14376,1.94251L8.0113,24.74471l-.68581,1.16475a3.46569,3.46569,0,0,0,1.22665,4.73962l.12412.07308a3.46569,3.46569,0,0,0,4.73962-1.22665l.68581-1.16475,5.19556,3.05917a1.12711,1.12711,0,0,0,1.14376-1.9425Zm-8.96763-1.09568a1.20894,1.20894,0,0,1-1.65336.4279l-.12412-.07308a1.20893,1.20893,0,0,1-.4279-1.65335l.68581-1.16475L12.15918,27.187Z" transform="translate(0 44.88277)" fill="#fff"/>
      <path d="M34.81661-13.81538a4.13753,4.13753,0,0,0-3.27252-.41525,4.14,4.14,0,0,0-2.55415,2.08793l-8.90623,17.131A3.15927,3.15927,0,0,0,25.521,8.18984L36.18058-7.90881a4.14007,4.14007,0,0,0,.58671-3.24638A4.13755,4.13755,0,0,0,34.81661-13.81538ZM23.6412,6.94578a.90509.90509,0,0,1-1.55769-.91718l8.90622-17.131a1.90729,1.90729,0,0,1,1.17658-.96191,1.90712,1.90712,0,0,1,1.50654.19147,1.90712,1.90712,0,0,1,.89829,1.22451,1.90729,1.90729,0,0,1-.27036,1.49549Z" transform="translate(0 44.88277)" fill="#fff"/>
      <path d="M20.77844,10.02642a3.13132,3.13132,0,1,0,1.10943,4.28667A3.13445,3.13445,0,0,0,20.77844,10.02642Zm-2.03381,3.45413a.8771.8771,0,1,1,1.20073-.31122A.87824.87824,0,0,1,18.74463,13.48055Z" transform="translate(0 44.88277)" fill="#fff"/>
    </g>
    <path d="M158.7658,63.67067a8.90894,8.90894,0,0,1-.91637-.046.61453.61453,0,0,0-.72135.58752.754.754,0,0,0,.40849.64462.82276.82276,0,0,0,.30773.09732,10.04761,10.04761,0,0,0,1.16072.05308.59753.59753,0,0,0,.58924-.70509A.80926.80926,0,0,0,158.7658,63.67067Z" transform="translate(0 44.88277)" fill="#fff"/>
    <path d="M189.54308,68.38421a6.57679,6.57679,0,0,0,1.36646-1.73041,6.69172,6.69172,0,0,0-2.24528-8.83035,5.74052,5.74052,0,0,0-8.41212-6.75957,5.74055,5.74055,0,0,0-10.22592-3.44774,6.69169,6.69169,0,0,0-8.64958,2.86367,6.57686,6.57686,0,0,0-.72219,2.08326,7.34625,7.34625,0,0,0-6.01755,11.50244,5.67044,5.67044,0,0,0-.63107.92317,5.75631,5.75631,0,0,0,2.28112,7.80473q.15168.08307.31172.15731a5.74477,5.74477,0,0,0,8.70112,5.41542,5.74473,5.74473,0,0,0,9.24891,4.41509q.14893.095.30043.17794a5.75628,5.75628,0,0,0,7.80473-2.28112,5.67448,5.67448,0,0,0,.438-1.0289,7.34625,7.34625,0,0,0,6.45122-11.26494Zm-29.225,8.73764a4.16209,4.16209,0,0,1-2.08945-4.51142l.00038-.00953.00425-.01531a3.832,3.832,0,0,1,3.22374-3.2369.78263.78263,0,0,0-.06776-1.5638,5.26932,5.26932,0,0,0-4.44184,3.57935,4.17473,4.17473,0,0,1-.75275-6.6707.7825.7825,0,0,0,.067-1.07425,5.777,5.777,0,0,1,4.328-9.48616,3.85716,3.85716,0,0,0,2.04617,2.99265,4.92339,4.92339,0,0,0,.97164.40068.78262.78262,0,1,0,.44279-1.5013,2.40135,2.40135,0,0,1-1.91891-2.57714c.00053-.00532-.00049-.01037-.00015-.01564l.002-.01321a5.06559,5.06559,0,0,1,.61641-2.18749,5.12369,5.12369,0,0,1,6.94691-2.03043c.02643.01448.05082.03085.07567.04645l.09336.05857a.79177.79177,0,0,0,1.07223-.26574,4.18133,4.18133,0,0,1,7.24344,4.17559l-.38566.70421c-.01792-.048-.02992-.09853-.04978-.14551a3.01631,3.01631,0,0,0-1.99638-1.78644,4.27355,4.27355,0,0,0-2.24813.10528c-.86226.21242-1.256.30948-1.79508-.39554a.78274.78274,0,0,0-1.24315.95147,2.83821,2.83821,0,0,0,3.41233.964,2.86281,2.86281,0,0,1,1.45678-.11694,1.48008,1.48008,0,0,1,.9718.88777,3.5705,3.5705,0,0,1-.39722,2.98478l-4.391,8.01775a4.9755,4.9755,0,0,0-2.4722-3.24617.78264.78264,0,1,0-.75187,1.37288c1.8946,1.0376,2.378,3.41816,1.14973,5.66093l-3.44341,6.2875A4.18907,4.18907,0,0,1,160.31805,77.12185Zm22.27523.91826a.78227.78227,0,0,0-.869.634,4.17564,4.17564,0,0,1-6.02653,2.959,5.26932,5.26932,0,0,0,.62378-5.67033.78263.78263,0,1,0-1.35414.78508,3.832,3.832,0,0,1-.99128,4.45952l-.00788.00879-.01052.00852a4.18469,4.18469,0,0,1-6.58692-5.01063l2.19434-4.00676a4.40559,4.40559,0,0,1,5.60809-1.96892.78274.78274,0,1,0,.64483-1.4265,5.9532,5.9532,0,0,0-4.30307-.16492l4.81759-8.79668a3.56985,3.56985,0,0,1,2.301-1.94214,1.47561,1.47561,0,0,1,1.27139.34074,8.85085,8.85085,0,0,1,.7196.75362,3.63648,3.63648,0,0,0,4.07353,1.44414.78258.78258,0,1,0-.29665-1.5368,2.17,2.17,0,0,1-2.602-.94148,10.07021,10.07021,0,0,0-.84864-.88354,3.01425,3.01425,0,0,0-2.58-.71986c-.05031.00855-.09935.02565-.1494.03642L179.554,53.968a4.18132,4.18132,0,0,1,7.41922,3.85456.78373.78373,0,0,0,.35352,1.04656l.09967.04714c.02649.01252.05381.02448.07985.03874a5.12371,5.12371,0,0,1,2.03041,6.94694,5.06552,5.06552,0,0,1-1.51125,1.69742l-.0101.00895-.0132.00817a2.40109,2.40109,0,0,1-3.2049-.229.78262.78262,0,0,0-1.02653,1.18161,4.92162,4.92162,0,0,0,.86052.60273,3.85822,3.85822,0,0,0,3.62395.11275,5.77709,5.77709,0,0,1-5.66188,8.75552Z" transform="translate(0 44.88277)" fill="#fff"/>
    <path d="M181.83557,76.46589a8.96477,8.96477,0,0,1-.5348-.8446.78289.78289,0,1,0-1.40607.68893,10.06862,10.06862,0,0,0,.67322,1.07378.7826.7826,0,1,0,1.26765-.91811Z" transform="translate(0 44.88277)" fill="#fff"/>
    <path d="M183.39851,43.23388l-1.61031,2.94034a.78264.78264,0,1,0,1.37288.75187l1.6103-2.94034a.78264.78264,0,1,0-1.37287-.75187Z" transform="translate(0 44.88277)" fill="#fff"/>
    <path d="M164.56925,43.59733a.78264.78264,0,0,0,1.12706-.906l-.94052-3.218a.78255.78255,0,1,0-1.50226.43907l.94053,3.21795A.77962.77962,0,0,0,164.56925,43.59733Z" transform="translate(0 44.88277)" fill="#fff"/>
    <path d="M151.916,55.149l-2.94034-1.61031a.78264.78264,0,1,0-.75187,1.37287l2.94034,1.61031A.78264.78264,0,1,0,151.916,55.149Z" transform="translate(0 44.88277)" fill="#fff"/>
    <path d="M197.97985,57.66889l-3.218.94052a.78255.78255,0,1,0,.43907,1.50226l3.218-.94053a.78255.78255,0,1,0-.43907-1.50225Z" transform="translate(0 44.88277)" fill="#fff"/>
    <path d="M194.6268,78.54l-2.94035-1.61031a.78264.78264,0,0,0-.75187,1.37287l2.94035,1.61031A.78264.78264,0,1,0,194.6268,78.54Z" transform="translate(0 44.88277)" fill="#fff"/>
    <path d="M136.06076,34.83887l-1.61031,2.94035c-.20769.37923.5143,1.174,1.61326,1.77584s2.15745.7822,2.36514.403l1.6103-2.94035c.20769-.37922-.51433-1.174-1.61326-1.77584S136.26845,34.45965,136.06076,34.83887Z" transform="translate(0 44.88277)" fill="#fff" stroke="#fff" stroke-miterlimit="10" stroke-width="0.25"/>
    <path d="M171.263,17.46881l-4.44593.69291c-.57341.08937-.7921,1.73907-.48863,3.6862.30345,1.94707,1.0138,3.452,1.58721,3.36266l4.44593-.69291c.5734-.08936.79208-1.73912.48863-3.68619S171.83641,17.37944,171.263,17.46881Z" transform="translate(0 44.88277)" fill="#fff"/>
    <path d="M135.63792,78.22612l-2.4888,1.26257c-.321.16284.112,1.66085.9675,3.34724.85548,1.68634,1.80856,2.92057,2.12955,2.75773l2.48879-1.26257c.321-.16283-.112-1.66089-.9675-3.34723C136.912,79.29747,135.95891,78.06328,135.63792,78.22612Z" transform="translate(0 44.88277)" fill="#fff"/>
    <path d="M217.92593,53.96677l-2.58968-.90953c-.334-.11731-1.222,1.54555-1.98411,3.71558-.76213,2.17-1.109,4.02294-.775,4.14024l2.58968.90954c.334.1173,1.222-1.54561,1.98412-3.71558C217.91311,55.937,218.25993,54.08408,217.92593,53.96677Z" transform="translate(0 44.88277)" fill="#fff" stroke="#fff" stroke-miterlimit="10" stroke-width="0.25"/>
    <g>
      <path d="M236.44812-1.59545a16.81358,16.81358,0,0,0,9.46659,9.90452A16.6478,16.6478,0,0,0,259.657,7.84033a16.86319,16.86319,0,0,0,9.019-18.60347A16.72539,16.72539,0,0,0,263.04133-20.1a26.4102,26.4102,0,0,1-8.04465-11.29153l-1.21192-3.39945a1.12707,1.12707,0,0,0-1.44015-.68318l-18.01567,6.4227a1.12706,1.12706,0,0,0-.68318,1.44015l1.21277,3.40182a24.93832,24.93832,0,0,1,.9727,13.52826A16.7438,16.7438,0,0,0,236.44812-1.59545Zm.53374-23.371-.83428-2.34016,15.89234-5.66571.83344,2.33779a28.6601,28.6601,0,0,0,8.72248,12.26383,14.491,14.491,0,0,1,4.87839,8.092A14.58669,14.58669,0,0,1,258.67186,5.813a14.41579,14.41579,0,0,1-11.90454.4092,14.55631,14.55631,0,0,1-8.19587-8.57466,14.48712,14.48712,0,0,1-.53466-7.86238A27.19175,27.19175,0,0,0,236.98186-24.96643Z" transform="translate(0 44.88277)" fill="#fff"/>
      <path d="M259.10362,11.96328a1.12707,1.12707,0,0,0-.68317,1.44015l2.74,7.6858a1.12711,1.12711,0,0,0,2.12332-.757l-2.74-7.68579A1.12706,1.12706,0,0,0,259.10362,11.96328Z" transform="translate(0 44.88277)" fill="#fff"/>
      <path d="M224.6954,3.79106l7.6855-2.73992A1.12706,1.12706,0,0,0,233.06407-.389a1.12707,1.12707,0,0,0-1.44015-.68318l-7.68549,2.73993a1.12711,1.12711,0,1,0,.757,2.12332Z" transform="translate(0 44.88277)" fill="#fff"/>
      <path d="M232.34609-15.43171a1.12669,1.12669,0,0,0,1.50125-.53521,1.12669,1.12669,0,0,0-.5352-1.50125L229.62606-19.217a1.1229,1.1229,0,0,0-.86151-.04343,1.12342,1.12342,0,0,0-.63974.57863,1.12669,1.12669,0,0,0,.5352,1.50126Z" transform="translate(0 44.88277)" fill="#fff"/>
      <path d="M242.3122,16.36764l1.74843-3.68626a1.127,1.127,0,1,0-2.03647-.96605l-1.74843,3.68626a1.127,1.127,0,0,0,2.03647.96605Z" transform="translate(0 44.88277)" fill="#fff"/>
      <path d="M272.17431.96662a1.127,1.127,0,1,0-.966,2.03647l3.68607,1.74883a1.127,1.127,0,0,0,.966-2.03647Z" transform="translate(0 44.88277)" fill="#fff"/>
      <path d="M262.49623-26.18041l1.74843-3.68627a1.1267,1.1267,0,0,0-.53521-1.50125,1.12346,1.12346,0,0,0-.86151-.04343,1.12294,1.12294,0,0,0-.63975.57863l-1.74843,3.68627a1.1267,1.1267,0,0,0,.53521,1.50125A1.12669,1.12669,0,0,0,262.49623-26.18041Z" transform="translate(0 44.88277)" fill="#fff"/>
      <path d="M272.89647-13.3929l7.6855-2.73993a1.12707,1.12707,0,0,0,.68317-1.44015,1.12707,1.12707,0,0,0-1.44015-.68317l-7.6855,2.73993a1.12707,1.12707,0,0,0-.68317,1.44015A1.12707,1.12707,0,0,0,272.89647-13.3929Z" transform="translate(0 44.88277)" fill="#fff"/>
      <path d="M233.57259-31.173l18.01567-6.42269a1.12707,1.12707,0,0,0,.68318-1.44016,1.12707,1.12707,0,0,0-1.44015-.68317L232.81561-33.2963a1.12708,1.12708,0,0,0-.68317,1.44016A1.12707,1.12707,0,0,0,233.57259-31.173Z" transform="translate(0 44.88277)" fill="#fff"/>
      <path d="M232.28357-34.78867l18.01568-6.42269a1.12707,1.12707,0,0,0,.68317-1.44015,1.12706,1.12706,0,0,0-1.44015-.68317L243.86309-41.31l-.45389-1.27317a3.4657,3.4657,0,0,0-4.42332-2.09832l-.13567.04837a3.46569,3.46569,0,0,0-2.09832,4.42332l.45389,1.27317L231.5266-36.912a1.12707,1.12707,0,0,0-.68318,1.44015A1.12706,1.12706,0,0,0,232.28357-34.78867Zm6.59164-6.17812a1.20894,1.20894,0,0,1,.732-1.543l.13567-.04837a1.20893,1.20893,0,0,1,1.543.732l.45389,1.27317-2.41066.85941Z" transform="translate(0 44.88277)" fill="#fff"/>
      <path d="M256.25967,3.986A4.13754,4.13754,0,0,0,258.677,1.74133a4.14009,4.14009,0,0,0,.03592-3.29877L251.28-19.37722a3.1586,3.1586,0,0,0-3.97686-1.76,3.1586,3.1586,0,0,0-1.96656,3.87888l5.51637,18.503a4.14006,4.14006,0,0,0,2.11466,2.53208A4.1375,4.1375,0,0,0,256.25967,3.986ZM247.4966-17.9029a.90506.90506,0,0,1,.56347-1.111.90506.90506,0,0,1,1.13922.504L256.63222-.69014a1.90724,1.90724,0,0,1-.01647,1.51965,1.9071,1.9071,0,0,1-1.113,1.03317,1.90716,1.90716,0,0,1-1.51563-.096,1.90729,1.90729,0,0,1-.9741-1.1665Z" transform="translate(0 44.88277)" fill="#fff"/>
      <path d="M246.96874-22.07508a3.13444,3.13444,0,0,0,1.89779-4.0006,3.135,3.135,0,0,0-4.00081-1.89838,3.135,3.135,0,0,0-1.89757,4.00119A3.13444,3.13444,0,0,0,246.96874-22.07508Zm-1.346-3.77565a.87823.87823,0,0,1,1.12051.532.87771.87771,0,0,1-.53144,1.1203.8777.8777,0,0,1-1.1203-.53145A.87823.87823,0,0,1,245.6227-25.85073Z" transform="translate(0 44.88277)" fill="#fff"/>
    </g>
    <path d="M190.81142,46.73627l-1.61031,2.94035c-.20769.37923.5143,1.174,1.61326,1.77584s2.15745.7822,2.36514.403l1.6103-2.94035c.20769-.37923-.51433-1.174-1.61326-1.77584S191.01911,46.35705,190.81142,46.73627Z" transform="translate(0 44.88277)" fill="#fff" stroke="#fff" stroke-miterlimit="10" stroke-width="0.25"/>
    <path d="M68.8304,23.54655l-4.44593.69291c-.5734.08937-.79209,1.73907-.48863,3.68619.30346,1.94707,1.01381,3.452,1.58721,3.36267l4.44593-.69291c.57341-.08937.79209-1.73912.48863-3.68619C70.11415,24.96209,69.40381,23.45718,68.8304,23.54655Z" transform="translate(0 44.88277)" fill="#fff"/>
    <path d="M70.14494,78.57919l-1.61031,2.94035c-.20768.37922.51431,1.174,1.61327,1.77584s2.15744.78219,2.36513.403L74.12334,80.758c.20769-.37923-.51433-1.174-1.61327-1.77584S70.35263,78.2,70.14494,78.57919Z" transform="translate(0 44.88277)" fill="#fff" stroke="#fff" stroke-miterlimit="10" stroke-width="0.25"/>
    <path d="M84.5427,112.71052l-2.48879,1.26257c-.321.16284.112,1.66085.9675,3.34724.85548,1.68634,1.80855,2.92057,2.12954,2.75773l2.4888-1.26257c.321-.16284-.112-1.66089-.9675-3.34724S84.86369,112.54768,84.5427,112.71052Z" transform="translate(0 44.88277)" fill="#fff"/>
    <path d="M147.63241,96.49939l-1.61031,2.94035c-.20768.37923.51431,1.174,1.61327,1.77584s2.15744.7822,2.36513.403l1.61031-2.94035c.20768-.37923-.51433-1.174-1.61327-1.77584S147.8401,96.12016,147.63241,96.49939Z" transform="translate(0 44.88277)" fill="#fff" stroke="#fff" stroke-miterlimit="10" stroke-width="0.25"/>
    <path d="M19.98678,47.73017l-4.44592.69291c-.57341.08937-.7921,1.73907-.48864,3.68619.30346,1.94707,1.01381,3.452,1.58722,3.36267l4.44592-.69291c.57341-.08937.79209-1.73912.48863-3.68619C21.27053,49.14571,20.56019,47.6408,19.98678,47.73017Z" transform="translate(0 44.88277)" fill="#fff"/>
    <path d="M52.70523,100.15482l-1.6103,2.94035c-.20769.37923.5143,1.174,1.61326,1.77584s2.15744.78219,2.36513.403l1.61031-2.94035c.20769-.37923-.51433-1.174-1.61326-1.77584S52.91292,99.77559,52.70523,100.15482Z" transform="translate(0 44.88277)" fill="#fff" stroke="#fff" stroke-miterlimit="10" stroke-width="0.25"/>
    <path d="M66.03407-30.21836l-4.44592.69291c-.57341.08937-.7921,1.73907-.48864,3.68619s1.01381,3.452,1.58722,3.36267l4.44592-.69291c.57341-.08937.79209-1.73912.48863-3.68619C67.31782-28.80282,66.60748-30.30773,66.03407-30.21836Z" transform="translate(0 44.88277)" fill="#fff"/>
    <path d="M159.60983-23.12553l-4.44593.69291c-.57341.08937-.7921,1.73907-.48863,3.6862.30345,1.94707,1.0138,3.452,1.58721,3.36266l4.44593-.69291c.5734-.08936.79208-1.73912.48863-3.68619C160.89357-21.71,160.18323-23.21489,159.60983-23.12553Z" transform="translate(0 44.88277)" fill="#fff"/>
    <path d="M49.9687,27.819,47.379,26.90943c-.334-.11731-1.222,1.54554-1.98411,3.71557s-1.109,4.02294-.775,4.14025l2.58968.90953c.334.11731,1.222-1.5456,1.98411-3.71558C49.95588,29.78917,50.3027,27.93626,49.9687,27.819Z" transform="translate(0 44.88277)" fill="#fff" stroke="#fff" stroke-miterlimit="10" stroke-width="0.25"/>
    <path d="M222.10375,109.93306l-2.58968-.90953c-.334-.1173-1.222,1.54555-1.98411,3.71558-.76213,2.17-1.109,4.02294-.775,4.14024l2.58969.90954c.334.1173,1.222-1.54561,1.98411-3.71558C222.09093,111.90328,222.43775,110.05037,222.10375,109.93306Z" transform="translate(0 44.88277)" fill="#fff" stroke="#fff" stroke-miterlimit="10" stroke-width="0.25"/>
    <path d="M267.87043,92.22007l-1.6103,2.94034c-.20769.37923.5143,1.174,1.61326,1.77585s2.15744.78219,2.36513.403l1.61031-2.94034c.20769-.37923-.51433-1.174-1.61326-1.77585S268.07812,91.84084,267.87043,92.22007Z" transform="translate(0 44.88277)" fill="#fff" stroke="#fff" stroke-miterlimit="10" stroke-width="0.25"/>
    <path d="M62.63649,111.62137l-4.44593.69291c-.57341.08937-.79209,1.73908-.48863,3.6862s1.0138,3.452,1.58721,3.36267l4.44593-.69291c.5734-.08937.79208-1.73913.48863-3.6862S63.20989,111.532,62.63649,111.62137Z" transform="translate(0 44.88277)" fill="#fff"/>
    <path d="M253.14825,109.53532l-4.44593.69291c-.57341.08937-.7921,1.73907-.48863,3.6862.30345,1.94707,1.0138,3.452,1.58721,3.36267l4.44593-.69292c.5734-.08936.79208-1.73912.48863-3.68619S253.72165,109.446,253.14825,109.53532Z" transform="translate(0 44.88277)" fill="#fff"/>
    <path d="M75.24255,90.25789l-4.44593.69291c-.5734.08936-.79209,1.73907-.48863,3.68619.30346,1.94707,1.01381,3.452,1.58721,3.36267l4.44593-.69291c.57341-.08937.79209-1.73912.48863-3.6862S75.816,90.16852,75.24255,90.25789Z" transform="translate(0 44.88277)" fill="#fff"/>
    <g>
      <path d="M299.818,26.03224a16.78862,16.78862,0,1,0,17.83149,27.0491,26.41009,26.41009,0,0,1,11.48981-7.75882l3.42878-1.12625a1.12706,1.12706,0,0,0,.71909-1.42256l-5.96867-18.17114a1.12705,1.12705,0,0,0-1.42255-.71909l-3.43118,1.127a24.93834,24.93834,0,0,1-13.54841.633A16.74392,16.74392,0,0,0,299.818,26.03224Zm23.35023,1.11992,2.36036-.7753,5.2652,16.02949-2.358.77452a28.66014,28.66014,0,0,0-12.47882,8.412,14.53289,14.53289,0,1,1-7.56223-23.75625A27.19171,27.19171,0,0,0,323.16821,27.15216Z" transform="translate(0 44.88277)" fill="#fff"/>
      <path d="M285.69511,48.34043a1.12708,1.12708,0,0,0-1.42256-.7191l-7.75212,2.54634a1.12711,1.12711,0,1,0,.70347,2.14165L284.976,49.763A1.12706,1.12706,0,0,0,285.69511,48.34043Z" transform="translate(0 44.88277)" fill="#fff"/>
      <path d="M294.728,14.14807l2.54624,7.75183a1.12711,1.12711,0,1,0,2.14165-.70347l-2.54624-7.75182a1.12711,1.12711,0,0,0-2.14165.70346Z" transform="translate(0 44.88277)" fill="#fff"/>
      <path d="M313.7528,22.27863a1.127,1.127,0,1,0,2.01159,1.01684l1.84076-3.641a1.127,1.127,0,0,0-2.01159-1.01684Z" transform="translate(0 44.88277)" fill="#fff"/>
      <path d="M281.71342,31.44379l3.64124,1.84036a1.127,1.127,0,1,0,1.01684-2.01158l-3.64124-1.84037a1.127,1.127,0,0,0-1.01684,2.01159Z" transform="translate(0 44.88277)" fill="#fff"/>
      <path d="M296.36037,61.68289a1.127,1.127,0,1,0-2.01158-1.01684l-1.84076,3.641a1.127,1.127,0,0,0,2.01158,1.01684Z" transform="translate(0 44.88277)" fill="#fff"/>
      <path d="M323.74168,52.689l3.64123,1.84037a1.127,1.127,0,1,0,1.01684-2.01159l-3.64123-1.84036a1.127,1.127,0,1,0-1.01684,2.01158Z" transform="translate(0 44.88277)" fill="#fff"/>
      <path d="M310.69726,62.7651l2.54624,7.75182a1.12711,1.12711,0,1,0,2.14164-.70347l-2.54623-7.75182a1.12711,1.12711,0,0,0-2.14165.70347Z" transform="translate(0 44.88277)" fill="#fff"/>
      <path d="M329.45834,23.89969,335.427,42.07083a1.12711,1.12711,0,0,0,2.14165-.70346L331.6,23.19622a1.12711,1.12711,0,0,0-2.14165.70347Z" transform="translate(0 44.88277)" fill="#fff"/>
      <path d="M333.10523,22.70179l5.96868,18.17115a1.12711,1.12711,0,0,0,2.14165-.70347L339.334,34.44128l1.28415-.42181a3.46569,3.46569,0,0,0,2.20863-4.36928l-.04494-.13684a3.4657,3.4657,0,0,0-4.36929-2.20864l-1.28415.42181-1.88154-5.72819a1.12711,1.12711,0,0,0-2.14165.70346Zm6.01081,6.74457a1.20894,1.20894,0,0,1,1.52417.77046l.04495.13684a1.209,1.209,0,0,1-.77046,1.52417l-1.28415.4218-.79866-2.43146Z" transform="translate(0 44.88277)" fill="#fff"/>
      <path d="M293.74123,45.69752a4.17878,4.17878,0,0,0,5.48015,2.59151L317.222,41.30552a3.15927,3.15927,0,0,0-1.96908-5.9947l-18.63563,5.05041a4.17878,4.17878,0,0,0-2.8761,5.33629Zm22.10187-8.21114a.90509.90509,0,0,1,.56411,1.71738l-18.00066,6.98351a1.92386,1.92386,0,1,1-1.19907-3.65048Z" transform="translate(0 44.88277)" fill="#fff"/>
      <path d="M320.02721,37.06337a3.13132,3.13132,0,1,0,1.99756-3.95173A3.13446,3.13446,0,0,0,320.02721,37.06337Zm3.80824-1.2509a.8771.8771,0,1,1-1.10721-.55918A.87824.87824,0,0,1,323.83545,35.81247Z" transform="translate(0 44.88277)" fill="#fff"/>
    </g>
    <path d="M262.02434,29.53479l-4.44593.69291c-.5734.08937-.79209,1.73907-.48863,3.68619.30346,1.94707,1.01381,3.452,1.58721,3.36267l4.44593-.69291c.57341-.08937.79209-1.73912.48863-3.68619C263.30809,30.95033,262.59775,29.44542,262.02434,29.53479Z" transform="translate(0 44.88277)" fill="#fff"/>
    <path d="M278.387,43.54987l.67776-3.28319c.08741-.42345-.83582-.97168-2.06292-1.225s-2.292-.11549-2.37937.308l-.67776,3.28319c-.08741.42345.83585.97169,2.06292,1.225S278.29953,43.97332,278.387,43.54987Z" transform="translate(0 44.88277)" fill="#fff" stroke="#fff" stroke-miterlimit="10" stroke-width="0.25"/>
    <path d="M253.56844,79.70879A22.22613,22.22613,0,0,0,272.5881,55.882a2.00237,2.00237,0,0,0-2.28267-1.78986l-1.61023.2271-1.14747.16191a1.16885,1.16885,0,0,1-1.30246-.8411,16.26873,16.26873,0,0,0-3.258-6.355l-.02557-.03046a16.28149,16.28149,0,0,0-20.40549-3.78.82491.82491,0,0,0-.082.04486,16.26628,16.26628,0,0,0-8.301,14.64075,1.16981,1.16981,0,0,1-1.01764,1.17366l-1.14828.162-2.81518.39738a.82887.82887,0,0,0-.70513.93679,22.15191,22.15191,0,0,0,6.164,12.45377,1.18945,1.18945,0,0,1,.1221,1.55529l-3.36583,4.4717a1.18442,1.18442,0,0,1-1.6586.234l-3.43619-2.58641a4.86423,4.86423,0,0,0-5.40888-.29064,1.98485,1.98485,0,0,0-.08918,3.26873L237.3308,92.36836a1.98485,1.98485,0,0,0,3.11644-.99012,4.86417,4.86417,0,0,0-1.77586-5.1173L235.235,83.67439a1.18442,1.18442,0,0,1-.234-1.6586l3.36555-4.47132a1.18946,1.18946,0,0,1,1.52838-.313A22.14936,22.14936,0,0,0,253.56844,79.70879ZM240.6603,70.75732a16.24458,16.24458,0,0,0,11.60543,3.167.82954.82954,0,0,0,.19864-.02322A16.271,16.271,0,0,0,266.7009,56.27525l1.38492-.19541A17.6963,17.6963,0,0,1,233.08,61.01913l1.38494-.19533A16.24235,16.24235,0,0,0,240.6603,70.75732Zm10.46146-2.135a3.59678,3.59678,0,0,1,3.06624-2.85682c4.83713-.97543,7.44428-5.82952,6.34019-11.80449a5.69162,5.69162,0,0,1,.37431-3.79563,1.19254,1.19254,0,0,1,2.06534-.066A14.63463,14.63463,0,0,1,253.0715,72.1366a1.18026,1.18026,0,0,1-1.092-.3825A3.78934,3.78934,0,0,1,251.12176,68.62236Zm-10.92237-21.341a1.16808,1.16808,0,0,1,1.89193.41032,7.74231,7.74231,0,0,0,2.17362,2.9926c1.58881,1.4235,2.20336,2.9957,1.73059,4.42707A4.13715,4.13715,0,0,1,242.476,57.766a6.23251,6.23251,0,0,0-5.05452,3.72024,6.1524,6.1524,0,0,0-.46844,1.87818,14.63052,14.63052,0,0,1,3.24635-16.083Zm-3.97927,42.17538-12.29663-9.25565c-1.21518-.91466.124-2.843,1.35273-1.94655l.03892.02884,12.35894,9.30256.03517.02684C238.91635,88.54738,237.43984,90.3748,236.22012,89.45671Zm-4.20021-8.20233,4.51237-5.99491a2.0749,2.0749,0,0,0-.24-2.687,20.50539,20.50539,0,0,1-6.03068-11.15559l1.17345-.16557a19.3552,19.3552,0,0,0,38.2955-5.4034l1.17391-.16581a20.52158,20.52158,0,0,1-30.78651,19.77144,2.07263,2.07263,0,0,0-2.64177.51624l-4.51242,5.995Z" transform="translate(0 44.88277)" fill="#fff"/>
    <path d="M258.80438,45.81148q.4098.30846.79106.64027a1.19225,1.19225,0,0,1,.06485,1.70413c-.95593,1.064-1.79079,2.88523-1.235,5.89346,1.09062,5.9017-1.74394,9.21322-5.037,9.87694a5.2462,5.2462,0,0,0-4.36976,4.18354,5.43761,5.43761,0,0,0,.10285,2.40849,1.18664,1.18664,0,0,1-1.34978,1.4729,14.53344,14.53344,0,0,1-7.82168-3.818,1.52778,1.52778,0,0,1-.16872-.18823c-1.61136-2.13156-2.07768-4.276-1.30946-6.05428a4.61361,4.61361,0,0,1,3.68549-2.72662,5.83726,5.83726,0,0,0,4.94072-3.78563c.40113-1.21425.64841-3.63136-2.1988-6.18217-1.81548-1.62676-2.04311-3.09964-1.95678-3.97937a1.15371,1.15371,0,0,1,.65061-.91152A14.66079,14.66079,0,0,1,258.80438,45.81148Z" transform="translate(0 44.88277)" fill="#fff"/>
    <g>
      <path d="M206.74866,83.227a.68314.68314,0,0,0-.82507-.503l-40.22168,9.75362a.68325.68325,0,0,0-.503.82506L169.82267,112.37a.68325.68325,0,0,0,.82506.503l23.953-5.80852a7.98741,7.98741,0,0,0,15.93378,1.08508,7.94034,7.94034,0,0,0,.83786-5.85523ZM184.01685,98.83369c-.87369-3.60292.33056-6.99841,2.68434-7.56919s4.97959,1.89593,5.85328,5.49885-.33047,6.99878-2.68424,7.56957S184.89055,102.43661,184.01685,98.83369Zm2.74559,6.25285-11.51789,2.793A3.22721,3.22721,0,0,0,172.273,106.068l-2.00915-8.28528a3.22774,3.22774,0,0,0,1.81163-2.97151l11.51784-2.793a10.10584,10.10584,0,0,0,3.16909,13.0684Zm7.12011-8.64524a9.29557,9.29557,0,0,0-4.07362-5.93041l11.51812-2.79311a3.226,3.226,0,0,0,2.97106,1.81135l1.70624,7.03617a7.96875,7.96875,0,0,0-10.29186,6.35089l-2.73457.66312A9.29614,9.29614,0,0,0,193.88255,96.4413Zm10.26081,17.4179a6.62731,6.62731,0,1,1,4.87872-8.00285A6.6351,6.6351,0,0,1,204.14336,113.8592Zm6.03719-8.89632a7.97933,7.97933,0,0,0-12.41411-3.921,6.623,6.623,0,0,1,12.41411,3.921ZM207.5778,97.2551l-2.09539-8.64092a.68314.68314,0,0,0-.82507-.503,1.8525,1.8525,0,0,1-2.23439-1.36222.68313.68313,0,0,0-.82506-.503l-30.43751,7.381a.68325.68325,0,0,0-.503.82506,1.85266,1.85266,0,0,1-1.36241,2.23444.68326.68326,0,0,0-.503.82507l2.29678,9.47142a.68326.68326,0,0,0,.82507.503,1.85274,1.85274,0,0,1,2.23466,1.36255.68326.68326,0,0,0,.82507.503l20.19451-4.89709a7.99933,7.99933,0,0,0-.36387,1.15463l-23.81446,5.77492L166.688,93.64466l38.89361-9.43155L208.992,98.27688A8.0481,8.0481,0,0,0,207.5778,97.2551Z" transform="translate(0 44.88277)" fill="#fff"/>
      <path d="M188.89131,95.87746a.68328.68328,0,0,0,1.32808-.32205,2.41125,2.41125,0,0,0-2.21988-1.83627l-.0476-.1963a.68328.68328,0,0,0-1.32807.32205l.0476.1963a2.40609,2.40609,0,0,0,1.0876,4.485l.45269,1.86677a1.03473,1.03473,0,0,1-.53144-.67308.68328.68328,0,0,0-1.32808.32205,2.4111,2.4111,0,0,0,2.21969,1.83632l.04751.19593a.68328.68328,0,0,0,1.32808-.322l-.04751-.19594a2.40627,2.40627,0,0,0-1.0877-4.4854l-.45263-1.86654A1.03478,1.03478,0,0,1,188.89131,95.87746Zm-2.02379.49077a1.03477,1.03477,0,0,1,.16409-.84175l.36727,1.51451A1.03447,1.03447,0,0,1,186.86752,96.36823Zm2.83656,2.86092a1.03475,1.03475,0,0,1-.16425.84193l-.36741-1.51511A1.03473,1.03473,0,0,1,189.70408,99.22915Z" transform="translate(0 44.88277)" fill="#fff"/>
      <path d="M203.18709,105.49712a.68328.68328,0,1,0,1.32808-.322,2.41125,2.41125,0,0,0-2.21988-1.83627l-.0476-.1963a.68328.68328,0,0,0-1.32807.32205l.0476.19631a2.406,2.406,0,0,0,1.0876,4.485l.45272,1.8669a1.03477,1.03477,0,0,1-.53166-.67317.68328.68328,0,0,0-1.32807.32205,2.41125,2.41125,0,0,0,2.21987,1.83627l.04751.19593a.68328.68328,0,0,0,1.32808-.32205l-.04751-.19593a2.40628,2.40628,0,0,0-1.0877-4.48541l-.45263-1.86653A1.03474,1.03474,0,0,1,203.18709,105.49712Zm-2.024.49081a1.03475,1.03475,0,0,1,.16425-.84193l.36733,1.51479A1.03439,1.03439,0,0,1,201.16311,105.98793Zm2.83675,2.86088a1.03475,1.03475,0,0,1-.16425.84193l-.3674-1.51511A1.03475,1.03475,0,0,1,203.99986,108.84881Z" transform="translate(0 44.88277)" fill="#fff"/>
    </g>
    <g>
      <path d="M131.0343,107.07355a7.89987,7.89987,0,1,0-11.15934-.53115A7.84739,7.84739,0,0,0,131.0343,107.07355Zm-10.50187-1.12888a7.01121,7.01121,0,1,1,9.90414.47141A6.96551,6.96551,0,0,1,120.53243,105.94467Z" transform="translate(0 44.88277)" fill="#fff"/>
      <path d="M130.18927,97.16534a.44428.44428,0,1,0-.65747.59772,5.15165,5.15165,0,0,1-.34635,7.27684.44428.44428,0,1,0,.59772.65747A6.04666,6.04666,0,0,0,130.18927,97.16534Z" transform="translate(0 44.88277)" fill="#fff"/>
      <path d="M110.13383,117.557l8.28611-7.53316a.44417.44417,0,0,0,.02987-.6276l-.47672-.52437.67091-.60995a9.97747,9.97747,0,1,0-.59739-.65778l-.67125.61026-.47672-.52437a.44416.44416,0,0,0-.6276-.02987l-8.28623,7.53316a1.51763,1.51763,0,0,0-.10192,2.14385l.10709.11779a1.51747,1.51747,0,0,0,2.14385.102Zm9.47193-23.05431a9.08954,9.08954,0,1,1-.61114,12.84A9.03008,9.03008,0,0,1,119.60576,94.50272Zm-10.95818,22.35455h-.00013l-.10709-.1178a.6444.6444,0,0,1,.0423-.88864l7.95737-7.23431.95332,1.04873-7.95738,7.23431a.62884.62884,0,0,1-.88839-.04229Z" transform="translate(0 44.88277)" fill="#fff"/>
    </g>
    <path d="M187.04754,1.662,188.343,4.86885a.89328.89328,0,0,0,1.16309.49378l1.95329-.78906L205.241,32.24706l-1.67588.677a.89329.89329,0,0,0-.49378,1.16309l1.30894,3.24024a.89328.89328,0,0,0,1.16309.49378l.09985-.04034,1.20959,5.2786a.89266.89266,0,0,0,1.20531.62891l3.22868-1.30427a.89354.89354,0,0,0,.55884-.84629l-.04509-2.25211,1.26346-.51039.66931,1.65687a.8933.8933,0,0,0,1.1631.49378l3.41244-1.3785a.89344.89344,0,0,0,.49378-1.16309l-.66931-1.65687,1.26346-.51039,1.53206,1.65143a.89321.89321,0,0,0,.98962.22078l3.22892-1.30435a.89337.89337,0,0,0,.43053-1.28972l-2.7962-4.63768.09963-.04024a.89345.89345,0,0,0,.49378-1.16309L222.06618,26.414a.89343.89343,0,0,0-1.16309-.49378l-1.68075.679L209.9157-2.88207l1.95814-.791a.89344.89344,0,0,0,.49378-1.16309L211.07218-8.043a8.19277,8.19277,0,0,0,4.29485-10.5529.89344.89344,0,0,0-1.16309-.49378L177.12149-4.10982a.89329.89329,0,0,0-.49378,1.16309A8.193,8.193,0,0,0,187.04754,1.662ZM200.15711,10.4l1.74563-.70517,4.37819-1.76862,1.1952,2.9587-6.12382,2.47379Zm.24789-2.02739-1.74564.70517-2.4643.99548-1.42687-2.86511,4.44161-1.79424Zm23.10154,27.14793-1.68646.68126L220.288,34.55034a.89324.89324,0,0,0-.98963-.22078l-2.66283,1.07568a.89345.89345,0,0,0-.49378,1.1631l.66931,1.65687-1.75557.70918-.66931-1.65687a.89329.89329,0,0,0-1.16309-.49378l-2.66283,1.07568a.89355.89355,0,0,0-.55884.8463l.04508,2.25211-1.686.68107-1.03981-4.53573,13.783-5.56782Zm-2.123-6.02544-.20437.08256-.0065.00262-15.47024,6.24938-.63962-1.58337L220.744,27.91171Zm-13.275-12.671,5.45808-2.20485.96353,3.05228-5.22641,2.11127ZM213.02708,12.91l-6.41622,2.5919-3.593,1.45142a.89348.89348,0,0,0,.66931,1.65688l2.76454-1.11677,1.52985,3.78714a.89345.89345,0,0,0,1.1631.49378l5.92511-2.39352,2.49062,7.88967-10.657,4.305L196.99411,11.6777l1.50613-.60842,1.52986,3.78713a.89327.89327,0,0,0,1.16309.49378l7.78069-3.14309a.89345.89345,0,0,0,.49378-1.16309l-1.86452-4.61558a.89344.89344,0,0,0-1.16309-.49378l-4.37818,1.76862L200.532,3.91613a.89329.89329,0,0,0-1.16309-.49378l-5.39977,2.1813-.8474-1.70162,15.132-6.11275ZM189.66519,3.3711l-.956-2.3665,20.7109-8.3664.956,2.3665Zm24.32207-20.446a6.41178,6.41178,0,0,1-3.81489,7.482L186.61834-.078A6.41137,6.41137,0,0,1,178.677-2.81095Z" transform="translate(0 44.88277)" fill="#fff"/>
    <path d="M2.17993,89.28571l5.65651-.31064,5.61387,11.06512a3.08975,3.08975,0,0,0,.71573,4.8114l.52674,1.80124q.7926,2.712,1.567,5.35332a1.0586,1.0586,0,0,0,1.11368.75554,8.97431,8.97431,0,0,0,5.91409-3.0005,1.0585,1.0585,0,0,0,.048-1.34489q-1.67328-2.18562-3.39453-4.42612l-1.14254-1.48882a3.08974,3.08974,0,0,0-3.46-3.4191L10.14619,88.84818l4.91084-.26972,6.39062,12.59612c.85048,1.67633,3.07258,3.49247,8.82825,2.62454a44.55106,44.55106,0,0,0,12.81753-4.45047c8.93542-4.53337,16.80908-11.35924,14.25709-16.38932L50.9599,70.36321l8.17571-9.97385a1.05851,1.05851,0,0,0-.87667-1.728l-34.372,1.88781a1.05654,1.05654,0,0,0-.76075.386L1.30325,87.55776a1.0585,1.0585,0,0,0,.87668,1.72795ZM16.59728,101.7091a.99274.99274,0,1,1-1.3345-.43621A.994.994,0,0,1,16.59728,101.7091Zm1.4334,8.81169q-.6474-2.20641-1.30591-4.462l-.25986-.889a2.8985,2.8985,0,0,0,1.23267-.62539l.56391.73471q1.43066,1.86406,2.82952,3.689A6.86286,6.86286,0,0,1,18.03068,110.52079ZM49.49346,72.1523l5.96893,11.765c1.56,3.07478-4.16943,8.89723-13.32689,13.54325s-17.23974,5.83091-18.79973,2.75612l-5.96893-11.765L36.552,87.39791a1.05655,1.05655,0,0,0,.76075-.386ZM24.46822,62.63771l31.50534-1.73049L35.97065,85.30941l-23.5381,1.29287L30.7895,74.86547a1.05853,1.05853,0,0,0-1.14013-1.78382L8.13268,86.83844l-3.6674.2014Z" transform="translate(0 44.88277)" fill="#fff"/>
  </g>
  <g>
    <path d="M289.51036,88.487l4.65226-1.41238a.6191.6191,0,0,0-.3597-1.1848l-4.65226,1.41238a.6191.6191,0,1,0,.3597,1.1848Z" transform="translate(0 44.88277)" fill="#fff"/>
    <path d="M287.08663,93.29043l-2.87738.87354a.619.619,0,0,0-.41255.77225l.87354,2.87737a.619.619,0,0,0,.77225.41256l2.87737-.87355a.619.619,0,0,0,.41256-.77225l-.87355-2.87737A.619.619,0,0,0,287.08663,93.29043Zm.28114,3.05722-1.69257.51385-.51385-1.69257,1.69257-.51385Z" transform="translate(0 44.88277)" fill="#fff"/>
    <path d="M291.43749,94.83483l8.80138-2.672a.6191.6191,0,1,0-.3597-1.1848L291.0778,93.65a.6191.6191,0,1,0,.35969,1.1848Z" transform="translate(0 44.88277)" fill="#fff"/>
    <path d="M289.01376,99.63824l-2.87737.87354a.619.619,0,0,0-.41256.77225l.87355,2.87737a.619.619,0,0,0,.77224.41255l2.87738-.87354a.619.619,0,0,0,.41255-.77225l-.87354-2.87737A.619.619,0,0,0,289.01376,99.63824Zm.28114,3.05721-1.69257.51385-.51385-1.69257,1.69257-.51385Z" transform="translate(0 44.88277)" fill="#fff"/>
    <path d="M293.36463,101.18264l4.65225-1.41238a.6191.6191,0,1,0-.35969-1.1848l-4.65226,1.41238a.6191.6191,0,1,0,.3597,1.1848Z" transform="translate(0 44.88277)" fill="#fff"/>
    <path d="M290.94089,105.986l-2.87737.87354a.619.619,0,0,0-.41255.77225l.87354,2.87737a.619.619,0,0,0,.77225.41256l2.87737-.87355a.619.619,0,0,0,.41255-.77224l-.87354-2.87738A.619.619,0,0,0,290.94089,105.986Zm.28115,3.05722-1.69258.51385-.51384-1.69257,1.69257-.51385Z" transform="translate(0 44.88277)" fill="#fff"/>
    <path d="M310.30023,78.71585a3.08453,3.08453,0,0,0-5.54313,1.325l-.47983,3.01071-.00006.00017,0,.00037-.52871,3.31732L301.26,78.17266a.61924.61924,0,0,0-.30071-.36616l-6.50894-3.47723a.61929.61929,0,0,0-.47154-.0464l-18.13861,5.50672a.619.619,0,0,0-.41256.77224l10.8936,35.88252a.619.619,0,0,0,.77225.41256l23.1317-7.02257a.619.619,0,0,0,.41255-.77225l-2.79316-9.20042L310.84892,81.012A3.0627,3.0627,0,0,0,310.30023,78.71585Zm-3.673,20.9179-2.389,3.25985-1.25746-3.84108,2.42156-15.19445,3.64675.58123Zm-11.442-23.50823,3.87244,2.06875-2.97059.90184Zm-7.859,39.36674L276.7923,80.79454l16.95382-5.147,1.336,4.40069a.619.619,0,0,0,.77224.41255l4.40069-1.336,3.048,10.03973-1.56843,9.841a.6181.6181,0,0,0,.02276.29023l1.48232,4.52777-8.30761,2.52211a.6191.6191,0,1,0,.35969,1.1848l8.80137-2.672a.60961.60961,0,0,0,.05733-.0239c.01806-.00375.03681-.00468.05441-.01a.61641.61641,0,0,0,.31934-.22657l2.44947-3.34267,2.29943,7.57412ZM309.62643,80.817l-.38251,2.39978-3.64676-.58126.38244-2.39965a1.84642,1.84642,0,1,1,3.64683.58113Z" transform="translate(0 44.88277)" fill="#fff"/>
    <path d="M285.93039,87.74083a.61934.61934,0,0,0-.79629.3645l-.69318,1.86369-.71321-.381a.619.619,0,0,0-.58338,1.092l1.33818.71516a.619.619,0,0,0,.47153.0464c.01323-.004.02635-.00836.03927-.01337a.62078.62078,0,0,0,.36129-.36314l.9403-2.52794A.61965.61965,0,0,0,285.93039,87.74083Z" transform="translate(0 44.88277)" fill="#fff"/>
  </g>
</svg>
